<?xml version="1.0" encoding="utf-8"?>
<!-- Generator: Adobe Illustrator 25.1.0, SVG Export Plug-In . SVG Version: 6.00 Build 0)  -->
<svg version="1.1" xmlns="http://www.w3.org/2000/svg" xmlns:xlink="http://www.w3.org/1999/xlink" x="0px" y="0px"
	 viewBox="0 0 3710 3710" style="enable-background:new 0 0 3710 3710;" xml:space="preserve">
<style type="text/css">
	.st0{fill:#FFFFFF;}
	.st1{fill:#F4F7FA;}
	.st2{fill:url(#SVGID_1_);}
	.st3{fill:url(#SVGID_2_);}
	.st4{fill:url(#SVGID_3_);}
	.st5{opacity:0.3;fill:url(#SVGID_4_);}
	.st6{fill:url(#SVGID_5_);}
	.st7{fill:url(#SVGID_6_);}
	.st8{fill:url(#SVGID_7_);}
	.st9{fill:url(#SVGID_8_);}
	.st10{fill:url(#SVGID_9_);}
	.st11{fill:url(#SVGID_10_);}
	.st12{fill:url(#SVGID_11_);}
	.st13{opacity:0.3;}
	.st14{fill:url(#SVGID_12_);}
	.st15{fill:url(#SVGID_13_);}
	.st16{fill:url(#SVGID_14_);}
	.st17{fill:url(#SVGID_15_);}
	.st18{fill:url(#SVGID_16_);}
	.st19{fill:url(#SVGID_17_);}
	.st20{fill:url(#SVGID_18_);}
	.st21{fill:url(#SVGID_19_);}
	.st22{fill:url(#SVGID_20_);}
	.st23{fill:url(#SVGID_21_);}
	.st24{fill:url(#SVGID_22_);}
	.st25{fill:url(#SVGID_23_);}
	.st26{fill:url(#SVGID_24_);}
	.st27{opacity:0.3;fill:url(#SVGID_25_);}
	.st28{fill:url(#SVGID_26_);}
	.st29{fill:url(#SVGID_27_);}
	.st30{fill:url(#SVGID_28_);}
	.st31{fill:url(#SVGID_29_);}
	.st32{fill:url(#SVGID_30_);}
	.st33{fill:url(#SVGID_31_);}
	.st34{fill:url(#SVGID_32_);}
</style>
<g id="Background">
	<g>
		<g>
			<rect class="st0" width="3710" height="3710"/>
		</g>
	</g>
</g>
<g id="Illustration">
	<g>
		<path class="st1" d="M2608.3,623.3c94.4,135.2-16.3,354.4,123.8,456c136.4,99,304-63.3,432.5,21.9
			c190.7,126.4,155.9,704.6-122.9,1063.9c-83.8,108.1-153.9,150.1-184.9,272.3c-66.6,262.4,167.5,418.5,123,548.3
			C2879.4,3278,1336.3,3523.2,717.2,2645C428,2234.8,384.8,1642.6,643.1,1192.7C1110,379.9,2396.4,320,2608.3,623.3z"/>
		<g>
			<linearGradient id="SVGID_1_" gradientUnits="userSpaceOnUse" x1="1514.6538" y1="3096.4167" x2="1669.7981" y2="3096.4167">
				<stop  offset="0" style="stop-color:#444B8C"/>
				<stop  offset="0.9964" style="stop-color:#3E4177"/>
			</linearGradient>
			<path class="st2" d="M1538,3059.6c-11.4-2.4-22.2,5.9-22.8,17.5c-0.7,13.3-0.9,29.2,1.6,35.7c4.7,12.1,118,22.4,147.3,20.6
				C1691,3131.9,1619.5,3076.5,1538,3059.6z"/>
			<linearGradient id="SVGID_2_" gradientUnits="userSpaceOnUse" x1="1507.1334" y1="2767.4109" x2="1541.4956" y2="3183.1892">
				<stop  offset="0" style="stop-color:#FFC444"/>
				<stop  offset="0.9964" style="stop-color:#F36F56"/>
			</linearGradient>
			<path class="st3" d="M1547.1,3002.2l8.5,61.1c2.1,15-13,26.9-26.9,20.8c-0.2-0.1-0.4-0.2-0.6-0.3c-5.2-2.4-8.9-7.2-10.4-12.7
				l-14.1-54.9L1547.1,3002.2z"/>
			<linearGradient id="SVGID_3_" gradientUnits="userSpaceOnUse" x1="1580.3021" y1="3084.2476" x2="1466.9088" y2="2266.4368">
				<stop  offset="0" style="stop-color:#444B8C"/>
				<stop  offset="0.9964" style="stop-color:#3E4177"/>
			</linearGradient>
			<path class="st4" d="M1572.6,1876.7c20.2,171.1,33.5,365.9,31.7,580.4c-1.8,215.8-18.6,411.6-41.9,583.2
				c-4.4,3.3-14.6,9.9-29.3,11.6c-15.6,1.8-27.5-3-32.5-5.3c-76.9-152.6-81.5-266.8-70.3-344.4c6.6-45.7,15.7-57.9,17.7-105.4
				c4.7-109.3-38-172.5-86.7-292.3c-69.1-169.6-103.7-254.5-72.2-319.6C1301.2,1960,1349.5,1882.5,1572.6,1876.7z"/>
			<linearGradient id="SVGID_4_" gradientUnits="userSpaceOnUse" x1="1277.4086" y1="2476.6958" x2="1546.7777" y2="2476.6958">
				<stop  offset="0" style="stop-color:#444B8C"/>
				<stop  offset="0.9964" style="stop-color:#3E4177"/>
			</linearGradient>
			<path class="st5" d="M1495.3,2797.6c17.6-124.2,70-193.3,44.7-326.4c-22.3-117.2-77.7-141.7-118.5-266.3
				c-22.4-68.3-40.7-167.8-20.3-302.5c-80.1,26.5-104,66.1-112,82.6c-31.5,65.1,3,149.9,72.2,319.6c48.8,119.7,91.4,183,86.7,292.3
				c-2,47.5-11.1,59.7-17.7,105.4c-11.2,77.6-6.5,191.8,70.3,344.4c2.8,1.3,7.8,3.3,14.3,4.5
				C1486.3,2948.7,1485.9,2864.4,1495.3,2797.6z"/>
			<linearGradient id="SVGID_5_" gradientUnits="userSpaceOnUse" x1="857.9036" y1="3067.1487" x2="979.1562" y2="3067.1487">
				<stop  offset="0" style="stop-color:#444B8C"/>
				<stop  offset="0.9964" style="stop-color:#3E4177"/>
			</linearGradient>
			<path class="st6" d="M862.9,3036.7c-6.1,8.1-6.7,19.1-1.4,27.8c12.9,21.2,42.2,57.2,91,66.9c69.8,13.9-17.5-37.2-37.5-109.5
				C902.6,2976.8,879.8,3014.3,862.9,3036.7z"/>
			<linearGradient id="SVGID_6_" gradientUnits="userSpaceOnUse" x1="897.6617" y1="2817.7827" x2="932.0233" y2="3233.5542">
				<stop  offset="0" style="stop-color:#FFC444"/>
				<stop  offset="0.9964" style="stop-color:#F36F56"/>
			</linearGradient>
			<path class="st7" d="M899.3,2949l-18.7,62.5c-3.5,11.8,5.6,23.8,17.8,23.1c0.2,0,0.4,0,0.6,0c5.7-0.4,10.9-3.7,13.8-8.6
				l31.9-52.7L899.3,2949z"/>
			<linearGradient id="SVGID_7_" gradientUnits="userSpaceOnUse" x1="872.0165" y1="2490.0144" x2="1445.4979" y2="2490.0144">
				<stop  offset="0" style="stop-color:#444B8C"/>
				<stop  offset="0.9964" style="stop-color:#3E4177"/>
			</linearGradient>
			<path class="st8" d="M1105.3,1974.6c-32.6,213.6-42.7,336.3-44.5,412.2c-0.4,17.8-1,57.5-17.4,105.7
				c-26.7,78.4-76.1,122.8-97.8,147c-46.8,52.1-89.7,148.7-67.5,345c18.5,7,37,14,55.5,21c81.8-127.3,164.8-268.2,245.7-422.6
				c109.5-209.1,196.6-408.3,266.3-591C1332.1,1986,1218.7,1980.3,1105.3,1974.6z"/>
			<linearGradient id="SVGID_8_" gradientUnits="userSpaceOnUse" x1="1660.5448" y1="1804.437" x2="1062.65" y2="1250.0665">
				<stop  offset="3.597120e-03" style="stop-color:#E38DDD"/>
				<stop  offset="1" style="stop-color:#9571F6"/>
			</linearGradient>
			<path class="st9" d="M981.6,1149.9c40.4-18.7,87.1-42.9,108.2-56.7c77.7-50.8,59-123.8,132.3-283.5
				c41.9-91.3,95.6-204.7,184.4-217.1c28.9-4,68.3,1.7,79.2,23.7c16.9,34.3-44.3,89.9-81.5,136.6
				c-151.7,190.3-95.1,471.4-91.1,493.1c22.2,119.3,69.3,96.2,203.8,335.5c100.4,178.7,214.4,381.6,136.7,507.2
				c-37,59.8-105.8,83.3-136,93.6c-111.6,38.2-154.7-22-307.5-6.9c-125.7,12.5-159.5,59.4-219.9,29.2
				c-75.8-38-91.8-146.7-94.5-164.9c-10.9-74.4,14-111,34.4-197.6c2.2-9.6,40.1-177.4,5.2-353.9c-31.3-157.9-104.1-238.2-61.9-288.6
				C887.9,1182.3,900.3,1187.4,981.6,1149.9z"/>
			<linearGradient id="SVGID_9_" gradientUnits="userSpaceOnUse" x1="986.4191" y1="1267.0966" x2="979.5468" y2="999.0747">
				<stop  offset="0" style="stop-color:#FFC444"/>
				<stop  offset="0.9964" style="stop-color:#F36F56"/>
			</linearGradient>
			<path class="st10" d="M959.4,1016l-12,89.6c-2.8,21.2-8.9,41.8-17.9,61.2l-15.7,33.8c0,0,77.5,0.2,137.8-56.9
				c5.2-4.9,1.1-13.7-6-12.9l0,0c-22.7-10.3-37.3-33-37.3-57.9v-42.5L959.4,1016z"/>
			<g>
				
					<linearGradient id="SVGID_10_" gradientUnits="userSpaceOnUse" x1="-1395.0928" y1="-428.5576" x2="-1529.448" y2="-769.7957" gradientTransform="matrix(-0.9728 0.2315 0.2315 0.9728 -326.8833 1981.6624)">
					<stop  offset="0" style="stop-color:#444B8C"/>
					<stop  offset="0.9964" style="stop-color:#3E4177"/>
				</linearGradient>
				<path class="st11" d="M1038.1,978.2c30-30.7,39.6-90.4,20.1-107.9c-20.3-18.3-80.6,2-107.6,34.8c-7.4,9-12.8,19.6-28.4,32.8
					c-17,14.4-24.7,13.8-34.4,26.3c-14.5,18.7-11.4,41.9-10.7,47c0.2,1.7,5.3,35.3,21.6,38.5c12.1,2.4,25.5-12.9,34.1-6.7
					c0.8,0.6,1.3,1.2,1.7,1.6c8.6,8.1,24.9,21.4,52.7,35.2c0.1-7.1,0.6-16,2.4-26c0.7-3.8,3.6-18.8,10.2-32.3
					C1010.9,999,1026.5,990.1,1038.1,978.2z"/>
				<linearGradient id="SVGID_11_" gradientUnits="userSpaceOnUse" x1="1051.8409" y1="1061.042" x2="826.7718" y2="916.7225">
					<stop  offset="0" style="stop-color:#FFC444"/>
					<stop  offset="0.9964" style="stop-color:#F36F56"/>
				</linearGradient>
				<path class="st12" d="M952.6,1067.6c0,0,32.3,32.8,78.1,18.9c41-12.4,25.2-107.2-6-120.8c-10.4-4.5-28.8-3.1-42.3,4.3
					c-8,4.4-10,8.6-23.2,15.5c-12.1,6.4-16.1,5.8-19.3,10c-3.9,5.2-5.1,16.2,9.4,41.5c-9.8-6.2-20.1-7-26.1-2.3
					c-1,0.8-3.4,3.4-4.3,6.7C915.7,1053.6,928.6,1064.9,952.6,1067.6z"/>
			</g>
			<g class="st13">
				<linearGradient id="SVGID_12_" gradientUnits="userSpaceOnUse" x1="860.5254" y1="1701.7869" x2="1679.3867" y2="1701.7869">
					<stop  offset="3.597120e-03" style="stop-color:#E38DDD"/>
					<stop  offset="1" style="stop-color:#9571F6"/>
				</linearGradient>
				<path class="st14" d="M1621.9,2081.7c-43.6-6.8-49-49.1-103.1-91.6c-121.2-95.3-260.3-14.3-311.5-82.5
					c-50.7-67.5,78.5-156.1,45.8-281.8c-38.4-147.6-247.3-143.4-336.7-339c-15.9-34.8-24.6-68.4-29.3-98c-5.5,2.8-9.5,6-13.7,10.9
					c-42.2,50.5,30.6,130.8,61.9,288.6c35,176.5-2.9,344.4-5.2,353.9c-20.3,86.6-45.3,123.2-34.4,197.6
					c2.7,18.2,18.7,127,94.5,164.9c60.4,30.2,94.2-16.7,219.9-29.2c152.8-15.1,195.9,45,307.5,6.9c30.2-10.3,99-33.9,136-93.6
					c2.2-3.6,4.2-7.2,6.1-10.8C1647.2,2082.2,1634.5,2083.7,1621.9,2081.7z"/>
			</g>
		</g>
		<linearGradient id="SVGID_13_" gradientUnits="userSpaceOnUse" x1="1767.741" y1="1336.8995" x2="2331.4663" y2="1336.8995">
			<stop  offset="0" style="stop-color:#FFC444"/>
			<stop  offset="0.9964" style="stop-color:#F36F56"/>
		</linearGradient>
		<path class="st15" d="M1775.4,1223.8c-29.1,25.6,24.1,217.7,175.2,274.9c119.1,45.1,261.3-4.9,329.5-104
			c39.3-57.1,74.9-159.1,31.3-208.7c-2-2.3-26.7-29.4-61.9-27.5c-81.5,4.5-86.7,157.6-174.1,176.4c-20.5,4.4-27.9-2.4-199.4-77.2
			C1793.3,1221.6,1782.3,1217.7,1775.4,1223.8z"/>
		<g>
			<linearGradient id="SVGID_14_" gradientUnits="userSpaceOnUse" x1="1510.8049" y1="572.6057" x2="1898.7277" y2="1196.2833">
				<stop  offset="0" style="stop-color:#311944"/>
				<stop  offset="1" style="stop-color:#893976"/>
			</linearGradient>
			<path class="st16" d="M2120.8,681.9l-726.1-39.1c-59.8-3.2-108.5,40.8-108.5,98.4V1139c0,57.5,48.7,105.4,108.5,106.9l237.4,5.8
				l110.8,130.9c6.7,7.9,18.4,9.2,26.6,2.9l0,0l106.5-127.8l244.8,6c55.4,1.4,100-42.1,100-97V786.7
				C2220.8,731.8,2176.2,684.8,2120.8,681.9z"/>
			<linearGradient id="SVGID_15_" gradientUnits="userSpaceOnUse" x1="1525.2566" y1="561.0443" x2="1913.1794" y2="1184.7219">
				<stop  offset="0" style="stop-color:#FF9085"/>
				<stop  offset="1" style="stop-color:#FB6FBB"/>
			</linearGradient>
			<path class="st17" d="M2135.3,670.3l-726.1-39.1c-59.8-3.2-108.5,40.8-108.5,98.4v397.8c0,57.5,48.7,105.4,108.5,106.9l237.4,5.8
				l108.1,127.7c7.7,9.1,21.7,9.2,29.5,0.2l106.3-121.9l244.8,6c55.4,1.4,100-42.1,100-97V775.2
				C2235.3,720.2,2190.6,673.3,2135.3,670.3z"/>
			<path class="st0" d="M2017.4,906.8c-4-75.3-55.2-138.6-118.9-146.6c-50.7-6.4-95.8,22.3-119.8,68.6
				c-24.1-48.6-69.6-81.8-121.2-80.4c-65.7,1.8-119,61.4-123.2,138.2c-2.8,50.7,15.6,97.3,45.8,128.7l185.4,151
				c8,6.5,18.5,6.8,26.4,0.8l181.6-137.8C2002.5,1000.7,2020.1,956.6,2017.4,906.8z"/>
		</g>
		<linearGradient id="SVGID_16_" gradientUnits="userSpaceOnUse" x1="1590.5507" y1="1116.9314" x2="1554.4708" y2="1537.863">
			<stop  offset="0" style="stop-color:#FFC444"/>
			<stop  offset="0.9964" style="stop-color:#F36F56"/>
		</linearGradient>
		<path class="st18" d="M1553.3,1304.4c0,0,0-85.4,12-112.1c12-26.7,36.1-31.9,43-23.3c3.3,4.1-2.1,40.1-12,74.1
			c-1.2,4.1-9.5,30.3-12,49.6C1581.6,1312.3,1560,1308.8,1553.3,1304.4z"/>
		<g>
			
				<linearGradient id="SVGID_17_" gradientUnits="userSpaceOnUse" x1="1464.76" y1="1296.8464" x2="979.1321" y2="999.0561" gradientTransform="matrix(0.9925 -0.1225 0.1225 0.9925 -314.6277 357.7948)">
				<stop  offset="3.597120e-03" style="stop-color:#E38DDD"/>
				<stop  offset="1" style="stop-color:#9571F6"/>
			</linearGradient>
			<path class="st19" d="M1547.6,1281.1c6.7-4.3,18.9-10.9,35.5-13c14.7-1.9,26.8,0.6,34.2,2.7c-3.5,20.2-57.1,301.8-295.6,396.2
				c-134.4,53.2-326.6,46.5-440.7-80.2c-59.4-66-116.8-185.7-81.5-286.5c17.9-50.9,63.7-109.4,114.6-108.2
				c30,0.7,49,21.8,102.1,80.2c150,164.8,164.1,178.2,191,189.3c86.6,35.8,173.6-6.8,194.5-17.1
				C1500.7,1396.1,1539,1303.4,1547.6,1281.1z"/>
		</g>
		<linearGradient id="SVGID_18_" gradientUnits="userSpaceOnUse" x1="1962.603" y1="1394.3175" x2="1904.1879" y2="1083.3439">
			<stop  offset="0" style="stop-color:#311944"/>
			<stop  offset="1" style="stop-color:#A03976"/>
		</linearGradient>
		<path class="st20" d="M1990.1,1290.8c-15.7-25.2,3.9-46.6-10.3-68.7c-9.6-15-28.2-20.3-30.1-18c-2.5,3,21.1,22.2,17.2,28.3
			c-2.1,3.3-11.1,1.3-39.5-6.9c-40.7-11.7-47.8-14.8-49.8-12c-4.2,5.9,16.3,37.2,47.9,54.9c19,10.7,35.5,12.8,43.2,29.3
			c4.4,9.5,3.4,18.4,9.4,20.6c6.2,2.3,16.2-3.8,18-11.2C1997.7,1301,1993.1,1295.6,1990.1,1290.8z"/>
		<g>
			<linearGradient id="SVGID_19_" gradientUnits="userSpaceOnUse" x1="2416.2468" y1="1224.1787" x2="2861.2322" y2="1579.8231">
				<stop  offset="0" style="stop-color:#311944"/>
				<stop  offset="1" style="stop-color:#893976"/>
			</linearGradient>
			<path class="st21" d="M2516.4,1726.7c116.3,55.7,226.8,39.1,304.1,27.5c87.3-13.1,171.4-25.8,204.5-91.1
				c32.7-64.6,3.5-157.4-48.1-207.9c-60.6-59.3-121.1-29.8-163.2-87.6c-43.2-59.3,7.8-107.4-30.9-173.5
				c-48.7-83.3-153.5-48-204.5-132.3c-41.8-69.2,9.4-125.7-32.6-170.1c-58.4-61.5-228.6-28.6-255.8,43.9
				c-10.7,28.3,5.5,49.5,17.4,89.3c38,126.7-39.7,198.5-46.8,313.5C2250.8,1493.8,2373,1658,2516.4,1726.7z"/>
			<linearGradient id="SVGID_20_" gradientUnits="userSpaceOnUse" x1="2416.6863" y1="2932.0029" x2="2618.2764" y2="3170.2454">
				<stop  offset="0" style="stop-color:#444B8C"/>
				<stop  offset="0.9964" style="stop-color:#3E4177"/>
			</linearGradient>
			<path class="st22" d="M2595.3,3048.6c0,0-116.4,14.8-120.9,41.2c-5.2,30.7,129.5,3.7,129.5,3.7S2624.5,3086.8,2595.3,3048.6z"/>
			<linearGradient id="SVGID_21_" gradientUnits="userSpaceOnUse" x1="2565.5613" y1="2958.1907" x2="2577.0154" y2="3120.8367">
				<stop  offset="0" style="stop-color:#311944"/>
				<stop  offset="1" style="stop-color:#893976"/>
			</linearGradient>
			<path class="st23" d="M2587.8,2985.6l2.8,65c0,0-14.2,18-30.5,5l-13-70H2587.8z"/>
			<linearGradient id="SVGID_22_" gradientUnits="userSpaceOnUse" x1="2290.6077" y1="3038.686" x2="2492.197" y2="3276.9275">
				<stop  offset="0" style="stop-color:#444B8C"/>
				<stop  offset="0.9964" style="stop-color:#3E4177"/>
			</linearGradient>
			<path class="st24" d="M2405.5,3080.1c0,0-116.4,14.8-120.9,41.2c-5.2,30.7,129.5,3.7,129.5,3.7S2434.8,3118.2,2405.5,3080.1z"/>
			<linearGradient id="SVGID_23_" gradientUnits="userSpaceOnUse" x1="2374.5791" y1="2971.6401" x2="2386.0332" y2="3134.2861">
				<stop  offset="0" style="stop-color:#311944"/>
				<stop  offset="1" style="stop-color:#893976"/>
			</linearGradient>
			<path class="st25" d="M2398.1,3017.1l2.8,65c0,0-14.2,18-30.5,5l-13-70H2398.1z"/>
			<linearGradient id="SVGID_24_" gradientUnits="userSpaceOnUse" x1="2241.0771" y1="2450.9458" x2="2623.498" y2="2450.9458">
				<stop  offset="0" style="stop-color:#444B8C"/>
				<stop  offset="0.9964" style="stop-color:#3E4177"/>
			</linearGradient>
			<path class="st26" d="M2241.1,1945.6c6.1,94,21.2,229.4,61.8,388.9c14.6,57.4,29.3,105.2,62.4,204.6
				c39.5,118.7,95.3,280.8,167.9,476.6c21.1,3.2,42.1,6.4,63.2,9.7c43.6-159,31.1-284-13.7-383.3c-26.5-58.9-42.1-59.4-69.4-125.1
				c-29-69.8-40.9-140.2-33.5-377.7c2.1-67.3,6-156.7,13.8-262.4C2409.4,1899.6,2325.3,1922.6,2241.1,1945.6z"/>
			<linearGradient id="SVGID_25_" gradientUnits="userSpaceOnUse" x1="2241.0771" y1="2450.9458" x2="2614.3762" y2="2450.9458">
				<stop  offset="0" style="stop-color:#444B8C"/>
				<stop  offset="0.9964" style="stop-color:#3E4177"/>
			</linearGradient>
			<path class="st27" d="M2241.1,1945.6c6.1,94,21.2,229.4,61.8,388.9c14.6,57.4,29.3,105.2,62.4,204.6
				c39.5,118.7,95.3,280.8,167.9,476.6c21.1,3.2,42.1,6.4,63.2,9.7c37.3-148.4,10-226.3-23.9-270.3c-20.9-27.2-47.2-45.1-66.4-91.9
				c-22.6-55-6.6-80-18.3-144.4c-15.8-86.9-53.4-88.2-66.6-156.1c-15.6-80.1,28.7-118.7,58.6-223.5c16.7-58.3,31.3-145.7,13.8-262.4
				C2409.4,1899.6,2325.3,1922.6,2241.1,1945.6z"/>
			<linearGradient id="SVGID_26_" gradientUnits="userSpaceOnUse" x1="2180.7441" y1="2469.9341" x2="2626.8804" y2="2469.9341">
				<stop  offset="0" style="stop-color:#444B8C"/>
				<stop  offset="0.9964" style="stop-color:#3E4177"/>
			</linearGradient>
			<path class="st28" d="M2387,1930.7c-53,66.7-201.9,272.1-206.2,571c-4,278.8,120,477.4,169.8,548.8c20.7-1.9,41.4-3.8,62.2-5.7
				c5.2-59,7.9-147.7-10.3-252.7c-27.1-156.4-70-173.3-63.6-262.5c8.1-111.9,78.8-129.9,189-333.1
				c59.4-109.5,130.3-240.4,84.2-288.8C2603.3,1898.5,2560.6,1860.9,2387,1930.7z"/>
			<linearGradient id="SVGID_27_" gradientUnits="userSpaceOnUse" x1="2139.9526" y1="1595.459" x2="2898.1638" y2="1595.459">
				<stop  offset="0" style="stop-color:#FFC444"/>
				<stop  offset="0.9964" style="stop-color:#F36F56"/>
			</linearGradient>
			<path class="st29" d="M2333.1,1111.9c-74.6,13.6-119.3,64.8-131.7,79.3c-15.3,18.1-60.6,76.9-61.5,227.6
				c-0.8,144.4,40.4,161.1,52.9,298.2c18.4,202.1-59.3,296.9-5.1,342.5c46.1,38.8,102.2-30.1,257.7-22.7
				c128.3,6.2,153,56.1,263.3,43.6c16.9-1.9,164.1-20.1,186.8-97.2c15.8-53.5-42.3-88.6-122-218.2
				c-76.3-124-113.8-239.5-132.4-296.8c-56.2-173-32.9-220.3-96.4-283.6C2536.8,1176.7,2448,1091,2333.1,1111.9z"/>
			<linearGradient id="SVGID_28_" gradientUnits="userSpaceOnUse" x1="2246.282" y1="1152.1349" x2="2440.4268" y2="1047.3311">
				<stop  offset="0" style="stop-color:#311944"/>
				<stop  offset="1" style="stop-color:#A03976"/>
			</linearGradient>
			<path class="st30" d="M2408.5,974.6c0,0-15.2,105.6,42.7,162.3c4.1,4,2.2,11-3.4,12.1c-26.9,5.7-89.5,14.8-150.2-5.6
				c-5.3-1.8-6.5-8.8-2.1-12.2c12.7-10.2,34.1-29.7,45.4-53c16.9-34.7,19.9-93.8,19.9-93.8L2408.5,974.6z"/>
			<g class="st13">
				<linearGradient id="SVGID_29_" gradientUnits="userSpaceOnUse" x1="2139.9526" y1="1605.1606" x2="2898.1628" y2="1605.1606">
					<stop  offset="0" style="stop-color:#FFC444"/>
					<stop  offset="0.9964" style="stop-color:#F36F56"/>
				</linearGradient>
				<path class="st31" d="M2773.6,1765c-76.3-124-113.8-239.5-132.4-296.8c-56.2-173-32.9-220.3-96.4-283.6
					c-4.1-4.1-29.5-28.6-68.9-48.8c10.4,34,16.7,73.9,10.8,117.2c-20,147.5-162.4,198.8-144.3,290.4
					c16.5,83.7,143.3,80.3,161.5,170.1c18.7,92.5-104,153.2-79,218.2c24.1,62.8,147.4,29.8,269.7,104.8
					c18.6,11.4,35.4,24.3,50.7,38.1c50.1-10,133.7-34.8,150.3-91.3C2911.4,1929.7,2853.2,1894.5,2773.6,1765z"/>
			</g>
			<linearGradient id="SVGID_30_" gradientUnits="userSpaceOnUse" x1="2520.4661" y1="878.463" x2="2374.4282" y2="971.2401">
				<stop  offset="0" style="stop-color:#311944"/>
				<stop  offset="1" style="stop-color:#A03976"/>
			</linearGradient>
			<path class="st32" d="M2410.3,1012.3c0,0-26.2,35.9-67.2,20.9c-36.7-13.4-14.8-108.3,14.3-119.1c9.7-3.6,27.6-2,39.5,5.4
				c8.4,5.2,30.8,33.1,18,64.3c9.3-2.7,17.5-0.2,19.5,4.4c2.6,5.8-5.3,13.8-7,15.6C2421.2,1010,2413.7,1011.8,2410.3,1012.3z"/>
			<linearGradient id="SVGID_31_" gradientUnits="userSpaceOnUse" x1="1954.668" y1="1402.5951" x2="2603.1558" y2="1402.5951">
				<stop  offset="0" style="stop-color:#FFC444"/>
				<stop  offset="0.9964" style="stop-color:#F36F56"/>
			</linearGradient>
			<path class="st33" d="M1954.7,1302.1c13.8-5.2,27.7-10.4,41.5-15.6c8.1,14.8,62.4,110.1,164.1,124.6
				c95.8,13.6,185.8-51.4,227.6-115.1c39.7-60.4,31.6-113.1,68.7-124.6c37.4-11.5,83.7,30,105.7,58.4c52,67.3,50.2,167.7,18,239.7
				c-52.3,117-192.9,177-312.7,164.8c-185.6-18.9-271.6-205.8-286.1-239.5C1965.8,1358.2,1958.4,1325.4,1954.7,1302.1z"/>
		</g>
		
			<linearGradient id="SVGID_32_" gradientUnits="userSpaceOnUse" x1="2389.5676" y1="298.0356" x2="2243.8403" y2="-8.6445" gradientTransform="matrix(0.9134 -0.407 0.407 0.9134 -772.4538 1371.6726)">
			<stop  offset="0" style="stop-color:#FFC444"/>
			<stop  offset="0.9964" style="stop-color:#F36F56"/>
		</linearGradient>
		<path class="st34" d="M1461.3,646.4c-30.4-0.2-32.6-45.9-2.2-47.9c3.1-0.2,6.5-0.2,10.1,0.2c48.6,4.6,57.1,30.6,69.3,36.5
			C1547.4,639.4,1502.6,646.6,1461.3,646.4z"/>
	</g>
</g>
</svg>
