<?xml version="1.0" encoding="utf-8"?>
<!-- Generator: Adobe Illustrator 25.1.0, SVG Export Plug-In . SVG Version: 6.00 Build 0)  -->
<svg version="1.1" xmlns="http://www.w3.org/2000/svg" xmlns:xlink="http://www.w3.org/1999/xlink" x="0px" y="0px"
	 viewBox="0 0 3710 3710" style="enable-background:new 0 0 3710 3710;" xml:space="preserve">
<style type="text/css">
	.st0{fill:#FFFFFF;}
	.st1{fill:#F4F7FA;}
	.st2{fill:url(#SVGID_1_);}
	.st3{opacity:0.28;fill:#FFFFFF;}
	.st4{fill:url(#SVGID_2_);}
	.st5{fill:#BFC8D6;}
	.st6{fill:#D8DEE8;}
	.st7{fill:url(#SVGID_3_);}
	.st8{fill:url(#SVGID_4_);}
	.st9{fill:url(#SVGID_5_);}
	.st10{opacity:0.2;fill:url(#SVGID_6_);}
	.st11{fill:url(#SVGID_7_);}
	.st12{fill:url(#SVGID_8_);}
	.st13{fill:url(#SVGID_9_);}
	.st14{fill:url(#SVGID_10_);}
	.st15{fill:url(#SVGID_11_);}
	.st16{fill:url(#SVGID_12_);}
	.st17{fill:url(#SVGID_13_);}
	.st18{fill:url(#SVGID_14_);}
	.st19{fill:url(#SVGID_15_);}
	.st20{fill:url(#SVGID_16_);}
	.st21{opacity:0.3;fill:url(#SVGID_17_);}
	.st22{fill:url(#SVGID_18_);}
	.st23{fill:url(#SVGID_19_);}
	.st24{opacity:0.3;fill:#FFFFFF;}
	.st25{fill:url(#SVGID_20_);}
	.st26{fill:url(#SVGID_21_);}
	.st27{fill:url(#SVGID_22_);}
	.st28{fill:url(#SVGID_23_);}
	.st29{fill:url(#SVGID_24_);}
	.st30{fill:url(#SVGID_25_);}
	.st31{fill:url(#SVGID_26_);}
	.st32{fill:url(#SVGID_27_);}
	.st33{opacity:0.3;fill:url(#SVGID_28_);}
	.st34{fill:url(#SVGID_29_);}
	.st35{fill:url(#SVGID_30_);}
	.st36{fill:url(#SVGID_31_);}
	.st37{fill:url(#SVGID_32_);}
	.st38{opacity:0.3;fill:url(#SVGID_33_);}
	.st39{fill:url(#SVGID_34_);}
	.st40{fill:url(#SVGID_35_);}
	.st41{opacity:0.3;fill:url(#SVGID_36_);}
	.st42{fill:url(#SVGID_37_);}
	.st43{fill:url(#SVGID_38_);}
	.st44{fill:url(#SVGID_39_);}
	.st45{fill:url(#SVGID_40_);}
	.st46{opacity:0.7;fill:#FFFFFF;}
	.st47{opacity:0.3;fill:url(#SVGID_41_);}
	.st48{fill:url(#SVGID_42_);}
	.st49{fill:url(#SVGID_43_);}
	.st50{opacity:0.3;fill:url(#SVGID_44_);}
	.st51{fill:url(#SVGID_45_);}
	.st52{fill:url(#SVGID_46_);}
	.st53{opacity:0.7;}
	.st54{opacity:0.3;fill:url(#SVGID_47_);}
</style>
<g id="Background">
	<g>
		<g>
			<rect class="st0" width="3710" height="3710"/>
		</g>
	</g>
</g>
<g id="Illustration">
	<g>
		<path class="st1" d="M1575.3,541.2c0,0-974.2,42.3-1029.5,899.1S234.9,3112.3,856.7,3161s2079.7,143.2,2286.9-367.3
			C3350.9,2283.3,3454.6,361.5,1575.3,541.2z"/>
		<g>
			<path class="st1" d="M2564.9,3105.5c99.1-12,119.5,11.2,220.3,6.7c99.2-4.5,106-28.2,186.9-23.4c72.8,4.4,166.6,29.5,166.9,56.8
				c0.4,30-112.3,72.2-220.3,56.8c-60.1-8.6-55.9-26-113.5-33.4c-104.3-13.3-134.9,41.7-240.4,30c-61-6.8-124.7-33.4-123.5-53.4
				C2442.9,3120.3,2547.3,3107.6,2564.9,3105.5z"/>
			<g>
				
					<linearGradient id="SVGID_1_" gradientUnits="userSpaceOnUse" x1="-1323.545" y1="2411.0515" x2="-1905.9764" y2="3103.616" gradientTransform="matrix(-1 0 0 1 1362.8925 0)">
					<stop  offset="3.597120e-03" style="stop-color:#E38DDD"/>
					<stop  offset="1" style="stop-color:#9571F6"/>
				</linearGradient>
				<path class="st2" d="M2731.2,3152.9c-35.1-173.4-20-312.8-4-397c19.3-102.1,58.7-309.7,223.7-425.4
					c13-9.1,142.1-97.9,200.1-53.8c29.9,22.7,36.7,77.7,23.7,121c-33.8,111.9-186,99.5-236.5,226.9c-16.8,42.4-20,94.2-8.2,99.1
					c14.5,6,55.7-57.3,59.6-63.3c36.8-56.4,37.1-88.4,65.1-97c17.2-5.3,39.9-0.3,50,13.3c23.1,31-22.5,101.5-35.3,121.2
					c-33.4,51.6-61.3,63.3-68,107.2c-2.9,18.9-2.4,46.9,8.8,51.2c15.2,5.9,44.1-33.6,62.7-58.9c49.9-68.1,55.3-107.7,80.1-110.6
					c23.2-2.6,49.3,28.3,56,47.2C3227.1,2785.4,3153.6,2895,2731.2,3152.9z"/>
				<path class="st3" d="M2736.5,3123.2c-5.2-161.2,20.8-288.9,44.5-372.8c30.4-107.8,87.5-310.5,247.8-398.2
					c11.4-6.2,95.2-52.1,118.6-27.5c15.6,16.4,1.8,61.3-21.2,91.1c-39.2,50.8-84.3,30.6-148.3,80.5c-57.4,44.7-77.6,105-82.6,120.7
					c-18.7,58.5-9,108.6-6.4,127.1C2899,2814.2,2878.5,2929.2,2736.5,3123.2z"/>
				<path class="st3" d="M2793.7,3083c89.9-80.5,110.7-146.5,112.2-192.7c1.2-36.1-8.5-78.8,19.1-118.6
					c17.6-25.4,30.9-21.3,61.4-48.7c63.7-57.2,71.6-134.3,84.7-131.3c7.3,1.7,11.1,26.9,6.4,50.8c-9.8,49.3-48.3,54.5-86.8,114.4
					c-26.3,40.9-35.4,80.7-40.2,101.7c-11.7,51.1-3.8,69-10.6,97.4C2931,2992.7,2898.9,3040.2,2793.7,3083z"/>
			</g>
			<g>
				
					<linearGradient id="SVGID_2_" gradientUnits="userSpaceOnUse" x1="-1258.1216" y1="3204.458" x2="-1298.5131" y2="2837.2632" gradientTransform="matrix(-0.9986 5.270000e-02 5.270000e-02 0.9986 1370.7856 28.5205)">
					<stop  offset="0" style="stop-color:#FF9085"/>
					<stop  offset="1" style="stop-color:#FB6FBB"/>
				</linearGradient>
				<path class="st4" d="M2838.2,3138.6c136.4,7.8,177,16,241.3-5.9c60.4-20.6,122.4-61.1,116.9-79.7c-3.9-13.3-41.8-13.2-64.5-13.1
					c-60.8,0.3-110.9,18.9-146.1,36.9c30.3-20.6,60.7-41.2,91-61.8c21.2-7.6,57-23.7,88.8-57.6c19.9-21.3,65.6-78.9,48.4-106.6
					c-17.9-28.9-103.1-23.1-152.3,17.9c-23.6,19.7-23.6,34.7-55.2,69.1c-28.7,31.2-58.3,51-79.2,63c19.5-24.4,46-62.5,66.7-113.8
					c31.3-78,55-201.4,15.1-223.9c-26.4-14.9-78.9,15.8-105.1,52.1c-21.3,29.5-19.2,54.2-33.8,148.9c-6.4,41.2-12.6,74.3-16.7,94.9
					c-40.6-89-52.3-163.9-54.7-218.9c-3.1-70.7,8.6-126.1-18.4-140.9c-24.1-13.1-67.2,12.5-89,36.5
					c-88.4,97.3,28.2,325.8,40.6,349.4c-32.4-24.6-77.1-63-120.4-118.5c-46.3-59.4-65.8-103.6-89.4-99.6
					c-23.4,3.9-38.8,53.8-37.1,92.3c4.9,107.5,145.3,170.6,160.2,177.1c-11.8,1.9-31.8,3.9-55.4-0.6c-52.3-10-68.7-41.7-121.8-52.5
					c-20.3-4.1-61.8-8.4-66.9,4.2c-9.2,22.6,95.7,107.3,222.9,139.6C2671,3139.1,2659.8,3128.4,2838.2,3138.6z"/>
				<path class="st3" d="M2928.2,3060.9c62.1-27.6,53.7-65.2,121.6-111.7c43.5-29.8,53.6-18.9,100.3-47.4
					c25.6-15.7,46.6-33.6,63.6-51.4c0.1,0.1,0.2,0.2,0.3,0.4c17.2,27.7-28.5,85.3-48.4,106.6c-31.8,34-67.6,50.1-88.8,57.6
					c-30.3,20.6-60.7,41.2-91,61.8c35.2-18,85.3-36.6,146.1-36.9c19.7-0.1,51.1-0.2,61.4,8.6c-18.3,11.3-34.7,16.8-48,19.5
					c-30.5,6.2-49.6-0.7-76,15.2c-21.2,12.7-19.4,23.6-38,30.5c-17.5,6.5-26.5-0.4-69.7-7.5c-42.1-6.9-63.4-10.1-80.4,0.5
					c-12.8,8.1-19.7,21.4-23.4,33.1c-4.4-0.3-8.8-0.5-13.4-0.8c3.4-13.4,9.6-28.9,21.4-42.6
					C2884.5,3074.6,2905,3071.2,2928.2,3060.9z"/>
				<path class="st3" d="M2751.2,3108.6c-9.8-2.3-14.5,4.7-28.1,6.4c-25.3,3.3-34.8-17.6-64.6-27.5c-35.2-11.8-44.2,10.1-79.3-0.8
					c-27.8-8.6-24.2-22.9-60.5-43.9c-38.6-22.3-55-13.1-83.4-31.5c-9.1-5.9-19.5-14.7-29.4-28.4c12.5-6.8,45.1-3.2,62.4,0.3
					c53.1,10.8,69.4,42.5,121.8,52.5c23.6,4.5,43.6,2.5,55.4,0.6c-15-6.5-155.4-69.6-160.2-177.1c-1.6-35.8,11.5-81.2,32.1-90.7
					c-2.4,24.8-2.8,46.1-2.4,62.7c0.9,38.8,1.6,58.6,13.9,74.8c21.3,28.1,47.3,13.5,82.7,42.7c32.3,26.6,21,47.2,54.7,73.9
					c29,23,46.2,14.6,73.6,33.3c17.1,11.7,38,33.8,50.5,80.2c-5.7-0.3-11.1-0.5-16.3-0.7C2769,3122.3,2761.8,3111.1,2751.2,3108.6z"
					/>
				<path class="st3" d="M2781.9,2962.1c-17-46.3-46.5-41.5-58.8-82.3c-12.2-40.5,14.5-53.1,7.7-111.8c-5.1-44-21.7-50.4-22.8-80.5
					c-0.8-22.2,7-52.3,43.1-89.8c11-2.9,21.3-2.9,29.5,1.6c27,14.7,15.3,70.1,18.4,140.9c2.4,55,14.1,129.9,54.7,218.9
					c4.1-20.6,10.3-53.7,16.7-94.9c14.6-94.7,12.5-119.4,33.8-148.9c26.2-36.3,78.7-67,105.1-52.1c1.5,0.9,2.9,1.9,4.3,3
					c-13.2,9-25.4,20-35.6,33.7c-34.9,46.5-15,79.8-46.7,171.5c-30.4,88.2-61.3,93.6-85.7,169.8c-7.8,24.3-15.2,56.5-16.7,97
					c-8.9-0.5-17.4-0.9-25.3-1.3c-9.2-30-13.5-56.9-15.3-79.6C2784.1,3007,2793.4,2993.4,2781.9,2962.1z"/>
			</g>
		</g>
		<g>
			<path class="st5" d="M1538.6,1402.1l16-35.3c6-13.2,2.4-29.1-8-35.5l-41.5-25.5c11.2-31.8,19.1-65.5,23.1-100.3l46.3-3.2
				c11.9-0.8,21.6-13.3,21.6-27.9v-38.7c0-14.6-9.6-25.8-21.6-25.1l-45.1,2.6c-3.1-35.1-10.3-68.6-20.9-99.8l38.1-28.3
				c1.2-0.9,2.3-1.9,3.4-3.1l4.9,12.7l62.6-77l-81.7-7c-3.6-4.6-8.4-7.4-13.5-8c-4.6-0.5-9.3,0.6-13.6,3.8l-37.7,27.4
				c-17.5-28.1-38.4-53.2-62.1-74.5l2.8-5.9l57.6,11.8l7.3-95.3l-87.4-14.4c-10.1-3.9-21.4,1-26.9,12.4l-21.7,44.8
				c-27.9-13.9-4.8-28.5-36.5-32.7l33.2-48.9c0-15.2-97.2-25.4-110.3-25.4h-35.1c-13.3,0-24.1,12.5-24.1,27.9V786
				c-32.8,5-64.5,15.5-94.2,30.6l60-44.1c0,0-105.7-20-117.8-12.1l-32.2,21.3c-12.2,8-16.3,25.6-9.3,39.3l24.3,47.1
				c-26.6,23.7-38,37.4-58.1,68.7L883.7,924c-12.5-7.7-28.5-2.5-35.8,11.7l-19.4,37.7c-7.3,14.2-3,32,9.7,39.5l45.6,27.3
				c-12.6,35.1-21.2,72.5-24.9,111.2l-54.7,3.1c-14.7,0.8-26.7,14.7-26.7,30.9v43.2c0,14.7,9.9,26.2,22.7,27.4l0,0l62.1,9.9
				c5.1,32.3,13.8,63,25.4,91.5l-49.5,36c-12.6,9.2-17,27.5-9.7,40.8l19.4,35.3c7.3,13.2,122.4,21.3,122.4,21.3l-36.6-51.3
				c20,26.9,43.3,50.2,69.1,69.2l-28.9,59.5c-7,14.5-2.9,31.6,9.3,38.1l32.2,17.2c2,1.1,4.2,1.8,6.3,2.1l-0.1,0.6l100.4,12.4
				l9.8-75.8c11.7,1.8,23.5,2.9,35.6,3.2v64.8c0,11.5,6,20.6,14.6,23.8l-0.4,1.9l99.5,12.4l2-122.9c18.2-6.9,35.7-15.5,52.5-25.5
				l26.5,51.3c3.3,6.4,8.7,10.2,14.6,11.1l0,0l96.1,13l-32.9-90.6l-13.3,4.1l-21.9-43c23-22.9,43.5-49,61-77.6l42.9,25.7
				C1519.2,1421.1,1532.6,1415.4,1538.6,1402.1z M1209.3,1368.9c-94.1,8.4-172.1-74.2-172.1-184.6s78-202.8,172.1-206.2
				c91.8-3.4,164.5,79.5,164.5,185.1S1301.1,1360.7,1209.3,1368.9z M1611.2,1156.8l65.1-30.8l-65.1-7.9V1156.8z M1531.2,1419.9
				l74.5,10l10.9-25.4l-61.7-37.5L1531.2,1419.9z"/>
			<path class="st6" d="M1670.5,1124.9l-44.8,2.6c-3.1-35-10.2-68.4-20.8-99.5l37.9-28.2c10.4-7.7,13.9-24,7.9-36.4l-15.9-33.1
				c-6-12.5-19.3-16.5-29.8-8.8l-37.4,27.3c-17.4-28-38.2-53-61.8-74.2l21.5-45.1c6.2-12.9,2.5-29.3-8.2-36.6l-28.7-19.6
				c-10.8-7.4-24.7-2.9-31,10.2l-21.6,44.7c-27.8-13.8-57.8-23.3-89.4-27.5v-51.6c0-15.2-10.5-27.6-23.6-27.5l-34.9,0
				c-13.2,0-24,12.5-24,27.9v52.2c-32.6,5-64.1,15.4-93.7,30.5l-23.3-45.9c-6.9-13.5-22.1-18-34.1-10.1l-32,21.2
				c-12.1,8-16.3,25.6-9.3,39.1l24.2,46.9c-26.5,23.7-50.2,51.6-70.2,82.8l-43.8-27c-12.4-7.6-28.4-2.4-35.6,11.7l-19.3,37.6
				c-7.3,14.2-3,31.9,9.6,39.4l45.3,27.2c-12.6,35-21.1,72.3-24.7,110.9l-54.4,3.1c-14.6,0.8-26.5,14.7-26.5,30.9v43.1
				c0,16.2,11.9,28.5,26.5,27.4l55.8-3.9c4.7,37.3,14,72.5,27.2,105l-49.3,35.9c-12.6,9.2-16.9,27.4-9.6,40.6l19.3,35.2
				c7.2,13.2,23.2,16.3,35.6,7.1l49.8-37.1c19.9,26.8,43,50,68.7,68.9l-28.7,59.4c-7,14.5-2.8,31.5,9.3,38l32,17.1
				c12,6.4,27.2-0.1,34.1-14.5l28.5-59.6c28.1,10.2,57.8,15.9,88.6,16.8v64.6c0,15.4,10.8,26.5,24,24.8l34.9-4.5
				c13.1-1.7,23.6-15.4,23.6-30.6v-63.9c29.8-7.8,58.2-20,84.6-35.9l26.4,51.1c6.3,12.2,20.2,15,31,6.2l28.7-23.2
				c10.7-8.7,14.4-25.6,8.2-37.7l-25.6-50.3c22.9-22.8,43.3-48.9,60.6-77.4l42.7,25.6c10.5,6.3,23.8,0.6,29.8-12.7l15.9-35.2
				c6-13.2,2.4-29-7.9-35.4l-41.2-25.4c11.2-31.7,19-65.3,22.9-100l46-3.3c11.9-0.8,21.5-13.3,21.5-27.8v-38.6
				C1692,1135.4,1682.4,1124.2,1670.5,1124.9z M1307.3,1382.6c-93.6,8.4-171.2-73.9-171.2-184c0-110.1,77.6-202.2,171.2-205.7
				c91.3-3.4,163.6,79.2,163.6,184.5C1470.9,1282.6,1398.6,1374.4,1307.3,1382.6z"/>
		</g>
		<g>
			<path class="st5" d="M2246.2,1521.6l11.1-24.4c4.1-9.1,1.7-20.1-5.5-24.5l-28.6-17.6c7.8-22,13.2-45.2,15.9-69.2l32-2.2
				c8.2-0.6,14.9-9.2,14.9-19.2v-26.7c0-10-6.7-17.8-14.9-17.3l-31.1,1.8c-2.1-24.2-7.1-47.3-14.4-68.9l26.3-19.5
				c0.8-0.6,1.6-1.3,2.3-2.1l3.4,8.8l43.2-53.2l-56.4-4.8c-2.5-3.2-5.8-5.1-9.3-5.6c-3.1-0.4-6.4,0.4-9.4,2.6l-26,18.9
				c-12.1-19.4-26.5-36.7-42.9-51.4l2-4.1l39.7,8.1l5-65.8l-60.3-10c-6.9-2.7-14.8,0.7-18.6,8.6l-15,30.9
				c-19.3-9.6-3.3-19.7-25.2-22.6l22.9-33.7c0-10.5-67.1-17.5-76.2-17.5h-24.3c-9.2,0-16.7,8.6-16.7,19.3v36.1
				c-22.7,3.5-44.5,10.7-65.1,21.1l41.4-30.4c0,0-73-13.8-81.3-8.3l-22.2,14.7c-8.4,5.6-11.3,17.7-6.4,27.1l16.8,32.5
				c-18.4,16.4-26.2,25.8-40.1,47.4l-39-8.8c-8.6-5.3-19.7-1.7-24.7,8.1l-13.4,26c-5,9.8-2.1,22.1,6.7,27.3l31.5,18.9
				c-8.7,24.2-14.6,50-17.2,76.8l-37.8,2.2c-10.2,0.6-18.4,10.1-18.4,21.4v29.8c0,10.2,6.8,18.1,15.6,18.9l0,0l42.9,6.9
				c3.6,22.3,9.5,43.5,17.5,63.2l-34.2,24.9c-8.7,6.3-11.7,19-6.7,28.1l13.4,24.3c5,9.1,84.5,14.7,84.5,14.7l-25.2-35.4
				c13.8,18.5,29.9,34.6,47.7,47.8l-19.9,41.1c-4.9,10-2,21.8,6.4,26.3l22.2,11.8c1.4,0.7,2.9,1.2,4.4,1.5l-0.1,0.4l69.3,8.5
				l6.8-52.3c8.1,1.2,16.3,2,24.6,2.2v44.7c0,8,4.2,14.3,10.1,16.4l-0.3,1.3l68.7,8.6l1.4-84.8c12.6-4.8,24.7-10.7,36.2-17.6
				l18.3,35.4c2.3,4.4,6,7,10.1,7.7l0,0l66.4,9l-22.7-62.5l-9.2,2.8l-15.1-29.7c15.9-15.8,30.1-33.8,42.1-53.5l29.6,17.8
				C2232.8,1534.8,2242.1,1530.8,2246.2,1521.6z M2018.9,1498.7c-65,5.8-118.8-51.2-118.8-127.4c0-76.2,53.9-140,118.8-142.4
				c63.4-2.3,113.6,54.9,113.6,127.8S2082.2,1493.1,2018.9,1498.7z M2296.3,1352.4l45-21.3l-45-5.5V1352.4z M2241.1,1534l51.4,6.9
				l7.5-17.5l-42.6-25.9L2241.1,1534z"/>
			<path class="st6" d="M2337.3,1330.3l-30.9,1.8c-2.1-24.2-7-47.2-14.4-68.7l26.2-19.5c7.1-5.3,9.6-16.6,5.5-25.1l-11-22.9
				c-4.1-8.6-13.4-11.4-20.6-6.1l-25.8,18.8c-12-19.4-26.4-36.6-42.7-51.2l14.9-31.2c4.3-8.9,1.7-20.3-5.7-25.3l-19.8-13.5
				c-7.5-5.1-17.1-2-21.4,7l-14.9,30.8c-19.2-9.5-39.9-16.1-61.7-19v-35.6c0-10.5-7.3-19-16.3-19l-24.1,0c-9.1,0-16.6,8.6-16.6,19.2
				v36c-22.5,3.5-44.3,10.7-64.7,21.1l-16.1-31.7c-4.7-9.3-15.3-12.4-23.5-7l-22.1,14.6c-8.4,5.5-11.2,17.7-6.4,27l16.7,32.4
				c-18.3,16.3-34.6,35.6-48.5,57.2l-30.2-18.6c-8.6-5.3-19.6-1.7-24.6,8l-13.3,26c-5,9.8-2,22,6.6,27.2l31.3,18.8
				c-8.7,24.2-14.5,49.9-17.1,76.6l-37.5,2.2c-10.1,0.6-18.3,10.1-18.3,21.3v29.7c0,11.2,8.2,19.7,18.3,18.9l38.5-2.7
				c3.3,25.7,9.7,50.1,18.8,72.5l-34,24.8c-8.7,6.3-11.6,18.9-6.6,28.1l13.3,24.3c5,9.1,16,11.3,24.6,4.9l34.4-25.6
				c13.7,18.5,29.7,34.5,47.4,47.6l-19.8,41c-4.8,10-2,21.7,6.4,26.2l22.1,11.8c8.3,4.4,18.8-0.1,23.5-10l19.6-41.1
				c19.4,7,39.9,11,61.2,11.6v44.6c0,10.6,7.4,18.3,16.6,17.1l24.1-3.1c9-1.2,16.3-10.6,16.3-21.1v-44.1
				c20.6-5.4,40.2-13.8,58.4-24.8l18.2,35.3c4.3,8.4,13.9,10.3,21.4,4.3l19.8-16c7.4-6,9.9-17.6,5.7-26l-17.7-34.7
				c15.8-15.7,29.9-33.7,41.8-53.4l29.4,17.7c7.2,4.3,16.4,0.4,20.6-8.7l11-24.3c4.1-9.1,1.7-20-5.5-24.4l-28.5-17.5
				c7.7-21.9,13.1-45.1,15.8-69.1l31.8-2.2c8.2-0.6,14.8-9.2,14.8-19.2v-26.6C2352.1,1337.6,2345.5,1329.8,2337.3,1330.3z
				 M2086.6,1508.2c-64.6,5.8-118.2-51-118.2-127c0-76,53.6-139.6,118.2-142c63-2.3,112.9,54.7,112.9,127.4
				C2199.5,1439.2,2149.6,1502.6,2086.6,1508.2z"/>
		</g>
		<g>
			<linearGradient id="SVGID_3_" gradientUnits="userSpaceOnUse" x1="1002.0013" y1="3251.4265" x2="-1349.0547" y2="7284.3853">
				<stop  offset="0" style="stop-color:#444B8C"/>
				<stop  offset="0.9964" style="stop-color:#26264F"/>
			</linearGradient>
			<path class="st7" d="M2549.7,1569.8c-0.3-80.9-66.7-148.4-149.5-150.9l-1537.6-46.4c-109.2-3.3-199.1,70.9-199.1,165.8v1.2
				v1535.9l0,0c0,95.5,90.3,162.4,199.9,149.5l1105.5-129.6l0,0l437.2-51.3c83-9.7,149.1-83.5,148.8-164.8L2549.7,1569.8z"/>
			<g>
				<linearGradient id="SVGID_4_" gradientUnits="userSpaceOnUse" x1="1631.8105" y1="2345.1621" x2="-1285.0966" y2="8277.5166">
					<stop  offset="0" style="stop-color:#AA80F9"/>
					<stop  offset="0.9964" style="stop-color:#6165D7"/>
				</linearGradient>
				<path class="st8" d="M2644,2879.3c0.3,81.3-65.8,155.1-148.8,164.8L952.6,3225c-109.6,12.9-199.9-54-199.9-149.5V1538.3
					c0-94.9,89.9-169,199.1-165.8l1537.6,46.4c82.8,2.5,149.2,70,149.5,150.9L2644,2879.3z"/>
				<linearGradient id="SVGID_5_" gradientUnits="userSpaceOnUse" x1="2721.4844" y1="137.3526" x2="-114.1631" y2="5904.4424">
					<stop  offset="0" style="stop-color:#AA80F9"/>
					<stop  offset="0.9964" style="stop-color:#6165D7"/>
				</linearGradient>
				<path class="st9" d="M2607.3,1571.3c-0.2-65.4-53.5-119.9-120.4-121.7l-1537.5-42.1c-87.9-2.4-160.4,57.4-160.4,133.7
					l0.1,1531.7c0,76.8,73.1,130.7,161.3,120.5l1541.8-176.9c67-7.7,120.3-67.1,120-132.9L2607.3,1571.3z"/>
				<g>
					<linearGradient id="SVGID_6_" gradientUnits="userSpaceOnUse" x1="1433.8081" y1="1693.3588" x2="2088.9407" y2="1693.3588">
						<stop  offset="0" style="stop-color:#AA80F9"/>
						<stop  offset="0.9964" style="stop-color:#6165D7"/>
					</linearGradient>
					<path class="st10" d="M1965.6,1841.1c-6.2,0-12.2-1-17.9-3.1c-45.2-16.5-93-26.5-142.3-29.6c-11.4-0.7-23-1-34.5-1
						c-11.5,0.1-23.2,0.5-34.7,1.3c-50.2,3.6-99.8,14.3-147.4,31.9c-6.1,2.3-12.6,3.4-19.1,3.5c-19.1,0.2-36-9-44-24l-88.1-168.3
						c-4.7-8.6-4.9-19-0.6-29c6.3-14.4,21.5-27,40.7-33.6c95-32.9,193.5-48.5,292.7-46.7c97.5,1.7,191.3,20.2,279,54.4
						c17.4,6.8,31.2,19,36.8,32.8c3.9,9.5,3.7,19.3-0.5,27.5c0,0-63.3,127.7-79.2,159.9C1999,1831.9,1983.4,1841,1965.6,1841.1z"/>
					<path class="st0" d="M2071.5,1650.8c-26.4,53.1-52.9,106.5-79.5,160.2c-6.6,13-23.7,18.3-38.4,13c-47-17.3-96.6-27.6-147-30.7
						c-23.7-1.5-47.7-1.4-71.6,0.3c-51.5,3.6-103,14.5-152.5,32.8c-15.7,5.8-34.1,0.5-41.3-13c-29.1-55.7-58.4-111.7-87.8-168
						c-7.3-13.6,6.3-32.9,30.8-41.4c185.3-64.4,385.4-60.8,559.4,6.9C2065.7,1619.5,2078,1638.1,2071.5,1650.8z"/>
					<g>
						<linearGradient id="SVGID_7_" gradientUnits="userSpaceOnUse" x1="1580.7646" y1="1610.7594" x2="1538.3855" y2="1696.9495">
							<stop  offset="0" style="stop-color:#311944"/>
							<stop  offset="1" style="stop-color:#893976"/>
						</linearGradient>
						<path class="st11" d="M1579.4,1654.3c1.7,3.6-0.3,7.7-4.3,9.4l0,0c-4.1,1.6-8.8,0.2-10.7-3.4c-4.8-9.2-9.6-18.4-14.4-27.7
							c-1.9-3.5,0.3-7.9,4.8-9.7l0,0c4.5-1.8,9.6-0.3,11.2,3.3C1570.5,1635.6,1574.9,1645,1579.4,1654.3z"/>
						<linearGradient id="SVGID_8_" gradientUnits="userSpaceOnUse" x1="1639.5975" y1="1589.1718" x2="1594.2474" y2="1681.4041">
							<stop  offset="0" style="stop-color:#311944"/>
							<stop  offset="1" style="stop-color:#893976"/>
						</linearGradient>
						<path class="st12" d="M1635.4,1636.5c1.2,3.7-1.3,7.6-5.4,8.7l0,0c-4.2,1.1-8.6-0.8-10-4.5c-3.5-9.6-7-19.3-10.4-28.9
							c-1.3-3.7,1.3-7.8,5.9-9l0,0c4.6-1.3,9.4,0.8,10.5,4.5C1629.1,1617,1632.2,1626.7,1635.4,1636.5z"/>
						<linearGradient id="SVGID_9_" gradientUnits="userSpaceOnUse" x1="1699.387" y1="1574.6927" x2="1651.465" y2="1672.1555">
							<stop  offset="0" style="stop-color:#311944"/>
							<stop  offset="1" style="stop-color:#893976"/>
						</linearGradient>
						<path class="st13" d="M1692.3,1625.1c0.7,3.8-2.2,7.3-6.4,8l0,0c-4.2,0.7-8.3-1.8-9.2-5.6c-2.2-9.9-4.3-19.8-6.5-29.7
							c-0.9-3.8,2.3-7.5,7-8.2l0,0c4.7-0.7,9,1.8,9.7,5.6C1688.7,1605.3,1690.5,1615.2,1692.3,1625.1z"/>
						<linearGradient id="SVGID_10_" gradientUnits="userSpaceOnUse" x1="1759.4395" y1="1567.2406" x2="1709.3867" y2="1669.037">
							<stop  offset="0" style="stop-color:#311944"/>
							<stop  offset="1" style="stop-color:#893976"/>
						</linearGradient>
						<path class="st14" d="M1749.7,1620.3c0.2,3.8-3.1,7-7.3,7.2l0,0c-4.2,0.2-7.9-2.7-8.3-6.5c-0.9-10-1.7-20-2.6-29.9
							c-0.3-3.8,3.2-7.1,7.9-7.3l0,0c4.7-0.2,8.6,2.8,8.8,6.6C1748.7,1600.3,1749.2,1610.3,1749.7,1620.3z"/>
						<linearGradient id="SVGID_11_" gradientUnits="userSpaceOnUse" x1="1819.0593" y1="1566.7209" x2="1767.3389" y2="1671.9093">
							<stop  offset="0" style="stop-color:#311944"/>
							<stop  offset="1" style="stop-color:#893976"/>
						</linearGradient>
						<path class="st15" d="M1806.7,1621.8c-0.3,3.8-4,6.6-8.2,6.3l0,0c-4.2-0.3-7.5-3.5-7.3-7.3c0.4-9.9,0.9-19.9,1.3-29.8
							c0.1-3.8,4.1-6.7,8.7-6.4l0,0c4.7,0.3,8.1,3.7,7.8,7.5C1808.3,1602,1807.5,1611.9,1806.7,1621.8z"/>
						<linearGradient id="SVGID_12_" gradientUnits="userSpaceOnUse" x1="1877.6185" y1="1573.046" x2="1824.7128" y2="1680.6449">
							<stop  offset="0" style="stop-color:#311944"/>
							<stop  offset="1" style="stop-color:#893976"/>
						</linearGradient>
						<path class="st16" d="M1862.7,1629.5c-0.8,3.7-4.8,6-8.9,5.3l0,0c-4.1-0.7-6.9-4.3-6.3-8c1.7-9.8,3.4-19.5,5.1-29.2
							c0.6-3.7,4.9-6.1,9.4-5.3l0,0c4.6,0.8,7.6,4.6,6.8,8.3C1866.9,1610.2,1864.8,1619.9,1862.7,1629.5z"/>
						<linearGradient id="SVGID_13_" gradientUnits="userSpaceOnUse" x1="1934.4899" y1="1586.1207" x2="1880.8926" y2="1695.1261">
							<stop  offset="0" style="stop-color:#311944"/>
							<stop  offset="1" style="stop-color:#893976"/>
						</linearGradient>
						<path class="st17" d="M1917.3,1643.4c-1.3,3.6-5.5,5.4-9.5,4.2l0,0c-4-1.2-6.3-5-5.2-8.6c2.9-9.4,5.9-18.9,8.8-28.3
							c1.1-3.6,5.6-5.5,10-4.2l0,0c4.4,1.3,6.9,5.4,5.7,8.9C1923.8,1624.8,1920.6,1634.1,1917.3,1643.4z"/>
						<linearGradient id="SVGID_14_" gradientUnits="userSpaceOnUse" x1="1989.174" y1="1605.8943" x2="1935.3766" y2="1715.3064">
							<stop  offset="0" style="stop-color:#311944"/>
							<stop  offset="1" style="stop-color:#893976"/>
						</linearGradient>
						<path class="st18" d="M1969.7,1663.4c-1.7,3.4-6.2,4.7-10,3.1l0,0c-3.8-1.6-5.7-5.7-4.1-9.1c4.1-9,8.2-17.9,12.3-26.9
							c1.6-3.4,6.3-4.8,10.5-3l0,0c4.2,1.8,6.2,6.1,4.5,9.5C1978.6,1645.8,1974.2,1654.6,1969.7,1663.4z"/>
					</g>
					<linearGradient id="SVGID_15_" gradientUnits="userSpaceOnUse" x1="1734.75" y1="1733.5027" x2="1806.6677" y2="1733.5027">
						<stop  offset="0" style="stop-color:#AB316D"/>
						<stop  offset="1" style="stop-color:#792D3D"/>
					</linearGradient>
					<path class="st19" d="M1806.7,1790.2c0,1,0,2-0.1,3c-23.7-1.5-47.7-1.4-71.6,0.3c-0.1-1-0.2-2-0.2-3
						c0-18.4,26.9-117,35.8-116.9C1778.2,1673.6,1806.6,1771.9,1806.7,1790.2z"/>
				</g>
				<linearGradient id="SVGID_16_" gradientUnits="userSpaceOnUse" x1="1394.9304" y1="3087.3586" x2="59.845" y2="5377.54">
					<stop  offset="0" style="stop-color:#AA80F9"/>
					<stop  offset="0.9964" style="stop-color:#6165D7"/>
				</linearGradient>
				<path class="st20" d="M2448.2,2769.3c0.1,19.2-16,36.4-35.7,38.2l-1359,129.2c-24.9,2.4-45.1-13.3-45.1-35.1l-0.3-639.6
					c0-21.7,20-40,44.9-41l1357.4-51.2c19.7-0.7,35.7,14.2,35.8,33.4L2448.2,2769.3z"/>
				<linearGradient id="SVGID_17_" gradientUnits="userSpaceOnUse" x1="896.8325" y1="3169.7039" x2="-734.8289" y2="5968.626">
					<stop  offset="0" style="stop-color:#AA80F9"/>
					<stop  offset="0.9964" style="stop-color:#6165D7"/>
				</linearGradient>
				<path class="st21" d="M2062.4,3064.7c-1.1,10.1-2.5,20.5-4.3,30.6L952.6,3225c-109.4,12.8-199.9-54.2-199.9-149.5V1539.5
					c0-94.7,90.1-170.3,199.1-167l42.2,1.3c10.9,10.8,21.5,21.7,31.9,34.1c54.8,65.6,100.8,167.1,112.6,324.2
					c16.2,214-7.8,367.4,19,483.6c28.6,124.3,114.7,204,362.6,263.6c264.6,63.7,441.3,196.9,511,362.7
					C2060.1,2910.8,2071.1,2985.8,2062.4,3064.7z"/>
			</g>
		</g>
		<g>
			<g>
				
					<linearGradient id="SVGID_18_" gradientUnits="userSpaceOnUse" x1="4025.2795" y1="2494.5149" x2="4162.9258" y2="2058.8865" gradientTransform="matrix(0.9366 0.3503 -0.3503 0.9366 -357.9856 -1218.618)">
					<stop  offset="0" style="stop-color:#444B8C"/>
					<stop  offset="0.9964" style="stop-color:#26264F"/>
				</linearGradient>
				<path class="st22" d="M2754.5,2590.5c-7.2-2.5-14.1-5.9-20.5-10.1c-54.5-35.7-118.9-58.4-186-65.4c-8.1-0.9-16.1-2.7-23.7-5.4
					c-37-13-62.3-44.2-64.2-79.6l0-0.8l-7.4-230c-0.9-19.5,7.6-37.9,24-51.8c24.8-21.1,64.9-29.8,106.8-23.5
					c135.4,20.2,263.3,72,369.2,148.1c31.5,22.6,52.3,54.2,55.8,84.5c2.3,19.9-3.1,38-15.2,51.2l-143.9,161.7
					C2826.2,2594.3,2789.1,2602.6,2754.5,2590.5z M2671.7,2468.6c37.1,13.4,72.1,31.1,104.2,52.5c1.1,0.7,2.4,1.4,3.8,1.9
					c4.4,1.6,10.7,1.7,14.1-1.7l142.7-159.3c-1.2-5.7-7.7-19.4-25.2-31.7c-96.4-68.1-212.3-113.9-334.8-131.1
					c-23-3.3-38.1,2.5-43,6.1l6.4,224.2c0.4,4.9,5.6,9,10.3,10.7c1.5,0.5,3,0.9,4.6,1.1C2594.9,2445.8,2634.3,2455,2671.7,2468.6z"
					/>
			</g>
			
				<linearGradient id="SVGID_19_" gradientUnits="userSpaceOnUse" x1="3768.5662" y1="3786.2725" x2="4015.3269" y2="3005.3164" gradientTransform="matrix(0.9366 0.3503 -0.3503 0.9366 -357.9856 -1218.618)">
				<stop  offset="0" style="stop-color:#444B8C"/>
				<stop  offset="0.9964" style="stop-color:#26264F"/>
			</linearGradient>
			<path class="st23" d="M2975.9,2912.8c-20.1,53.8-50.4,101.7-88.2,142.4c-115,124-303.2,184.3-486.3,136.1
				c-257.1-67.7-404.6-321.1-314.5-562.1c57.7-154.2,197.1-257.9,355.8-287c87.3-15.9,179.8-9.1,267.3,23.9
				C2943.1,2454,3056.7,2696.7,2975.9,2912.8z"/>
			<path class="st24" d="M2975.9,2912.8c-20.1,53.8-50.4,101.7-88.2,142.4c-55.5,3.3-112.7-2.7-169.5-19.4
				c-263.9-77.4-412.9-352.8-316.5-610.4c11-29.5,24.8-57.3,41.1-83.3c87.3-15.9,179.8-9.1,267.3,23.9
				C2943.1,2454,3056.7,2696.7,2975.9,2912.8z"/>
		</g>
		<g>
			<g>
				<linearGradient id="SVGID_20_" gradientUnits="userSpaceOnUse" x1="2824.5874" y1="1227.7159" x2="2562.8083" y2="1827.4264">
					<stop  offset="0" style="stop-color:#311944"/>
					<stop  offset="1" style="stop-color:#6B3976"/>
				</linearGradient>
				<path class="st25" d="M2610.5,1793.8c-64.9,7.9-131.3,16.1-180.9-28.6c-36.5-32.8-63.4-93.8-44.4-139.6
					c25.5-61.8,111.2-40.2,142.8-95.2c42.5-74.1-86.8-158.9-88.9-304.6c-1.7-117.2,79.5-241.4,193.6-298.3
					c145.1-72.3,312.3-20.3,412.5,69.8c127.8,114.9,181.5,323,107.9,412.5c-74.4,90.5-248.1,22.1-304.6,123.8
					c-31.9,57.3,13.1,97.5-25.4,161.8C2776.4,1773.5,2666.9,1786.9,2610.5,1793.8z"/>
				<linearGradient id="SVGID_21_" gradientUnits="userSpaceOnUse" x1="2582.4526" y1="2414.3723" x2="2163.5864" y2="1884.4426">
					<stop  offset="0" style="stop-color:#FF9085"/>
					<stop  offset="1" style="stop-color:#FB6FBB"/>
				</linearGradient>
				<path class="st26" d="M2463.5,1828.2c-20.6-18.8-94.1,17.4-142.8,65.4c-57.2,56.4-52.8,102.1-102.8,172.2
					c-24.8,34.8-67.4,81.7-142.8,122.8c5.3,13.3,10.7,26.7,16,40c36.5,2.2,108.1,0.9,174.9-42.7c46.4-30.3,70.3-70.5,116.1-149.5
					C2428.1,1957.2,2489.3,1851.7,2463.5,1828.2z"/>
				
					<linearGradient id="SVGID_22_" gradientUnits="userSpaceOnUse" x1="4621.4917" y1="6299.9668" x2="4746.6597" y2="6299.9668" gradientTransform="matrix(0.831 -0.5562 0.5562 0.831 -5350.4219 279.3084)">
					<stop  offset="0" style="stop-color:#444B8C"/>
					<stop  offset="0.9964" style="stop-color:#26264F"/>
				</linearGradient>
				<path class="st27" d="M2013.6,2931l23.4-49.8c3.3-7.1,8.5-13.1,15-17.4l11.6-7.8c0,0,27.7-0.7,32,16.7
					c0.9,22.1-42.1,71.6-69.3,91.2c-4.5,3.3-11,7.6-14.9,5.4C2004.9,2965.5,2009.6,2945.2,2013.6,2931z"/>
				
					<linearGradient id="SVGID_23_" gradientUnits="userSpaceOnUse" x1="6442.584" y1="2971.8723" x2="6646.8364" y2="2359.1145" gradientTransform="matrix(1 0 0 1 -4414.3745 0)">
					<stop  offset="0" style="stop-color:#FFC444"/>
					<stop  offset="0.9964" style="stop-color:#F36F56"/>
				</linearGradient>
				<path class="st28" d="M2057.6,2829c3.7,21.3-1,32.5-6,38.7c-3.5,4.4-32.3,51.8-20.5,59.4c5.3,3.5,41.8-41.9,45.4-48.8
					c3.2-6.3,5.3-4.8,5.5-21.9c0.1-11.3,2.4-20.4,4.2-26C2076.7,2829.8,2067.2,2829.4,2057.6,2829z"/>
				
					<linearGradient id="SVGID_24_" gradientUnits="userSpaceOnUse" x1="6408.3364" y1="2690.4885" x2="6478.4858" y2="2690.4885" gradientTransform="matrix(1 0 0 1 -4414.3745 0)">
					<stop  offset="0" style="stop-color:#444B8C"/>
					<stop  offset="0.9964" style="stop-color:#26264F"/>
				</linearGradient>
				<path class="st29" d="M2016.1,2659.8c0,0-25.9,30.9-21.7,64.9c4.2,33.9,49.6-15.7,56-32.4c6.3-16.8,13.7-40.6,13.7-40.6
					S2032.3,2631.7,2016.1,2659.8z"/>
				
					<linearGradient id="SVGID_25_" gradientUnits="userSpaceOnUse" x1="6367.6802" y1="2883.1055" x2="6482.2266" y2="2539.4656" gradientTransform="matrix(1 0 0 1 -4414.3745 0)">
					<stop  offset="0" style="stop-color:#FFC444"/>
					<stop  offset="0.9964" style="stop-color:#F36F56"/>
				</linearGradient>
				<path class="st30" d="M2026,2611.4c0,0,7,36-6.4,55.1c-6.7,9.5-15.7,17.5-13,25.2c1.8,5.2,8.5,8.9,14.2,8.3
					c10.9-1.1,17-17.9,21.3-29.7c6.3-17.5,9.8-54.8,9.8-54.8L2026,2611.4z"/>
				
					<linearGradient id="SVGID_26_" gradientUnits="userSpaceOnUse" x1="6508.8228" y1="2304.1536" x2="6594.2603" y2="2798.0876" gradientTransform="matrix(1 0 0 1 -4414.3745 0)">
					<stop  offset="0" style="stop-color:#311944"/>
					<stop  offset="1" style="stop-color:#A03976"/>
				</linearGradient>
				<path class="st31" d="M2046.7,2641.7c-8-2.9-15.9-5.8-23.9-8.7c-12.4-28.4-27.6-75.1-22.6-131.8c13-145.9,148-223.2,162.9-231.5
					c36.8,18.4,74,44.5,75.3,77.3c1.7,41.2-54.4,62.9-107.1,123.2C2099.7,2506.3,2065.9,2560.2,2046.7,2641.7z"/>
				
					<linearGradient id="SVGID_27_" gradientUnits="userSpaceOnUse" x1="6629.48" y1="2889.5374" x2="6750.9614" y2="2505.0684" gradientTransform="matrix(1 0 0 1 -4414.3745 0)">
					<stop  offset="0" style="stop-color:#311944"/>
					<stop  offset="1" style="stop-color:#A03976"/>
				</linearGradient>
				<path class="st32" d="M2055.3,2845.6c-26.3-102.9-19.6-186.9-12-235.3c11.5-73.1,34.9-221.9,134.2-277.3
					c21.7-12.1,52.7-23,90.5-56.6c31.6-28.1,51.6-57.7,63.7-78.5c132.8-39,255.3-23.2,309.4,48.1c6.2,8.2,21.9,26.1,24.9,52.4
					c6.8,59.4-51.5,130.9-117,145.8c-83.2,19-131.5-66.5-205.3-38c-20.6,8-38.1,27.7-73.1,67.1c-44.5,50.1-69.5,96.4-79,114.9
					c-28.2,55.1-49.5,95.8-52.7,148.6c-0.7,12.3-1.2,37.1-15.6,63.9c-11,20.6-26,34.3-37.2,42.7
					C2075.9,2844.1,2065.6,2844.9,2055.3,2845.6z"/>
				
					<linearGradient id="SVGID_28_" gradientUnits="userSpaceOnUse" x1="6629.4907" y1="2889.5425" x2="6750.9722" y2="2505.0728" gradientTransform="matrix(1 0 0 1 -4414.3745 0)">
					<stop  offset="0" style="stop-color:#311944"/>
					<stop  offset="1" style="stop-color:#A03976"/>
				</linearGradient>
				<path class="st33" d="M2665.9,2298.3c-3-26.3-18.7-44.2-24.9-52.4c-54.1-71.2-176.6-87-309.4-48.1
					c-12.1,20.8-32.2,50.4-63.7,78.5c-37.8,33.7-68.8,44.5-90.5,56.6c-60.6,33.9-92.9,102.5-111.5,167.5
					c27.6-42.8,51.2-54.1,69.5-54.4c26.2-0.3,37.8,22.1,69.1,19c33.4-3.3,41-30.9,68.1-34c8.1-0.9,18.1,0.3,30,6.7
					c16-16.7,27.9-26.6,41-31.7c73.7-28.4,122,57,205.3,38C2614.4,2429.2,2672.7,2357.7,2665.9,2298.3z"/>
				
					<linearGradient id="SVGID_29_" gradientUnits="userSpaceOnUse" x1="6800.4321" y1="2254.3015" x2="6885.6724" y2="2747.0972" gradientTransform="matrix(1 0 0 1 -4414.3745 0)">
					<stop  offset="0" style="stop-color:#311944"/>
					<stop  offset="1" style="stop-color:#A03976"/>
				</linearGradient>
				<path class="st34" d="M2124.1,2379c15-0.8,38.2-1.3,66.1,1.5c132.5,13.1,169.1,78.6,278.6,94.6c25.9,3.8,141.3,20.6,191.2-46.1
					c35.9-47.9,30.4-130.4-8.8-162.8c-16.6-13.7-33-13.4-139.4-12.4c-40,0.4-80.1,0.5-120.1,1c-169.5,2.2-201.9-9.6-232.8,18.5
					C2144.5,2286.5,2123.5,2314.6,2124.1,2379z"/>
				<g>
					<g>
						<linearGradient id="SVGID_30_" gradientUnits="userSpaceOnUse" x1="2704.8296" y1="2317.6436" x2="2285.9626" y2="1787.7131">
							<stop  offset="0" style="stop-color:#FF9085"/>
							<stop  offset="1" style="stop-color:#FB6FBB"/>
						</linearGradient>
						<path class="st35" d="M2482,1835.1c0,0,133.8-39,192.7,27.7c10.8,12.2,19.4,28.4,25.6,59.4c31.7,158.4-88.3,253.6-41,337.2
							c18.8,33.2,51.8,43.2,75.3,102.8c4,10.1,18.4,46.6,5.2,58.1c-11.6,10.1-30.7-11.3-64.7-7.1c-36,4.4-44.4,32-68.6,28
							c-15.8-2.6-22.6-16.1-45.8-49.7c-33.7-48.6-50.5-72.9-62.5-81.5c-47.6-33.6-84.4,10.2-138.6-23.1c-19.6-12.1-92.4-105.8-71-80
							l0,0c51-63.6,62.8-116.1,64-152.5c1.3-40-10.2-58.2,0-105.4c0,0,11.4-52.8,52.4-98C2410.8,1844.5,2417.9,1837.7,2482,1835.1z"
							/>
					</g>
				</g>
				<g>
					
						<linearGradient id="SVGID_31_" gradientUnits="userSpaceOnUse" x1="-4715.9409" y1="3067.1206" x2="-4707.2358" y2="2835.2502" gradientTransform="matrix(-0.984 0.1784 0.1784 0.984 -2665.938 -244.2395)">
						<stop  offset="0" style="stop-color:#FFC444"/>
						<stop  offset="0.9964" style="stop-color:#F36F56"/>
					</linearGradient>
					<path class="st36" d="M2524.9,1748.3c-1.8,8.5-11,53.9,7.6,65.6c4,2.5,11.8,4,27.3,6.9c10.1,1.9,18.6,3.1,24.6,3.8
						c-0.9,7.6-3.4,20-12.2,31.3c-24.6,31.6-74.1,23.4-81.1,22.2c-24.9-4.5-49.3-12.2-55.2-16.9c-9-7.1-16.1-12.5-20.2-18
						c9.6-4.6,29-16.9,42.1-20.9c9.7-3,18.9-5.1,27.2-6.7c1.4-8.8,2.7-17.6,4.1-26.3C2501,1775.6,2513,1762,2524.9,1748.3z"/>
					<linearGradient id="SVGID_32_" gradientUnits="userSpaceOnUse" x1="2611.8474" y1="1553.1792" x2="2453.1858" y2="1813.3843">
						<stop  offset="0" style="stop-color:#FFC444"/>
						<stop  offset="0.9964" style="stop-color:#F36F56"/>
					</linearGradient>
					<path class="st37" d="M2525.8,1771c0,0-3.4,33.3-35.7,39.2c-29,5.3-50.8-64.8-36-82.9c4.9-6,17.2-11.8,27.7-11.5
						c7.4,0.2,32.6,9.8,36.1,35c5-5.3,11.2-6.8,14.3-4.6c3.9,2.8,1.8,11,1.3,12.8C2532,1765.3,2527.8,1769.3,2525.8,1771z"/>
				</g>
				<linearGradient id="SVGID_33_" gradientUnits="userSpaceOnUse" x1="2284.6113" y1="2238.4419" x2="2745.2876" y2="2238.4419">
					<stop  offset="0" style="stop-color:#FF9085"/>
					<stop  offset="1" style="stop-color:#FB6FBB"/>
				</linearGradient>
				<path class="st38" d="M2288.5,2207c6.1-7.7,11.7-15.1,16.7-22.5c28.1-9.4,52.4-12.9,72.1-13.9c44.3-2.1,68.5,8.3,98.6-9.9
					c34.2-20.6,28.1-49.1,61.1-65.1c34.7-16.8,59.3,2.2,92.7-3.9c20.2-3.7,44.8-17.2,69.8-56.6c-19.2,94.8-75.1,162.6-40.3,224.2
					c18.8,33.2,51.8,43.2,75.3,102.8c4,10.1,18.4,46.6,5.2,58.1c-11.6,10.1-30.7-11.3-64.7-7.1c-36,4.4-44.4,32-68.6,28
					c-15.8-2.6-22.6-16.1-45.8-49.7c-33.7-48.6-50.5-72.9-62.5-81.5c-47.6-33.6-84.4,10.2-138.6-23.1
					C2339.9,2275,2267.1,2181.3,2288.5,2207z"/>
			</g>
			<g>
				
					<linearGradient id="SVGID_34_" gradientUnits="userSpaceOnUse" x1="8164.4556" y1="2247.8645" x2="8495.3877" y2="2247.8645" gradientTransform="matrix(1 0 0 1 -5924.3677 0)">
					<stop  offset="0" style="stop-color:#40447E"/>
					<stop  offset="0.9964" style="stop-color:#3C3B6B"/>
				</linearGradient>
				<path class="st39" d="M2248.2,2223.3L2551,2238c4.2,0.2,8,2.4,10.2,6l8.4,13.4c4.2,6.7-0.8,15.3-8.7,15l-320.7-12.2
					L2248.2,2223.3z"/>
				
					<linearGradient id="SVGID_35_" gradientUnits="userSpaceOnUse" x1="7952.8252" y1="2039.1112" x2="8169.793" y2="2254.3433" gradientTransform="matrix(1 0 0 1 -5924.3677 0)">
					<stop  offset="0" style="stop-color:#40447E"/>
					<stop  offset="0.9964" style="stop-color:#3C3B6B"/>
				</linearGradient>
				<path class="st40" d="M1933.3,2054.7l312.8,6.1c9.3,0.2,17.7,5.2,22.3,13.3l108.3,190.6l-330.4-13.2c-9.1-0.4-17.3-5.3-22-13.1
					L1924,2070.7C1919.7,2063.6,1925,2054.5,1933.3,2054.7z"/>
				
					<linearGradient id="SVGID_36_" gradientUnits="userSpaceOnUse" x1="7952.8257" y1="2039.1115" x2="8169.7935" y2="2254.3438" gradientTransform="matrix(1 0 0 1 -5924.3677 0)">
					<stop  offset="0" style="stop-color:#40447E"/>
					<stop  offset="0.9964" style="stop-color:#3C3B6B"/>
				</linearGradient>
				<path class="st41" d="M2268.4,2074c-4.6-8-13-13.1-22.3-13.3l-6.9-0.1c-1,10.1-4.1,19.3-10.3,26.8
					c-19.3,23.3-51.3,8.9-75.2,33.6c-26.2,27.1-2,59.3-25.5,84.5c-24.7,26.5-64.6,4.9-110.5,21.9l6.6,11c4.7,7.8,12.9,12.7,22,13.1
					l330.4,13.2L2268.4,2074z"/>
			</g>
			<g>
				<linearGradient id="SVGID_37_" gradientUnits="userSpaceOnUse" x1="2785.292" y1="2254.0447" x2="2366.4248" y2="1724.1138">
					<stop  offset="0" style="stop-color:#FF9085"/>
					<stop  offset="1" style="stop-color:#FB6FBB"/>
				</linearGradient>
				<path class="st42" d="M2526.3,2213.2c-3.9-10.4-7.9-20.8-11.8-31.2c43.6-11.9,103.8-29.6,165.6-51.7c9.7-3.5,21.2-7.7,24.9-17.9
					c10.6-28.6-56.6-58.2-82.7-120.5c-24.1-57.7-10.9-137.7,17.2-147.2c58.3-19.7,265.1,237.7,191.3,346.2
					C2788.9,2252.2,2660.2,2262,2526.3,2213.2z"/>
			</g>
			
				<linearGradient id="SVGID_38_" gradientUnits="userSpaceOnUse" x1="-6631.4224" y1="2182.6086" x2="-6741.4297" y2="2286.2769" gradientTransform="matrix(-1 0 0 1 -4184.0889 0)">
				<stop  offset="0" style="stop-color:#FFC444"/>
				<stop  offset="0.9964" style="stop-color:#F36F56"/>
			</linearGradient>
			<path class="st43" d="M2514.5,2181.9c-27.3-14.5-60.1,0.4-62.2,1.4c-6,2.8-14.8,7.9-23.6,16.9c-1,1.4-12.9,17.8-8.5,23.1
				c3.5,4.2,16.9,0.7,33-9.3c6.8-0.9,16.8-1.8,28.9-0.7c22.1,2,32.3,9,40.3,3c5.9-4.4,7.9-13.8,5.8-20.7
				C2525.8,2188.1,2519.1,2184.4,2514.5,2181.9z"/>
		</g>
		<g>
			<linearGradient id="SVGID_39_" gradientUnits="userSpaceOnUse" x1="1379.3136" y1="1685.3073" x2="692.8821" y2="3081.3594">
				<stop  offset="0" style="stop-color:#311944"/>
				<stop  offset="1" style="stop-color:#893976"/>
			</linearGradient>
			<path class="st44" d="M1315.2,1999.2l-375.4-5.4c-16.4-0.2-30.1,12.1-30.1,27.7v375.1c0,15.5,13.7,27,30.1,26.3l307.7-13.7h0.1
				l67.5-2.3c14.7-0.6,26.7-12.4,26.7-27.1v-353.8C1341.9,2011.5,1330,1999.4,1315.2,1999.2z"/>
			<g>
				<linearGradient id="SVGID_40_" gradientUnits="userSpaceOnUse" x1="938.3831" y1="2208.7004" x2="1366.8978" y2="2208.7004">
					<stop  offset="0" style="stop-color:#FF9085"/>
					<stop  offset="1" style="stop-color:#FB6FBB"/>
				</linearGradient>
				<path class="st45" d="M1366.9,2026.1v353.8c0,14.7-11.7,27-26.5,27.7l-373.7,15.9c-16.4,0.7-28.4-11.3-28.4-26.9v-375.1
					c0-15.5,12.1-27.9,28.5-27.7l374.2,5.4C1355.8,1999.4,1366.9,2011.5,1366.9,2026.1z"/>
				<path class="st46" d="M1292.4,2172c0-21.1-8.3-41-23.5-55.9c-15.2-15-35.6-23.3-57.3-23.3c-20.1,0-39.2,7-54.3,20
					c-15-12.2-33.8-18.9-53.8-18.9c-21.7,0-42.2,7.8-58.1,22.1c-0.7,0.6-1.3,1.2-1.9,1.8c-32.6,31.2-33.8,81.1-2.7,113.1l78.5,74.6
					c10.1,9.5,23.5,14.5,37.7,14.1c14.1-0.4,27.4-6.2,37.3-16.1l74.5-74.8c0-0.1,0.1-0.1,0.1-0.2c0.3-0.3,0.5-0.5,0.8-0.8l2.5-2.6
					l-0.1-0.1C1285.2,2210.2,1292.4,2191.6,1292.4,2172z M1240.7,2216.1l-38.8,0.6c-1.1,0-2.2-2.3-3.1-2.9l-16.6-12.3l-11.3,17.6
					l-30.1,46.8c-1,1.6-2.8,2.1-4.6,2.1c-0.5,0-2.5-0.1-3-0.2c-2.4-0.6-5.4-2.7-5.4-5V2170l-12.3,21.5l-10,16.9c-1,1.6-2.1,2.9-4,3
					l-69.3,1c-3.1,0-5.6-2.7-5.6-5.7c0-3,2.6-5.8,5.7-5.9l66.4-0.9l8.6-13.4l24.3-38c1.3-2,4-3,6.3-2.3c2.4,0.6,4.2,2.7,4.2,5.1
					v92.8l19.1-30.2l15.1-23.7c0.8-1.3,2-2.1,3.5-2.4c1.5-0.3,3,1.6,4.2,2.5l19.8,15.1l37.1-0.5c3,0,5.3,2.6,5.3,5.5
					C1246,2213.3,1243.7,2216,1240.7,2216.1z"/>
				<linearGradient id="SVGID_41_" gradientUnits="userSpaceOnUse" x1="1280.433" y1="1857.4469" x2="761.485" y2="2912.874">
					<stop  offset="0" style="stop-color:#FF9085"/>
					<stop  offset="1" style="stop-color:#FB6FBB"/>
				</linearGradient>
				<path class="st47" d="M1273.2,2410.5l-306.3,13.1c-16.4,0.7-28.5-11.3-28.5-26.9v-375.1c0-15.5,12.1-27.9,28.5-27.7l66.3,1
					c14.3,32.5,19.9,70.8,13.3,112.6c-0.5,2.9-0.9,5.7-0.9,8.4c-0.2,30.6,26.3,51.3,61.6,70.7c3,1.7,6.1,3.3,9.2,5
					c4.4,2.3,8.8,4.5,13.3,6.8c3.9,2,7.8,3.9,11.8,5.9c6.4,3.2,12.8,6.4,19.3,9.7c3.4,1.7,6.7,3.4,10,5.2
					c23.3,12.2,46.2,25.7,65,42.4C1272.3,2294,1293.6,2338.7,1273.2,2410.5z"/>
			</g>
		</g>
		<g>
			<linearGradient id="SVGID_42_" gradientUnits="userSpaceOnUse" x1="1035.3282" y1="1183.7249" x2="400.0313" y2="2475.7808">
				<stop  offset="0" style="stop-color:#311944"/>
				<stop  offset="1" style="stop-color:#893976"/>
			</linearGradient>
			<path class="st48" d="M949.1,1861.2C949.1,1861.2,949.1,1861.2,949.1,1861.2l43.8,0.2c14.8,0.1,24.1-10.9,24.1-24.6v-328.8
				c0-13.6-10.5-25.3-25.3-26.2l-377.1-23c-16.6-1-29.7,9.9-29.7,24.4v350.2c0,13.6,11.8,24.9,26.9,26.2c1,0.1,3.7,0.1,4.7,0.2
				L949.1,1861.2z"/>
			<g>
				<linearGradient id="SVGID_43_" gradientUnits="userSpaceOnUse" x1="1056.715" y1="1183.5836" x2="421.2683" y2="2475.9441">
					<stop  offset="0" style="stop-color:#FFC444"/>
					<stop  offset="0.9964" style="stop-color:#F36F56"/>
				</linearGradient>
				<path class="st49" d="M1038.4,1507.9v328.8c0,13.6-10.7,24.6-25.5,24.6l-376.9-1.5c-16.6-0.1-29.7-11.9-29.7-26.4v-350.2
					c0-14.5,13.7-25.4,30.3-24.4l376.7,23C1028,1482.6,1038.4,1494.3,1038.4,1507.9z"/>
				<g>
					<g>
						<polygon class="st46" points="767,1742.7 695.6,1741.2 695.6,1635.2 767,1637.9 						"/>
						<polygon class="st46" points="867,1744.7 795.5,1743.3 795.5,1587.7 867,1590.7 						"/>
						<polygon class="st46" points="959.8,1746.8 892,1745.3 892,1547.8 959.8,1551.2 						"/>
					</g>
					<polygon class="st46" points="970.5,1790.6 681.3,1786.4 681.3,1762.6 970.5,1767.8 					"/>
				</g>
				<linearGradient id="SVGID_44_" gradientUnits="userSpaceOnUse" x1="945.0046" y1="1348.2219" x2="467.0323" y2="2320.3137">
					<stop  offset="0" style="stop-color:#FFC444"/>
					<stop  offset="0.9964" style="stop-color:#F36F56"/>
				</linearGradient>
				<path class="st50" d="M967.7,1861.2l-331.2-1.4c-16.6-0.1-30.3-11.9-30.3-26.4v-350.2c0-14.5,13.7-25.4,30.3-24.4l55,3.3
					c32.6,38.3,51.1,90,41,148c-1.7,9.7-0.3,18.5,3.4,26.6c5.8,12.8,17.6,23.9,32.8,34.3c7.9,5.4,16.8,10.6,26.3,15.8
					c21.8,11.9,46.7,23.4,70.7,36.4c8.7,4.7,17.3,9.7,25.6,14.8c3.8,2.4,7.6,4.9,11.3,7.4c9.6,6.6,18.6,13.7,26.7,21.5
					c7.5,7.2,14.2,14.9,19.8,23.3C962.3,1809.7,969.6,1832.8,967.7,1861.2z"/>
			</g>
		</g>
		<g>
			<linearGradient id="SVGID_45_" gradientUnits="userSpaceOnUse" x1="1605.2875" y1="2237.5564" x2="930.366" y2="3610.2002">
				<stop  offset="0" style="stop-color:#311944"/>
				<stop  offset="1" style="stop-color:#893976"/>
			</linearGradient>
			<path class="st51" d="M1537.3,2544.7l-359.7,21.5c-15.8,0.9-28.6,13.4-28.6,27.7v347.1c0,13.5,10.9,23.3,25.3,22.9
				c1,0,1.8-0.1,2.8-0.2l308.2-35.9c0,0,0,0,0,0l52-6c14.1-1.6,25.9-13.9,25.9-27.5v-326.7
				C1563.3,2554.2,1551.5,2543.9,1537.3,2544.7z"/>
			<g>
				<linearGradient id="SVGID_46_" gradientUnits="userSpaceOnUse" x1="1813.3521" y1="2166.3479" x2="682.8283" y2="3666.1133">
					<stop  offset="0" style="stop-color:#FFC444"/>
					<stop  offset="0.9964" style="stop-color:#F36F56"/>
				</linearGradient>
				<path class="st52" d="M1584.7,2567.7v326.7c0,13.5-11.3,25.8-25.4,27.5l-360.1,41.9c-15.8,1.8-28.8-8.3-28.8-22.7V2594
					c0-14.4,13.1-26.8,28.9-27.7l359.9-21.5C1573.3,2543.9,1584.7,2554.2,1584.7,2567.7z"/>
				<g class="st53">
					<path class="st0" d="M1318.8,2673.8c-14.6,1.1-26.9,13-26.9,26.5v110.9c0,13.5,12.3,23.3,26.9,21.9
						c14.5-1.4,26.7-13.5,26.7-26.9v-110C1345.5,2682.6,1333.3,2672.7,1318.8,2673.8z"/>
					<path class="st0" d="M1267.1,2701.3L1267.1,2701.3c-10.1,0.8-18.1,9.1-18.1,18.5v28l-3.9,0.4c-6.3,0.5-10.4,5.7-10.4,11.5v0.5
						c0,5.8,4.1,10,10.4,9.5l3.9-0.4v30.2c0,9.4,8.3,16.2,18.5,15.3l-0.5,0c10.2-1,17.7-9.4,17.7-18.7v-79.2
						C1284.8,2707.4,1277.3,2700.5,1267.1,2701.3z"/>
					<path class="st0" d="M1449.1,2663.8c-14,1.1-25.1,12.7-25.1,26v108.8c0,13.3,11.1,22.9,25.1,21.5c14-1.4,24.9-13.2,24.9-26.4
						v-107.9C1474,2672.6,1463.1,2662.7,1449.1,2663.8z"/>
					<path class="st0" d="M1519.3,2724.3l-2.4,0.4v-26.9c0-9-7.9-15.8-17.4-15l-0.6,0c-9.5,0.8-17.7,8.8-17.7,17.8v77
						c0,9.1,8.1,15.7,17.6,14.8l0.6,0c9.5-0.9,17.5-9,17.5-18v-29l2.4-0.4c5.8-0.5,8.3-5.4,8.3-11v-0.5
						C1527.6,2727.9,1525.1,2723.8,1519.3,2724.3z"/>
					<polygon class="st0" points="1352.6,2766.3 1420.5,2760.3 1420.5,2728.9 1352.6,2734.6 					"/>
				</g>
				<linearGradient id="SVGID_47_" gradientUnits="userSpaceOnUse" x1="1503.3763" y1="2424.241" x2="1005.8317" y2="3436.1384">
					<stop  offset="0" style="stop-color:#FFC444"/>
					<stop  offset="0.9964" style="stop-color:#F36F56"/>
				</linearGradient>
				<path class="st54" d="M1507.9,2927.9l-308.5,35.9c-15.8,1.8-28.9-8.3-28.9-22.7V2594c0-14.4,13.1-26.8,28.9-27.7l78.4-4.7
					c13.7,29,19.4,63.9,13.1,103c-1.7,10.4-0.1,19.4,3.9,27.4c8.3,16.6,27.5,28.7,51.2,39.7c2.2,1,4.5,2.1,6.8,3.1
					c19.3,8.5,41,16.6,62,25.9c3.3,1.5,6.6,2.9,9.8,4.4c18.4,8.6,35.9,18.3,50.6,30.4C1508.1,2822.8,1526.8,2862.1,1507.9,2927.9z"
					/>
			</g>
		</g>
	</g>
</g>
</svg>
