<?xml version="1.0" encoding="utf-8"?>
<!-- Generator: Adobe Illustrator 25.1.0, SVG Export Plug-In . SVG Version: 6.00 Build 0)  -->
<svg version="1.1" xmlns="http://www.w3.org/2000/svg" xmlns:xlink="http://www.w3.org/1999/xlink" x="0px" y="0px"
	 viewBox="0 0 3710 3710" style="enable-background:new 0 0 3710 3710;" xml:space="preserve">
<style type="text/css">
	.st0{fill:#FFFFFF;}
	.st1{fill:#F4F7FA;}
	.st2{fill:url(#SVGID_1_);}
	.st3{fill:url(#SVGID_2_);}
	.st4{fill:url(#SVGID_3_);}
	.st5{opacity:0.3;fill:url(#SVGID_4_);}
	.st6{fill:url(#SVGID_5_);}
	.st7{fill:url(#SVGID_6_);}
	.st8{opacity:0.54;}
	.st9{fill:#D8DEE8;}
	.st10{fill:url(#SVGID_7_);}
	.st11{opacity:0.28;fill:#FFFFFF;}
	.st12{fill:url(#SVGID_8_);}
	.st13{fill:url(#SVGID_9_);}
	.st14{fill:url(#SVGID_10_);}
	.st15{fill:url(#SVGID_11_);}
	.st16{fill:url(#SVGID_12_);}
	.st17{fill:url(#SVGID_13_);}
	.st18{opacity:0.3;fill:url(#SVGID_14_);}
	.st19{fill:url(#SVGID_15_);}
	.st20{fill:url(#SVGID_16_);}
	.st21{opacity:0.3;fill:url(#SVGID_17_);}
	.st22{fill:url(#SVGID_18_);}
	.st23{fill:url(#SVGID_19_);}
	.st24{fill:url(#SVGID_20_);}
	.st25{fill:url(#SVGID_21_);}
	.st26{fill:url(#SVGID_22_);}
	.st27{fill:url(#SVGID_23_);}
	.st28{fill:url(#SVGID_24_);}
	.st29{fill:none;}
	.st30{fill:url(#SVGID_25_);}
</style>
<g id="Background">
	<g>
		<g>
			<rect class="st0" width="3710" height="3710"/>
		</g>
	</g>
</g>
<g id="Illustration">
	<g>
		<path class="st1" d="M2927.1,2921.3c-73.9,76.2-140.1,121-190.7,154.8c-494,329.8-1058.6,234.8-1233.2,202.3
			c-281.7-52.4-519.4-89.4-723.7-274c-464.2-419.4-441.6-1294.2-86.9-1836.1c42.1-64.3,396.2-589.2,962.1-663.2
			c13.8-1.8,24.2-2.8,33.2-3.8c87.5-9.3,630-58.2,1072.3,312.4c63.3,53,165.2,148.7,259.7,294.7
			C3365.4,1642,3366.5,2468.4,2927.1,2921.3z"/>
		<g>
			<linearGradient id="SVGID_1_" gradientUnits="userSpaceOnUse" x1="1144.4124" y1="3365.4949" x2="2833.2192" y2="137.0954">
				<stop  offset="0" style="stop-color:#444B8C"/>
				<stop  offset="0.9964" style="stop-color:#26264F"/>
			</linearGradient>
			<path class="st2" d="M3052.6,1846.3c0,586.3-475.1,1083.3-1081.3,1111.1c-629.6,28.8-1158-456.1-1158-1084
				s528.5-1125.6,1158-1112C2577.4,774.4,3052.6,1260,3052.6,1846.3z"/>
			<linearGradient id="SVGID_2_" gradientUnits="userSpaceOnUse" x1="1194.2565" y1="3365.4949" x2="2883.0635" y2="137.0954">
				<stop  offset="0" style="stop-color:#FFC444"/>
				<stop  offset="0.9964" style="stop-color:#F36F56"/>
			</linearGradient>
			<path class="st3" d="M3102.4,1846.3c0,586.3-475.1,1083.3-1081.3,1111.1c-629.6,28.8-1158-456.1-1158-1084
				s528.5-1125.6,1158-1112C2627.3,774.4,3102.4,1260,3102.4,1846.3z"/>
			<linearGradient id="SVGID_3_" gradientUnits="userSpaceOnUse" x1="2580.7915" y1="1202.0117" x2="-358.6884" y2="4453.749">
				<stop  offset="0" style="stop-color:#FFC444"/>
				<stop  offset="0.9964" style="stop-color:#F36F56"/>
			</linearGradient>
			<path class="st4" d="M3039.9,1847c0,552.4-448.2,1019.9-1018.8,1044.8c-591.3,25.8-1086.7-430.2-1086.7-1019.4
				S1429.8,815.2,2021.1,826.8C2591.8,838,3039.9,1294.6,3039.9,1847z"/>
			<g>
				<path class="st0" d="M1599.5,1255.8c25.1-21.3,52.5-41.5,82.3-60.5c29.7-19,61.8-35.5,96.2-49.4c34.3-13.9,71.4-24.7,111.4-32.4
					c39.8-7.7,82.9-11.3,129-10.8c62.5,0.7,119.2,9.8,170.3,27.2c50.8,17.4,94.3,41.8,130.4,73.3c36,31.4,63.8,69.2,83.5,113.3
					c19.7,44.1,29.5,93.3,29.5,147.7c0,53-7.7,98.9-23.2,137.7c-15.5,38.8-35,72.7-58.6,101.5c-23.7,28.9-49.3,54-76.9,75.2
					c-27.7,21.3-54,41.4-78.9,60.3c-25,18.9-46.5,37.5-64.8,55.7c-18.2,18.2-29.2,38.6-32.7,61.2l-24.7,154.9l-182.9,3.6
					l-18.5-173.2c-0.7-3.5-1.1-6.5-1.1-9c0-2.5,0-5.5,0-9.1c0-31.2,8-58.5,24-81.7c15.9-23.2,35.9-45.1,59.7-65.5
					c23.8-20.4,49.4-40.2,76.8-59.5c27.3-19.3,52.8-40.1,76.4-62.4c23.6-22.3,43.3-47.6,59-75.8c15.7-28.2,23.5-61.2,23.5-99.2
					c0-25.3-4.8-48-14.4-68c-9.6-20.1-23-37.3-40.2-51.8c-17.2-14.5-37.8-25.7-61.8-33.5c-24.1-7.9-50.1-11.9-78.2-12
					c-41.1-0.2-76.1,4.1-104.7,12.8c-28.7,8.8-53.1,18.6-73.1,29.6c-20.1,11-37,20.9-50.9,29.7c-13.9,8.9-26.3,13.3-37.3,13.3
					c-26.4-0.1-45.5-10.8-57.3-32.3L1599.5,1255.8z M1807.6,2515c0-22,4.2-43.2,12.6-63.3c8.4-20.1,20-37.5,34.9-52.2
					c14.9-14.6,32.5-26.5,52.8-35.5c20.3-9.1,42-13.9,65.1-14.5c22.4-0.6,43.6,3.1,63.8,11c20.1,7.9,37.3,18.7,51.7,32.4
					c14.3,13.7,25.8,30.3,34.4,49.7c8.6,19.5,12.9,40.1,12.9,61.9c0,22.5-4.3,43.6-12.9,63.3c-8.6,19.7-20,36.8-34.4,51.4
					c-14.4,14.6-31.6,26.4-51.7,35.2c-20.2,8.9-41.4,13.7-63.8,14.5c-23.1,0.9-44.8-2.4-65.1-9.8c-20.3-7.4-37.9-18-52.8-31.6
					c-14.9-13.7-26.6-30.1-34.9-49.4C1811.8,2558.8,1807.6,2537.8,1807.6,2515z"/>
			</g>
			<g>
				<linearGradient id="SVGID_4_" gradientUnits="userSpaceOnUse" x1="863.0726" y1="1882.1263" x2="2639.448" y2="1882.1263">
					<stop  offset="0" style="stop-color:#FFC444"/>
					<stop  offset="0.9964" style="stop-color:#F36F56"/>
				</linearGradient>
				<path class="st5" d="M1533.2,1383.6c-37.2-121.3-35.5-305.6,146-577.9c-468.3,134.9-816.1,559.6-816.1,1067.6
					c0,627.9,528.5,1112.8,1158,1084c232.1-10.6,444.7-89.8,618.3-215.6c-5.4-167.5-41.8-350.8-144.3-519.9
					C2213.5,1757,1650,1764.3,1533.2,1383.6z"/>
			</g>
		</g>
		<g>
			<linearGradient id="SVGID_5_" gradientUnits="userSpaceOnUse" x1="2127.6721" y1="792.8876" x2="3279.0908" y2="792.8876">
				<stop  offset="0" style="stop-color:#444B8C"/>
				<stop  offset="0.9964" style="stop-color:#26264F"/>
			</linearGradient>
			<path class="st6" d="M3147.9,558.4l-789.4-36c-57.7-1.7-104.7,42.6-104.7,98.7v309l-126.2,120.2l126.2,1.6l101.9,1.3l824.5,10.3
				c54.7,0.7,98.9-42.9,98.9-97.3V647.3C3279.1,592.8,3202.6,559.9,3147.9,558.4z"/>
			
				<linearGradient id="SVGID_6_" gradientUnits="userSpaceOnUse" x1="2626.3489" y1="278.2291" x2="1986.7479" y2="2046.8622" gradientTransform="matrix(1 0 0 1 340.4032 0)">
				<stop  offset="0" style="stop-color:#FF9085"/>
				<stop  offset="1" style="stop-color:#FB6FBB"/>
			</linearGradient>
			<path class="st7" d="M3194.1,545.9l-821.7-23.5c-57.7-1.7-104.7,42.6-104.7,98.7v309l-126.2,120.2l126.2,1.6l101.9,1.3
				l824.5,10.3c54.7,0.7,98.9-42.9,98.9-97.3V647.3C3293,592.8,3248.8,547.4,3194.1,545.9z"/>
			<g class="st8">
				<polygon class="st0" points="2370,711.6 3179.8,730.1 3179.8,691.8 2370,672.3 				"/>
				<polygon class="st0" points="2370,788 3179.8,804.6 3179.8,766.3 2370,748.7 				"/>
				<polygon class="st0" points="2688.7,870.2 3179.8,879.2 3179.8,840.9 2688.7,831.3 				"/>
			</g>
		</g>
		<g>
			<path class="st9" d="M2197.8,3128.9c142.4-17.3,171.8,16.2,316.7,9.6c142.5-6.5,152.3-40.6,268.8-33.6
				c104.7,6.3,239.5,42.4,240,81.6c0.5,43.1-161.5,103.7-316.7,81.6c-86.4-12.3-80.4-37.4-163.2-48c-149.9-19.2-194,60-345.5,43.2
				c-87.7-9.7-179.2-48-177.6-76.8C2022.4,3150.2,2172.4,3132,2197.8,3128.9z"/>
			<g>
				
					<linearGradient id="SVGID_7_" gradientUnits="userSpaceOnUse" x1="-1103.4532" y1="2207.4534" x2="-1836.5956" y2="3079.2268" gradientTransform="matrix(-1 0 0 1 1362.8925 0)">
					<stop  offset="3.597120e-03" style="stop-color:#E38DDD"/>
					<stop  offset="1" style="stop-color:#9571F6"/>
				</linearGradient>
				<path class="st10" d="M2522.7,3141.3c-44.2-218.3-25.2-393.8-5.1-499.7c24.3-128.5,73.8-389.8,281.5-535.5
					c16.4-11.5,178.9-123.2,251.8-67.7c37.6,28.6,46.2,97.8,29.8,152.3c-42.5,140.9-234.1,125.3-297.7,285.6
					c-21.2,53.4-25.1,118.6-10.3,124.7c18.2,7.6,70.1-72.1,75-79.7c46.3-71,46.7-111.2,82-122.1c21.7-6.7,50.2-0.4,63,16.7
					c29.1,39-28.4,127.7-44.4,152.6c-42,64.9-77.1,79.7-85.6,134.9c-3.7,23.8-3,59,11.1,64.5c19.1,7.4,55.5-42.3,78.9-74.2
					c62.9-85.8,69.5-135.6,100.8-139.2c29.1-3.3,62,35.6,70.4,59.4C3146.9,2678.6,3054.4,2816.6,2522.7,3141.3z"/>
				<path class="st11" d="M2529.3,3103.9c-6.6-202.9,26.2-363.7,56-469.2c38.2-135.7,110.2-390.8,311.9-501.2
					c14.3-7.8,119.8-65.6,149.3-34.7c19.6,20.6,2.2,77.2-26.7,114.6c-49.3,63.9-106.1,38.6-186.6,101.3
					c-72.2,56.3-97.6,132.1-104,152c-23.6,73.6-11.3,136.7-8,160C2733.9,2715,2708.1,2859.6,2529.3,3103.9z"/>
				<path class="st11" d="M2601.3,3053.2c113.1-101.3,139.3-184.3,141.3-242.6c1.6-45.4-10.7-99.3,24-149.3
					c22.2-32,38.9-26.9,77.3-61.3c80.2-72,90.1-169,106.6-165.3c9.2,2.1,14,33.9,8,64c-12.3,62-60.8,68.5-109.3,144
					c-33.1,51.5-44.6,101.6-50.7,128c-14.8,64.3-4.7,86.9-13.3,122.6C2774.1,2939.6,2733.8,2999.4,2601.3,3053.2z"/>
			</g>
			<g>
				
					<linearGradient id="SVGID_8_" gradientUnits="userSpaceOnUse" x1="-989.9479" y1="3238.635" x2="-1048.0134" y2="2710.7673" gradientTransform="matrix(-0.9986 5.270000e-02 5.270000e-02 0.9986 1370.7856 28.5205)">
					<stop  offset="0" style="stop-color:#AA80F9"/>
					<stop  offset="0.9964" style="stop-color:#6165D7"/>
				</linearGradient>
				<path class="st12" d="M2590.7,3176.6c196.1,11.2,254.4,23,346.8-8.5c86.8-29.6,175.9-87.9,168.1-114.6
					c-5.6-19.2-60.1-18.9-92.7-18.8c-87.4,0.4-159.5,27.2-210,53c43.6-29.6,87.2-59.2,130.8-88.8c30.5-10.9,82-34,127.6-82.9
					c28.6-30.6,94.2-113.4,69.6-153.2c-25.8-41.6-148.3-33.2-218.9,25.8c-33.9,28.3-33.9,49.9-79.3,99.3
					c-41.3,44.9-83.9,73.4-113.8,90.6c28-35.1,66.2-89.8,95.9-163.6c45.1-112.2,79.1-289.6,21.8-321.8
					c-38-21.4-113.4,22.7-151.1,74.9c-30.6,42.4-27.6,77.9-48.6,214c-9.1,59.2-18.1,106.8-23.9,136.4
					c-58.3-127.9-75.3-235.6-78.7-314.7c-4.4-101.7,12.4-181.3-26.4-202.5c-34.7-18.9-96.5,18-127.9,52.5
					c-127,139.9,40.6,468.4,58.3,502.2c-46.6-35.3-110.9-90.5-173.1-170.4c-66.5-85.4-94.6-148.9-128.4-143.2
					c-33.6,5.7-55.8,77.3-53.3,132.7c7,154.5,208.8,245.2,230.4,254.6c-17,2.7-45.8,5.6-79.7-0.9c-75.2-14.4-98.7-60-175-75.5
					c-29.2-5.9-88.9-12.1-96.2,6c-13.2,32.4,137.6,154.3,320.5,200.8C2350.3,3177.2,2334.2,3161.9,2590.7,3176.6z"/>
				<path class="st11" d="M2720.1,3064.8c89.3-39.7,77.2-93.7,174.8-160.5c62.6-42.8,77.1-27.2,144.1-68.1
					c36.9-22.5,67-48.3,91.5-73.8c0.1,0.2,0.3,0.3,0.4,0.5c24.7,39.8-41,122.6-69.6,153.2c-45.6,48.9-97.2,72-127.6,82.9
					c-43.6,29.6-87.2,59.2-130.8,88.8c50.6-25.9,122.6-52.6,210-53c28.4-0.1,73.5-0.3,88.3,12.3c-26.2,16.3-49.9,24.1-69.1,28
					c-43.8,8.9-71.3-1.1-109.2,21.8c-30.4,18.3-27.9,33.9-54.6,43.8c-25.2,9.3-38.1-0.5-100.2-10.7c-60.5-9.9-91.2-14.6-115.6,0.8
					c-18.5,11.6-28.3,30.7-33.7,47.6c-6.3-0.4-12.7-0.8-19.3-1.2c4.9-19.3,13.8-41.5,30.8-61.3
					C2657.2,3084.5,2686.7,3079.7,2720.1,3064.8z"/>
				<path class="st11" d="M2465.7,3133.4c-14.1-3.4-20.9,6.7-40.4,9.3c-36.4,4.7-50.1-25.3-92.9-39.6c-50.7-16.9-63.5,14.5-114-1.1
					c-39.9-12.4-34.8-33-87-63c-55.5-32-79-18.9-119.9-45.3c-13.1-8.5-28.1-21.1-42.3-40.8c17.9-9.7,64.9-4.5,89.7,0.5
					c76.3,15.5,99.8,61.1,175,75.5c33.9,6.5,62.7,3.6,79.7,0.9c-21.5-9.4-223.3-100.1-230.4-254.6c-2.3-51.4,16.6-116.7,46.2-130.4
					c-3.5,35.7-4,66.2-3.5,90.2c1.3,55.8,2.3,84.2,19.9,107.5c30.6,40.4,68,19.3,118.9,61.4c46.4,38.2,30.2,67.9,78.6,106.2
					c41.7,33,66.5,21,105.8,47.8c24.6,16.8,54.6,48.6,72.5,115.3c-8.2-0.4-16-0.7-23.5-1C2491.2,3153.1,2480.9,3137.1,2465.7,3133.4
					z"/>
				<path class="st11" d="M2509.7,2922.9c-24.4-66.6-66.9-59.7-84.6-118.3c-17.6-58.3,20.9-76.4,11.1-160.8
					c-7.4-63.2-31.2-72.5-32.8-115.7c-1.2-31.9,10.1-75.3,62-129c15.7-4.1,30.6-4.1,42.3,2.2c38.9,21.2,22.1,100.8,26.4,202.5
					c3.4,79.1,20.3,186.8,78.7,314.7c5.8-29.6,14.8-77.2,23.9-136.4c21-136.1,18-171.7,48.6-214c37.7-52.2,113.1-96.3,151.1-74.9
					c2.2,1.2,4.2,2.7,6.1,4.3c-19,12.9-36.5,28.8-51.2,48.4c-50.1,66.8-21.6,114.7-67.1,246.5c-43.7,126.8-88.1,134.6-123.3,244.1
					c-11.2,35-21.8,81.3-24,139.4c-12.8-0.7-24.9-1.3-36.4-1.9c-13.2-43.1-19.4-81.7-22-114.5
					C2512.9,2987.3,2526.2,2967.8,2509.7,2922.9z"/>
			</g>
		</g>
		<g>
			<path class="st9" d="M1025,3117.5c221.5,1.9,451.8,4,458.9,52.2c6.4,43.2-168.8,104.9-271.2,130.4
				c-100.4,25-272.4,50.5-474.6-5.2c-74.2-20.4-256.7-80.6-250.3-125.2C496,3112.9,806.1,3115.6,1025,3117.5z"/>
			<g>
				
					<linearGradient id="SVGID_9_" gradientUnits="userSpaceOnUse" x1="-2987.2253" y1="3194.6848" x2="-2890.3982" y2="3194.6848" gradientTransform="matrix(1 0 0 1 4137.0176 0)">
					<stop  offset="0" style="stop-color:#444B8C"/>
					<stop  offset="0.9964" style="stop-color:#26264F"/>
				</linearGradient>
				<path class="st13" d="M1157.6,3161c0,0-7.8,7.3-7.8,20.3c0,3.9,1.8,7.6,4.9,10c6.9,5.4,22,16.1,45.7,25.9
					c33.5,13.9,44.8,12.7,46.2,7.1c1.4-5.6-15.8-20.8-30.5-34.1C1201.3,3177,1157.6,3161,1157.6,3161z"/>
				
					<linearGradient id="SVGID_10_" gradientUnits="userSpaceOnUse" x1="-2951.9634" y1="3238.9951" x2="-2976.8335" y2="3080.0039" gradientTransform="matrix(1 0 0 1 4137.0176 0)">
					<stop  offset="0" style="stop-color:#311944"/>
					<stop  offset="1" style="stop-color:#893976"/>
				</linearGradient>
				<path class="st14" d="M1147,3109c0,0,10.6,50.7,9.7,69.2c0,0,13.4,11.9,32.4,0c0,0-9.7-46.3-4.9-65.5L1147,3109z"/>
				
					<linearGradient id="SVGID_11_" gradientUnits="userSpaceOnUse" x1="-3364.7502" y1="3217.4583" x2="-3274.5627" y2="3217.4583" gradientTransform="matrix(1 0 0 1 4137.0176 0)">
					<stop  offset="0" style="stop-color:#444B8C"/>
					<stop  offset="0.9964" style="stop-color:#26264F"/>
				</linearGradient>
				<path class="st15" d="M783,3178.4c0,0-8.8,6.2-10.6,19c-0.5,3.8,0.7,7.7,3.4,10.6c6.1,6.3,19.6,19,41.7,32
					c31.2,18.4,42.6,18.8,44.7,13.5c2.2-5.3-12.8-22.8-25.5-38C824,3200.3,783,3178.4,783,3178.4z"/>
				
					<linearGradient id="SVGID_12_" gradientUnits="userSpaceOnUse" x1="-3347.3088" y1="3242.1526" x2="-3349.9736" y2="3095.5957" gradientTransform="matrix(1 0 0 1 4137.0176 0)">
					<stop  offset="0" style="stop-color:#311944"/>
					<stop  offset="1" style="stop-color:#893976"/>
				</linearGradient>
				<path class="st16" d="M767.3,3131.6c0,0,10.6,50.7,9.7,69.2c0,0,13.4,11.9,32.4,0c0,0-9.7-46.3-4.9-65.5L767.3,3131.6z"/>
				
					<linearGradient id="SVGID_13_" gradientUnits="userSpaceOnUse" x1="-3140.7776" y1="3313.5632" x2="-3023.5322" y2="2370.2747" gradientTransform="matrix(1 0 0 1 4137.0176 0)">
					<stop  offset="0" style="stop-color:#444B8C"/>
					<stop  offset="0.9964" style="stop-color:#3E4177"/>
				</linearGradient>
				<path class="st17" d="M1278.9,2049.7c3.2,152.2,1.1,315.5-8.9,488.5c-12.5,216.1-35.4,416.3-64,598.7
					c-10.2,2.8-24.2,5.5-40.9,5.3c-11.8-0.1-22-1.7-30.2-3.5c-4.6-21.5-11.9-54.3-21.3-94.2c-17.1-72.2-21.3-81.8-26.6-106.6
					c-22.2-102.9,7-131.9-7.1-238c-3.1-23.3-4.4-21.2-35.5-133.2c-38.8-139.7-58.4-209.5-67.5-262.9
					c-24.4-143.4-36.6-215.2,3.6-259.4C1032.9,1986.6,1154.8,1995.6,1278.9,2049.7z"/>
				
					<linearGradient id="SVGID_14_" gradientUnits="userSpaceOnUse" x1="-3141.8125" y1="3313.4343" x2="-3024.5671" y2="2370.1462" gradientTransform="matrix(1 0 0 1 4137.0176 0)">
					<stop  offset="0" style="stop-color:#444B8C"/>
					<stop  offset="0.9964" style="stop-color:#3E4177"/>
				</linearGradient>
				<path class="st18" d="M1172.3,3049.8c-16.7-47.3,12.6-71.3,12.4-152.8c-0.1-70.3-21.9-79.1-28.4-158.1
					c-6-72.5,10.1-93.1,14.2-159.9c7.8-125.9-41.9-168.2-51.5-264.7c-6.6-66.5,5.4-163.1,94-289.2c-99.5-30.6-189.5-28.2-232.5,19.2
					c-40.1,44.2-27.9,115.9-3.6,259.4c9.1,53.4,28.7,123.2,67.5,262.9c31.1,112,32.4,110,35.5,133.2c14.1,106.1-15.1,135.2,7.1,238
					c5.4,24.8,9.5,34.4,26.6,106.6c9.5,39.9,16.7,72.6,21.3,94.2c8.2,1.9,18.4,3.4,30.2,3.5c16.7,0.2,30.7-2.5,40.9-5.3
					c1.7-11.1,3.5-22.3,5.2-33.6C1194.4,3089.3,1180,3071.8,1172.3,3049.8z"/>
				
					<linearGradient id="SVGID_15_" gradientUnits="userSpaceOnUse" x1="-3535.8572" y1="2381.7239" x2="-3096.2112" y2="2661.4988" gradientTransform="matrix(1 0 0 1 4137.0176 0)">
					<stop  offset="0" style="stop-color:#444B8C"/>
					<stop  offset="0.9964" style="stop-color:#3E4177"/>
				</linearGradient>
				<path class="st19" d="M1115.4,2039c-61.1,165.9-120.7,350.2-173.7,551.9c-51.5,196.1-89.5,381-117.6,551.3
					c-7.9,3.6-23,9.3-42.6,8.9c-16.7-0.4-29.7-5-37.4-8.4c-19.7-49.9-40.2-114.9-52.4-192.6c-7.8-49.8-16.3-104.2-9.7-173.9
					c8.8-92.7,34.3-107.3,46.2-199c8.9-68.5-2.6-82-5.3-181.2c-4.3-153.8-6.5-233.1,32-287.8
					C837.4,1990.8,1075.9,2031.8,1115.4,2039z"/>
				
					<linearGradient id="SVGID_16_" gradientUnits="userSpaceOnUse" x1="-3201.1152" y1="1826.5475" x2="-2670.8486" y2="1350.9069" gradientTransform="matrix(1 0 0 1 4137.0176 0)">
					<stop  offset="0" style="stop-color:#AA80F9"/>
					<stop  offset="0.9964" style="stop-color:#6165D7"/>
				</linearGradient>
				<path class="st20" d="M698.6,1353.3c26.5-27.7,116.9-115.4,265.4-137.4c151.1-22.4,264.7,37.8,297.6,56.8
					c63.6,141.5,62.6,243.7,49.3,311.5c-8.1,41.5-18.4,57.5-23.1,108.4c-8.1,87.9,14.5,127.1,33.9,240c5.6,32.8,38,221.2-1.9,236.1
					c-21.6,8-38.8-44.4-101.3-56.8c-43.1-8.6-57.7,11.9-113.7,7.1c-51.3-4.4-53.5-22.7-95-29.1c-66.5-10.2-90.6,32.5-217.5,71.4
					c-62.9,19.3-111.6,33.6-134.6,10.4c-15-15.1-14.6-41.6-2-96.2c25.5-110.4,59.2-154.4,81.6-221.1
					c25.1-74.4,21.6-133.7,15.7-234.5C747,1516.6,724.8,1426.8,698.6,1353.3z"/>
				
					<linearGradient id="SVGID_17_" gradientUnits="userSpaceOnUse" x1="-3233.0928" y1="1982.5818" x2="-2856.4873" y2="1407.0157" gradientTransform="matrix(1 0 0 1 4137.0176 0)">
					<stop  offset="3.597120e-03" style="stop-color:#E38DDD"/>
					<stop  offset="1" style="stop-color:#9571F6"/>
				</linearGradient>
				<path class="st21" d="M1339.3,2090c-45.3-1.8-71.2-16-87-31.4c-44.7-43.5-18-104.9-66.6-143.9c-60.4-48.5-142.2,13.6-183.9-29.3
					c-38.8-40,22-104.2-5.3-221.2c-5.2-22.4-23.1-98.7-85.3-149.2c-74.5-60.5-143.8-28.1-183.9-77.3c-1.5-1.9-3-3.8-4.4-5.9
					c14.9,56.1,26.1,119.1,30.2,188c5.9,100.8,9.4,160.1-15.7,234.5c-22.5,66.6-56.1,110.7-81.6,221.1c-12.6,54.6-13,81.1,2,96.2
					c23.1,23.2,71.8,8.9,134.6-10.4c126.9-38.9,151-81.5,217.5-71.4c41.5,6.4,43.7,24.8,95,29.1c56,4.7,70.6-15.7,113.7-7.1
					c62.5,12.4,79.6,64.9,101.3,56.8C1335.5,2162.8,1340,2129.8,1339.3,2090z"/>
				
					<linearGradient id="SVGID_18_" gradientUnits="userSpaceOnUse" x1="-3197.9084" y1="1830.124" x2="-2667.6406" y2="1354.4823" gradientTransform="matrix(1 0 0 1 4137.0176 0)">
					<stop  offset="0" style="stop-color:#AA80F9"/>
					<stop  offset="0.9964" style="stop-color:#6165D7"/>
				</linearGradient>
				<path class="st22" d="M1197.2,1289.4c4.2-17.7,8.2-31,18.6-34.8c42.4-15.4,161.1,139.3,188.5,309.8
					c2.9,17.9,28.1,175.1-28.3,200.5c-44.7,20.1-120.9-52.7-159.2-106C1134.5,1544.5,1168.1,1411.4,1197.2,1289.4z"/>
				
					<linearGradient id="SVGID_19_" gradientUnits="userSpaceOnUse" x1="-3409.9521" y1="1567.0769" x2="-2843.1538" y2="1058.6677" gradientTransform="matrix(1 0 0 1 4137.0176 0)">
					<stop  offset="0" style="stop-color:#AA80F9"/>
					<stop  offset="0.9964" style="stop-color:#6165D7"/>
				</linearGradient>
				<path class="st23" d="M726.9,1855.7c-10.8-0.8-160.1-13.5-218.5-129.2c-60.6-120.1,28.6-248.5,56-287.8
					c105-151,349.1-242,390.1-195.9c29.5,33.3-58.1,155.8-98.3,210.5c-72.7,98.9-150.3,103.5-167.9,173.2
					c-8.4,33.4-4.4,86.6,63.9,167.9C743.7,1814.9,735.3,1835.3,726.9,1855.7z"/>
				<g>
					
						<linearGradient id="SVGID_20_" gradientUnits="userSpaceOnUse" x1="-3039.4109" y1="1028.3535" x2="-3185.9668" y2="1307.2542" gradientTransform="matrix(1 0 0 1 4137.0176 0)">
						<stop  offset="0" style="stop-color:#311944"/>
						<stop  offset="1" style="stop-color:#893976"/>
					</linearGradient>
					<path class="st24" d="M976.8,1119.2c4.7,13,10.9,41.6-3,67.3c-12.2,22.6-34.9,32.5-44,36.6c-21.9,9.8-35.1,6.9-35.7,11
						c-1.3,9.2,61.2,38.8,125.8,25.8c38-7.6,74-29.4,71.6-41.6c-2.7-13.7-51.5-4.2-68.3-30.7c-10.7-17-3.7-41.2,5.1-60.6
						C1015.8,1116.4,989.3,1129.8,976.8,1119.2z"/>
					<g>
						
							<linearGradient id="SVGID_21_" gradientUnits="userSpaceOnUse" x1="431.8016" y1="-340.6971" x2="375.9449" y2="-482.5631" gradientTransform="matrix(-0.9874 0.1633 0.2176 1.1644 1489.6963 1580.804)">
							<stop  offset="0" style="stop-color:#444B8C"/>
							<stop  offset="0.9964" style="stop-color:#26264F"/>
						</linearGradient>
						<path class="st25" d="M1049.5,1120.5c5.5-12,2.9-30.4-7.3-40.4c-8.8-8.6-20.2-7.8-27.1-7.3c-19.9,1.4-43.1,15.2-48.5,36.7
							c-3.2,12.8,11.8,35,14.3,39c2.8,4.6,6.6,5.6,10.5,8.7c5.4,4.3,13.8,11.1,27.7,22.7c0.2-4.3,0.8-9.6,2-15.5
							c0.5-2.3,2.5-11.2,6.5-19C1035.5,1129.6,1044.3,1131.8,1049.5,1120.5z"/>
						
							<linearGradient id="SVGID_22_" gradientUnits="userSpaceOnUse" x1="-3092.5852" y1="1214.5751" x2="-3113.2366" y2="1159.2832" gradientTransform="matrix(1 0 0 1 4137.0176 0)">
							<stop  offset="0" style="stop-color:#311944"/>
							<stop  offset="1" style="stop-color:#893976"/>
						</linearGradient>
						<path class="st26" d="M1000.6,1171.4c0,0,16.6,20.6,41.9,13.7c22.5-6.2,16.6-63.3,0.1-72.4c-5.5-3-15.5-2.8-23.1,1.3
							c-4.4,2.4-5.7,4.8-13,8.6c-6.8,3.4-8.9,3-10.7,5.4c-2.3,3-3.2,9.5,3.9,25.2c-5.2-4-10.7-4.8-14.1-2.1
							c-0.5,0.4-1.9,1.9-2.5,3.9C980.9,1161.9,987.6,1169.1,1000.6,1171.4z"/>
					</g>
				</g>
				
					<linearGradient id="SVGID_23_" gradientUnits="userSpaceOnUse" x1="-3088.4062" y1="1273.455" x2="-3091.0708" y2="1241.4792" gradientTransform="matrix(1 0 0 1 4137.0176 0)">
					<stop  offset="0" style="stop-color:#311944"/>
					<stop  offset="1" style="stop-color:#893976"/>
				</linearGradient>
				<path class="st27" d="M1023.4,1196.6c-8.8-4.6-7.8-15.5-5.7-23.4c1.2-4.4,6.5-6.1,10.1-3.3c5.6,4.3,13.8,9.7,20.9,11.5
					c12.4,3,22.9,70.7,22.9,70.7l-10.5,7.2c0,0-10.5-24.9-21.9-43.5C1033.9,1206.7,1028.2,1199.1,1023.4,1196.6z"/>
				<linearGradient id="SVGID_24_" gradientUnits="userSpaceOnUse" x1="1239.3201" y1="1530.6119" x2="1628.738" y2="1732.2747">
					<stop  offset="0" style="stop-color:#AA80F9"/>
					<stop  offset="0.9964" style="stop-color:#6165D7"/>
				</linearGradient>
				<path class="st28" d="M1044,1243.5l29.3-13.1c33.9,60.4,66,105.9,88.7,136c37.5,49.7,61.3,72.9,122.8,153.3
					c34.9,45.6,48,65.3,60.7,87.7c23.8,41.9,65,114.4,38.2,148.3c-6.5,8.3-14.9,11.5-23.3,14.8c-38.7,15.1-79.6-4.6-100.1-14.8
					c-107-53.2-168.6-165.6-168.6-165.6C1013.4,1447.6,1033,1300.7,1044,1243.5z"/>
				<path class="st29" d="M722.9,1431.7c-5-19.1-10.5-37.4-16.3-54.8C707.8,1401.4,714.2,1418.9,722.9,1431.7z"/>
				
					<linearGradient id="SVGID_25_" gradientUnits="userSpaceOnUse" x1="-3283.9641" y1="1736.1204" x2="-3383.8887" y2="1870.6854" gradientTransform="matrix(1 0 0 1 4137.0176 0)">
					<stop  offset="0" style="stop-color:#311944"/>
					<stop  offset="1" style="stop-color:#893976"/>
				</linearGradient>
				<path class="st30" d="M743.4,1815.7c0,0,23.5-26.6,43.5-21.3c20,5.3,45.3,29.3,45.3,29.3s0,24-18.7,17.3
					c-18.7-6.7-81,1.2-81,1.2L743.4,1815.7z"/>
			</g>
		</g>
	</g>
</g>
</svg>
