<?xml version="1.0" encoding="utf-8"?>
<!-- Generator: Adobe Illustrator 25.1.0, SVG Export Plug-In . SVG Version: 6.00 Build 0)  -->
<svg version="1.1" xmlns="http://www.w3.org/2000/svg" xmlns:xlink="http://www.w3.org/1999/xlink" x="0px" y="0px"
	 viewBox="0 0 3710 3710" style="enable-background:new 0 0 3710 3710;" xml:space="preserve">
<style type="text/css">
	.st0{fill:#FFFFFF;}
	.st1{fill:#F4F7FA;}
	.st2{fill:url(#SVGID_1_);}
	.st3{clip-path:url(#SVGID_3_);}
	.st4{fill:#FCFDFE;}
	.st5{fill:url(#SVGID_4_);}
	.st6{clip-path:url(#SVGID_6_);}
	.st7{clip-path:url(#SVGID_8_);fill:url(#SVGID_9_);}
	.st8{clip-path:url(#SVGID_8_);}
	.st9{fill:#BEB8F2;}
	.st10{fill:#BFC8D6;}
	.st11{fill:#D8DEE8;}
	.st12{opacity:0.48;fill:#FFFFFF;}
	.st13{fill:url(#SVGID_10_);}
	.st14{fill:#B7C0CE;}
	.st15{fill:url(#SVGID_11_);}
	.st16{opacity:0.3;}
	.st17{fill:url(#SVGID_12_);}
	.st18{fill:url(#SVGID_13_);}
	.st19{fill:url(#SVGID_14_);}
	.st20{fill:url(#SVGID_15_);}
	.st21{fill:url(#SVGID_16_);}
	.st22{opacity:0.3;fill:url(#SVGID_17_);}
	.st23{fill:url(#SVGID_18_);}
	.st24{fill:url(#SVGID_19_);}
	.st25{fill:url(#SVGID_20_);}
	.st26{fill:url(#SVGID_21_);}
	.st27{fill:url(#SVGID_22_);}
	.st28{opacity:0.3;fill:url(#SVGID_23_);}
	.st29{fill:url(#SVGID_24_);}
	.st30{fill:url(#SVGID_25_);}
	.st31{opacity:0.3;fill:url(#SVGID_26_);}
	.st32{fill:url(#SVGID_27_);}
	.st33{fill:url(#SVGID_28_);}
	.st34{opacity:0.3;fill:#D8DEE8;}
	.st35{fill:url(#SVGID_29_);}
	.st36{fill:url(#SVGID_30_);}
	.st37{fill:url(#SVGID_31_);}
	.st38{fill:url(#SVGID_32_);}
	.st39{opacity:0.3;fill:url(#SVGID_33_);}
	.st40{fill:url(#SVGID_34_);}
	.st41{fill:url(#SVGID_35_);}
	.st42{fill:url(#SVGID_36_);}
	.st43{fill:url(#SVGID_37_);}
	.st44{fill:url(#SVGID_38_);}
	.st45{fill:url(#SVGID_39_);}
	.st46{fill:url(#SVGID_40_);}
	.st47{fill:url(#SVGID_41_);}
	.st48{fill:url(#SVGID_42_);}
	.st49{fill:url(#SVGID_43_);}
</style>
<g id="Background">
	<g>
		<g>
			<rect class="st0" width="3710" height="3710"/>
		</g>
	</g>
</g>
<g id="Illustration">
	<g>
		<path class="st1" d="M1887.9,482.8C1142.4,461.3,496.6,990.5,399,1684.9c-106.7,759.2,480.5,1442.3,1202.9,1551.7
			c898.6,136.1,1770.2-651.2,1691.9-1505.3C3234.8,1087.9,2645.7,504.7,1887.9,482.8z"/>
		<g>
			<g>
				<g>
					<linearGradient id="SVGID_1_" gradientUnits="userSpaceOnUse" x1="3057.7012" y1="1870.2665" x2="1984.5471" y2="2501.5325">
						<stop  offset="3.597120e-03" style="stop-color:#E38DDD"/>
						<stop  offset="1" style="stop-color:#9571F6"/>
					</linearGradient>
					<path class="st2" d="M1399.1,3078.7c-22.5-10.8-62-54-67.7-69.6c-37.6-103.3-120.5-292.2-77.9-400.3
						c7.3-18.5,97.2-8.3,114.6-21.7c58.9-7.4,79.8-6.4,132.3-40.9c155-102.1-10-443.4,310.9-439c235,3.2,391,135.7,476.6-202.6
						s546-855.2,819.6-509.7c157,198.3-138.9,412.8-103.9,654.2c33.3,229.4-103.6,364.3-352,413.9
						c-248.4,49.6-166.3,177.3-167,384.7c-0.8,249.1-360.2,175.3-523.2,127.1C1830.4,2936,1469.9,2925.6,1399.1,3078.7z"/>
					<g>
						<defs>
							<path id="SVGID_2_" d="M1209.7,2562.9c-0.5,171.6-8.2,346.2-9.7,518.9c90.3,38,197.3,80.4,255.3-26.9
								c80.6-149.1,375.8-119.9,506.7-80.4c162.1,48.9,522.3,122,522.8-126.9c0.5-207.2-81.4-335.1,166.9-384.7
								c248.3-49.5,385.2-184.5,352-413.9c-35-241.4,260.8-455.8,103.8-654.2c-273.5-345.7-734.1,171.6-819.5,509.6
								c-85.4,338-242.6,207.2-476.5,202.4c-319.3-6.5-160.2,342.5-309.3,436.6C1385.4,2617.2,1325.5,2577.1,1209.7,2562.9z"/>
						</defs>
						<clipPath id="SVGID_3_">
							<use xlink:href="#SVGID_2_"  style="overflow:visible;"/>
						</clipPath>
						<g class="st3">
							<path class="st4" d="M1292.2,2818.6l-0.5-3.5c208-28.5,408.5-88.6,595.9-178.6c180.1-86.5,348.5-200.6,500.4-339.2
								c295-269.2,523.2-626.5,660.1-1033.2l3.4,1.1c-137.1,407.3-365.7,765.1-661.1,1034.7c-152.2,138.9-320.8,253.2-501.2,339.8
								C1701.4,2729.8,1500.6,2790,1292.2,2818.6z"/>
							<path class="st4" d="M2496.9,2950.6c-180.3-132.6-517.5-245.3-751.9-251.3l0.1-3.6c109.3,2.8,252.1,30.8,391.9,76.9
								c144.9,47.8,273.5,110,362,175.1L2496.9,2950.6z"/>
							<path class="st4" d="M1450.8,2795l-1.4-3.3c111.6-49.4,193.8-153.3,244.5-308.8c37.1-113.9,56.8-252.3,58.4-411.4l3.6,0
								c-1.6,159.5-21.3,298.3-58.6,412.5C1646.2,2640.6,1563.3,2745.2,1450.8,2795z"/>
							<path class="st4" d="M2431.1,2259.9l-1.6-3.2c204.8-103.6,444-70.8,608.6-25l-1,3.4C2740,2152.4,2543.6,2202.9,2431.1,2259.9
								z"/>
							<path class="st4" d="M2767.3,1856l-3.3-1.4c42.3-102.9,95.5-322.7-22.4-637.9l3.3-1.2c39.8,106.3,64.1,216.9,70.2,319.7
								C2822.2,1653.6,2806.2,1761.5,2767.3,1856z"/>
						</g>
					</g>
				</g>
			</g>
			<g>
				<g>
					
						<linearGradient id="SVGID_4_" gradientUnits="userSpaceOnUse" x1="2645.2065" y1="1544.4957" x2="1715.5447" y2="2091.3545" gradientTransform="matrix(0.8735 -0.4869 0.4869 0.8735 -1133.2836 1162.3777)">
						<stop  offset="0" style="stop-color:#FFC444"/>
						<stop  offset="0.9964" style="stop-color:#F36F56"/>
					</linearGradient>
					<path class="st5" d="M1184,2837.6c-21.6,1.4-69.7-14.7-80.6-24.1c-72-62.3-214.5-170.2-227.8-270.1c-2.3-17,70-47.3,77.6-64.8
						c41.4-30.5,57.7-38.5,82.8-86.8c74.2-142.6-194.6-331.3,50.1-463.3c179.2-96.7,353.1-62.2,275.2-354.4
						c-77.9-292.2,52.4-877.4,405.2-731.4c202.5,83.8,69,371,197.4,538.9c122,159.5,75.3,319.4-91.7,461.7
						c-167,142.3-51.1,204.3,35.9,361.5c104.5,188.8-198.6,284.6-342.3,316.9C1450.1,2547.6,1173,2691.9,1184,2837.6z"/>
					<g>
						<defs>
							<path id="SVGID_5_" d="M823.1,2527.2c72,130.1,139.8,265.4,211.6,396.8c84.3-9.4,183.2-22.4,181.8-128
								c-1.9-146.8,233.8-249.2,349.5-274.6c143.3-31.4,446.7-128,342.1-316.6c-87.1-157-203-219.3-35.9-361.5
								s213.7-302.1,91.7-461.6c-128.3-167.9,5.1-454.9-197.4-538.8c-352.8-146.2-483.1,439.5-405.2,731.3s-96.2,259.1-275.2,354.2
								c-244.3,129.8,23.3,326.7-49.9,460.8C979,2494.2,916.7,2489,823.1,2527.2z"/>
						</defs>
						<clipPath id="SVGID_6_">
							<use xlink:href="#SVGID_5_"  style="overflow:visible;"/>
						</clipPath>
						<g class="st6">
							<path class="st4" d="M993.6,2686l-2.1-2.8c145.3-109.3,271.7-239.3,375.5-386.4c99.8-141.4,179-298.7,235.5-467.7
								c109.6-328.1,131.7-694.7,63.7-1060.2l3.5-0.7c68.1,366.1,46,733.3-63.8,1062c-56.6,169.3-136,327-236,468.6
								C1265.8,2446.2,1139.2,2576.5,993.6,2686z"/>
							<path class="st4" d="M1285.8,2404.8l-1.7-3.2c180.3-94.6,484-151.7,676.9-127.4l-0.4,3.5
								C1768.3,2253.5,1465.6,2310.4,1285.8,2404.8z"/>
							<path class="st4" d="M1103.6,2601.3l-2.8-2.1c63.5-84.4,81.9-197.7,54.7-336.6c-19.9-101.8-63.5-214.8-129.3-335.9l3.1-1.7
								c66.1,121.4,109.7,234.7,129.7,336.9C1186.4,2401.8,1167.8,2516,1103.6,2601.3z"/>
							<path class="st4" d="M1619.7,1782.8l-2.9-2c111.3-164.9,306.2-241,450.1-275.8l0.8,3.5
								C1924.4,1543.1,1730.4,1618.9,1619.7,1782.8z"/>
							<path class="st4" d="M1700.3,1335.6c-11.4-95.7-63.8-284.4-286-473.1l2.3-2.7c75,63.7,140,137.1,188.1,212.3
								c55.3,86.6,88.6,175,99.1,263L1700.3,1335.6z"/>
						</g>
					</g>
				</g>
			</g>
			<g>
				<g>
					<defs>
						<path id="SVGID_7_" d="M1650.1,3174.6c-110.1-28.8-219.9-60.2-329.2-94.1c-2,1.4-11.8-246,117.8-360.9
							c255.9-222,126.4-460.9,97-597.3c-49.8-193.2,11.1-414.6,210.6-349.8c194.9,58.3,270.3-348,270.8-667.3
							c-12.4-156.8,153.1-327.2,302.4-353.8c152.8-30.9,289.5,81.9,300.9,393.1c29.2,362-253,547.2-368.4,714.3
							c-113.5,164.1,90.2,329.4-103.4,464.5c-163.6,121-361.6,199.1-312.2,379.1C1888,2880.7,1855.8,3018.3,1650.1,3174.6z"/>
					</defs>
					<clipPath id="SVGID_8_">
						<use xlink:href="#SVGID_7_"  style="overflow:visible;"/>
					</clipPath>
					
						<linearGradient id="SVGID_9_" gradientUnits="userSpaceOnUse" x1="383.2979" y1="-318.8104" x2="-425.5112" y2="1979.9121" gradientTransform="matrix(-0.8076 -0.5897 -0.5897 0.8076 2436.0193 1284.7437)">
						<stop  offset="0" style="stop-color:#AA80F9"/>
						<stop  offset="0.9964" style="stop-color:#6165D7"/>
					</linearGradient>
					<path class="st7" d="M1650.1,3174.6c-110.1-28.8-219.9-60.2-329.2-94.1c-2,1.4-11.8-246,117.8-360.9
						c255.9-222,126.4-460.9,97-597.3c-49.1-193,9.6-389.6,198.5-371.7c210,15.7,286.1-326.3,282.9-645.4
						c-12.4-156.8,153.1-327.2,302.4-353.8c152.8-30.9,289.5,81.9,300.9,393.1c29.2,362-253,547.2-368.4,714.3
						c-113.5,164.1,90.2,329.4-103.4,464.5c-163.6,121-361.6,199.1-312.2,379.1C1888,2880.7,1855.8,3018.3,1650.1,3174.6z"/>
					<g class="st8">
						<path class="st4" d="M1498.3,3172.4l-3.5-0.4c0.2-2.2,163.6-502,403.1-980.1c34.4-77.9,71.1-156.2,106.5-232
							c94.9-202.8,193.1-412.6,252.3-625.7c66.1-238.3,76.2-458.3,30.8-672.7l3.5-0.7c45.5,215,35.4,435.6-30.9,674.4
							c-59.2,213.4-157.5,423.3-252.5,626.3c-35.4,75.7-72.1,154-106.5,232C1661.4,2671.8,1498.8,3169.6,1498.3,3172.4z"/>
						<path class="st4" d="M2182.4,1566.8l-2.4-2.7c140.1-124.9,312.5-305.4,405.1-402.4c70.1-73.4,74.6-77.7,77-77l-0.5,1.7
							l0.5,1.7c-3.4,1.7-34.7,34.5-74.4,76.1C2495,1261.2,2322.6,1441.8,2182.4,1566.8z"/>
						<path class="st4" d="M2241.9,1381.1c-8.3-162.2-62.5-274.2-106.4-339.6c-48.3-71.8-96.7-106.5-101.5-107.4
							c0,0,0.4,0.1,0.8-0.2l-1.6-3.2c1-0.5,2.3-0.2,4.9,1.3c13.1,7.5,61.1,45.4,107.8,118.7c58.8,92.3,93.3,206.4,99.6,330.1
							L2241.9,1381.1z"/>
						<path class="st9" d="M1755.8,2505.9l-3.8-0.9c33.9-146,17-308.9-50.3-484.3c-35.1-91.4-82.7-182.5-141.4-270.6
							c-4.1-6.1-5.7-8.6-6.2-9.6l3.5-1.6c0.3,0.7,2.8,4.4,5.8,9c58.9,88.3,106.6,179.6,141.8,271.3
							C1773,2195.4,1789.9,2359.1,1755.8,2505.9z"/>
						<path class="st4" d="M1823.4,2355.6l-2.8-2.2c158-201.9,442.3-185.6,444.6-184.7l1.1,1.8l-1.4,1.6l-0.4-1.7l-0.4,1.7
							C2261.6,2171.6,1981.2,2153.9,1823.4,2355.6z M2264.2,2168.6l0.4,1.7L2264.2,2168.6z"/>
						<path class="st9" d="M1526.3,3091l-3.8-0.6c9.5-64.2-1.4-176.5-107.2-347.4c-5.7-9.1-5.7-9.1-5.4-10.3l3.7,1l-1.9-0.5l1.8-0.5
							c0.3,0.7,2.4,4.2,4.9,8.2C1525,2912.9,1535.9,3026.2,1526.3,3091z"/>
						<path class="st9" d="M1568.1,2972.8l-3.6-1.5c19.6-47.3,86-137,310.6-205.7c3.1-1,5.1-1.6,5.9-1.8l1.4,3.6
							c-0.8,0.3-2.8,0.9-6.1,1.9C1653.2,2837.5,1587.4,2926.1,1568.1,2972.8z"/>
					</g>
				</g>
			</g>
		</g>
		<g>
			<g>
				<path class="st10" d="M3277.6,3048.9l-2663.1-23v68.1c0,18.5,11.6,34.2,27.3,37l753,134.1c8.9,1.6,18,2,27,1.3l1826.7-152.9
					c16.3-1.4,28.9-17.1,28.9-36.1V3048.9z"/>
				<g>
					<path class="st10" d="M2297.6,2939.7L605,3064.3c-30.3,2.2-54.9-21.5-54.9-52.9V1751c0-31.5,24.6-57,54.9-57h1692.6
						c25,0,45.1,23.1,45.1,51.5v1139.4C2342.7,2913.3,2322.5,2937.9,2297.6,2939.7z"/>
					<path class="st0" d="M2324.5,2939.7L632,3064.3c-30.3,2.2-54.9-21.5-54.9-52.9V1751c0-31.5,24.6-57,54.9-57h1692.6
						c25,0,45.1,23.1,45.1,51.5v1139.4C2369.7,2913.3,2349.5,2937.9,2324.5,2939.7z"/>
					<path class="st11" d="M2271.8,2859.4L695.3,2967.6c-24.6,1.7-44.7-17.8-44.7-43.4V1820.7c0-25.7,20-46.6,44.7-46.7l1576.5-6.8
						c20.6-0.1,37.2,18.8,37.2,42.2v1005.1C2309.1,2837.9,2292.4,2858,2271.8,2859.4z"/>
					<path class="st0" d="M1538,1728.5c0,11.7-8.7,21.2-19.5,21.3c-10.8,0-19.5-9.5-19.5-21.2c0-11.7,8.7-21.3,19.5-21.3
						C1529.3,1707.3,1538,1716.8,1538,1728.5z"/>
					<path class="st12" d="M631.9,3064.3l1684-124l8.6-0.6c11.4-0.8,21.9-6.5,29.8-15.1c-121.2-6.6-196.5-49.6-245-94.1
						c-97.5-89.2-80.6-177.2-185.7-235.9c-131.2-73.2-234.3,19.5-333.8-71.9c-60.3-55.5-30.7-96.8-105-179.7
						c-82.2-91.8-135.8-60.9-218.4-143.6c-104.5-104.5-52.2-185.8-142.2-260.8c-109.2-91-226.9-6.8-330.9-94
						c-44.8-37.6-69.4-92.4-82.3-150.6H632c-30.3,0-54.9,25.5-54.9,57v1260.4C577,3042.8,601.7,3066.5,631.9,3064.3z"/>
				</g>
				<linearGradient id="SVGID_10_" gradientUnits="userSpaceOnUse" x1="614.5016" y1="3068.4939" x2="3277.573" y2="3068.4939">
					<stop  offset="0.494" style="stop-color:#EBEFF2"/>
					<stop  offset="1" style="stop-color:#FFFFFF"/>
				</linearGradient>
				<path class="st13" d="M2404.3,2932.8L614.5,3063.9l780.4,139c8.9,1.6,18,2,27,1.3l1855.7-155.3l-844.8-115.2
					C2423.3,2932.4,2413.8,2932.1,2404.3,2932.8z"/>
				<polygon class="st11" points="875.7,3065.1 2365.7,2954.3 2826.9,3016.6 1349.7,3135.1 				"/>
			</g>
		</g>
		<g>
			<path class="st14" d="M2573.4,1502.9c0.5-51.8-36.1-94.3-82.5-94.9L839.4,1387c-1.8,0-3.5,0-5.3,0.1c-33.5,1.3-62.3,18.8-80,45.1
				c-11.1,16.6-17,36.6-17,58.4l0.1,75.2l0,0l1.6,1170.7c0,7.1,0.2,14,1.6,20.6c0.3,1.7,0.5,3.3,0.9,4.9c1.7,6.5,3.9,12.6,6.8,18.4
				c12.3,24.7,34.7,42.8,62,49.4c9.7,2.3,19.9,3.4,30.5,2.6l1254.6-89l0,0l383-27.4c46-3.3,83.3-47.4,83.8-98.5l10.8-1047.4l0,0
				L2573.4,1502.9z"/>
			<g>
				<path class="st0" d="M2538.2,1406.2l-1660.4-20.9c-57.4-0.7-104.1,45.8-104,103.9l1.4,1248.8c0.1,57.1,46.5,100.1,103.3,96.1
					l1646.5-116.5c46.3-3.3,84-47.4,84.6-98.5l11.9-1117.7C2622,1449.4,2584.8,1406.8,2538.2,1406.2z"/>
				<path class="st1" d="M878.4,2801.3c-38.6,2.7-70.1-26.7-70.2-65.4l-1.1-1246.5c0-39.4,31.7-71.1,70.7-70.7l1660.1,17.7
					c31.7,0.3,57.1,29.4,56.7,64.7l-11.7,1119.6c-0.4,34.8-26.2,64.9-57.7,67.1L878.4,2801.3z"/>
				<path class="st11" d="M2538.2,1406.2l-1660.4-20.9c-57.4-0.7-104.1,45.8-104,103.9l0.1,75.4l1846.9,4.2l0.7-67.4
					C2622,1449.4,2584.8,1406.8,2538.2,1406.2z"/>
				<path class="st0" d="M958.5,1480.3c0,18.8-15,34-33.6,33.9c-18.6-0.1-33.7-15.5-33.7-34.3c0-18.9,15.1-34,33.7-33.9
					C943.5,1446.1,958.5,1461.5,958.5,1480.3z"/>
				<path class="st0" d="M1075.5,1481.1c0,18.7-14.9,33.7-33.2,33.6c-18.4-0.1-33.3-15.4-33.3-34.1c0-18.8,14.9-33.8,33.3-33.6
					C1060.7,1447.2,1075.6,1462.4,1075.5,1481.1z"/>
				<path class="st0" d="M1191,1482c0,18.5-14.7,33.5-32.8,33.4c-18.1-0.1-32.8-15.3-32.8-33.9c0-18.6,14.8-33.6,32.9-33.4
					C1176.4,1448.2,1191,1463.4,1191,1482z"/>
				<linearGradient id="SVGID_11_" gradientUnits="userSpaceOnUse" x1="895.1129" y1="2103.6467" x2="2520.6375" y2="2103.6467">
					<stop  offset="0" style="stop-color:#FF9085"/>
					<stop  offset="1" style="stop-color:#FB6FBB"/>
				</linearGradient>
				<polygon class="st15" points="2514.4,2377 895.3,2456.5 895.1,1766 2520.6,1750.8 				"/>
				<polygon class="st11" points="2513.3,2484.6 895.4,2575 895.4,2522.4 2513.8,2436.8 				"/>
				<polygon class="st11" points="2512.1,2601.5 895.4,2703.9 895.4,2651.4 2512.6,2553.9 				"/>
				<g>
					<polygon class="st11" points="1782,1648.5 895.1,1650.8 895.1,1704 1781.8,1698.9 					"/>
					<polygon class="st11" points="2431.5,1646.7 2431,1695.2 2521.2,1694.7 2521.7,1646.5 					"/>
				</g>
				<g class="st16">
					<path class="st0" d="M1900.1,2050.2c-191.2-280.1-528.3-179.1-742.9-493c-39-57-65.4-115.4-83.6-169.5l-195.8-2.5
						c-57.4-0.7-104.1,45.8-104,103.9l1.4,1248.8c0.1,57.1,46.5,100.1,103.3,96.1l1261.2-89.2c-36.5-52.5-70.2-111.5-98.6-178.1
						C1931.3,2310.4,2014.5,2217.8,1900.1,2050.2z"/>
				</g>
				<path class="st0" d="M1542.4,2315.9l1.7-458.6c0.1-29.5,23.8-49.3,44.1-37l359.5,219c22.2,13.5,22,55.8-0.5,70.7l-361.2,240
					C1565.7,2363.5,1542.3,2345.3,1542.4,2315.9z"/>
			</g>
		</g>
		<g>
			
				<linearGradient id="SVGID_12_" gradientUnits="userSpaceOnUse" x1="3280.2302" y1="3139.0396" x2="3302.647" y2="3424.3423" gradientTransform="matrix(1 -2.400000e-03 2.400000e-03 1 -794.8005 3.3687)">
				<stop  offset="0" style="stop-color:#311944"/>
				<stop  offset="1" style="stop-color:#A03976"/>
			</linearGradient>
			<path class="st17" d="M2537,3276.7c0,0-90.1,41.2-91.6,47.8c-1.5,6.6,58-2.3,82.3-1.4c24.3,0.9,44.3-6.3,42-16.6
				c-2.2-10.3-10.8-36.1-10.8-36.1L2537,3276.7z"/>
			
				<linearGradient id="SVGID_13_" gradientUnits="userSpaceOnUse" x1="3338.1003" y1="3297.877" x2="3334.0249" y2="3002.3943" gradientTransform="matrix(1 -2.400000e-03 2.400000e-03 1 -794.8005 3.3687)">
				<stop  offset="0" style="stop-color:#FFC444"/>
				<stop  offset="0.9964" style="stop-color:#F36F56"/>
			</linearGradient>
			<path class="st18" d="M2533.6,3243.4l5.6,40.6c0,0,14.3,5.1,23.9-1l4-44.6L2533.6,3243.4z"/>
			
				<linearGradient id="SVGID_14_" gradientUnits="userSpaceOnUse" x1="3703.8477" y1="3105.7607" x2="3726.2637" y2="3391.0532" gradientTransform="matrix(1 -2.400000e-03 2.400000e-03 1 -794.8005 3.3687)">
				<stop  offset="0" style="stop-color:#311944"/>
				<stop  offset="1" style="stop-color:#A03976"/>
			</linearGradient>
			<path class="st19" d="M2958.6,3243.4l10.5,16.8c2.9,4.7,3.8,10.4,2.4,15.7c-3.6,14-10.9,41.3-14.1,48.5
				c-4.3,9.7-62.7,15.6-62.7,15.6s-5.2-7.3,6.9-16.2c12.1-8.9,19.9-10.3,24.1-23.4c4.2-13.1,7-50,7-50L2958.6,3243.4z"/>
			
				<linearGradient id="SVGID_15_" gradientUnits="userSpaceOnUse" x1="3726.3267" y1="3292.5222" x2="3722.2512" y2="2997.0303" gradientTransform="matrix(1 -2.400000e-03 2.400000e-03 1 -794.8005 3.3687)">
				<stop  offset="0" style="stop-color:#FFC444"/>
				<stop  offset="0.9964" style="stop-color:#F36F56"/>
			</linearGradient>
			<path class="st20" d="M2914.8,3200.7c3.8,3,22.7,59.9,22.7,59.9s6.1,7.7,17.6-3.7c11.5-11.5,5.2-5.2,5.2-5.2l-2.3-56
				L2914.8,3200.7z"/>
			
				<linearGradient id="SVGID_16_" gradientUnits="userSpaceOnUse" x1="3267.5801" y1="2819.1987" x2="3486.054" y2="2819.1987" gradientTransform="matrix(1 -2.400000e-03 2.400000e-03 1 -794.8005 3.3687)">
				<stop  offset="0" style="stop-color:#444B8C"/>
				<stop  offset="0.9964" style="stop-color:#3E4177"/>
			</linearGradient>
			<path class="st21" d="M2482,2427.3c-4.5,121.2-4.3,252.9,3,393.5c8.2,158.4,24.4,304.7,44.6,437.4c7.4,0.2,15.2,0.2,23.3,0
				c5.5-0.2,10.8-0.4,15.9-0.8c10.3-27.5,22.4-63.8,33.2-107c11.4-45.5,18.2-86.3,23-125.3c17-137.3-3.3-149.2,10.5-251
				c12.3-90.1,30-93.7,50.6-221.6c22.3-138.8,5.4-159.6-2.8-167.1C2648.3,2353.5,2566.5,2375.4,2482,2427.3z"/>
			
				<linearGradient id="SVGID_17_" gradientUnits="userSpaceOnUse" x1="3267.5796" y1="2819.2083" x2="3486.0525" y2="2819.2083" gradientTransform="matrix(1 -2.400000e-03 2.400000e-03 1 -794.8005 3.3687)">
				<stop  offset="0" style="stop-color:#444B8C"/>
				<stop  offset="0.9964" style="stop-color:#3E4177"/>
			</linearGradient>
			<path class="st22" d="M2683.2,2385.4c-33.3-30.5-109.3-11.8-189.5,35c92.6,99.6,102.9,164.3,91.9,206.4
				c-12.4,47.5-50.4,61.3-50.2,113.2c0.3,63.8,58,80.6,56.9,148.1c-0.7,44.7-26,44.3-31.9,99.4c-6.9,65.3,26.2,87.7,15.6,136
				c-4.6,20.8-17.6,48-55,76c2.7,19.8,5.6,39.4,8.5,58.7c7.4,0.2,15.2,0.2,23.3,0c5.5-0.2,10.8-0.4,15.9-0.8
				c10.3-27.5,22.4-63.8,33.2-107c11.4-45.5,18.2-86.3,23-125.3c17-137.3-3.3-149.2,10.5-251c12.3-90.1,30-93.7,50.6-221.6
				C2708.3,2413.7,2691.4,2392.9,2683.2,2385.4z"/>
			
				<linearGradient id="SVGID_18_" gradientUnits="userSpaceOnUse" x1="3328.2329" y1="2797.6626" x2="3768.0454" y2="2797.6626" gradientTransform="matrix(1 -2.400000e-03 2.400000e-03 1 -794.8005 3.3687)">
				<stop  offset="0" style="stop-color:#444B8C"/>
				<stop  offset="0.9964" style="stop-color:#3E4177"/>
			</linearGradient>
			<path class="st23" d="M2539.3,2425.2c79.8,116.2,166,260.9,243.2,434.1c58.3,130.9,100.7,253.9,131.8,363.4
				c4.2,1.9,14.1,5.8,26.6,4.1c17.2-2.3,27.4-13.3,30.1-16.4c12.4-78.6,10.8-145.2,6.5-193.3c-2.8-30.8-7.8-82-27.5-145.2
				c-22.1-70.8-37.2-74.7-66.1-149.6c-29.9-77.7-22.8-97.2-51.5-194.4c-11.8-40-31.5-99.4-64-170.6
				C2692,2380,2615.6,2402.6,2539.3,2425.2z"/>
			<linearGradient id="SVGID_19_" gradientUnits="userSpaceOnUse" x1="1906.2172" y1="3074.0593" x2="3302.3508" y2="1582.9481">
				<stop  offset="0" style="stop-color:#FFC444"/>
				<stop  offset="0.9964" style="stop-color:#F36F56"/>
			</linearGradient>
			<path class="st24" d="M2214.9,2261.2c0.8,28.3,47.2,53.2,84.7,60.8c87.5,17.9,189-45.7,237.1-116.1c9.5-13.8,20-30.6,22.5-29.3
				c5.7,2.9-46.9,89.4-69.7,187.7c-11.7,50.3-8.6,73.8-30.4,107.3c-4.9,7.6-11,15.5-8.9,24.5c5.4,22.5,56.8,28.3,92.4,32.4
				c37.6,4.3,72.7,3.9,107.4,3.4c55.5-0.8,59.9-3.7,72.6,2.5c38.6,19,36,64.4,65.1,70.4c24.4,5.1,49.2-22.2,57-30.8
				c40.8-44.9,38.6-99.1,45.9-153.7c16.8-127,85.8-266.2,153.4-354.3c20.5-26.7,34.7-40.8,35.6-65.6c2.6-72.9-112.9-153.4-209-162.6
				c-26.4-2.5-73.5-1.7-117.8,2.4c-17.7,1.7-36.5,4.1-56.7,7.7c-49.1,8.6-83.2,14.6-118,30.5c-140.4,64.2-109.7,207.2-261.7,306.1
				C2264,2218.4,2214.1,2231.6,2214.9,2261.2z"/>
			<linearGradient id="SVGID_20_" gradientUnits="userSpaceOnUse" x1="2792.5952" y1="1902.2181" x2="2745.9221" y2="2313.9382">
				<stop  offset="0" style="stop-color:#FFC444"/>
				<stop  offset="0.9964" style="stop-color:#F36F56"/>
			</linearGradient>
			<path class="st25" d="M2790.1,1762.1c0,0,6,33.6,19.9,57.6c12.5,21.6,64.4,29.4,75.2,33.2c10.8,3.8-16.3,22.6-45.1,29.4
				c-28.8,6.8-113.1,11.3-129.7,2.2c-16.5-9.1,10.7-11.8,30.6-22.3c19.8-10.4,26.5-52.8,20.3-70.8
				C2755.2,1773.4,2790.1,1762.1,2790.1,1762.1z"/>
			<g>
				
					<linearGradient id="SVGID_21_" gradientUnits="userSpaceOnUse" x1="4671.5273" y1="2572.3206" x2="4596.5669" y2="2381.9341" gradientTransform="matrix(0.9989 4.750000e-02 -4.750000e-02 0.9989 -1725.9976 -907.3022)">
					<stop  offset="0" style="stop-color:#444B8C"/>
					<stop  offset="0.9964" style="stop-color:#3E4177"/>
				</linearGradient>
				<path class="st26" d="M2735.3,1752.4c-20.9-14.9-26.7-55.4-15.1-64.4c3.3-2.6,6.5-1.4,53.7,17.5c23.4,9.4,35,14.4,38.8,24.8
					c2.3,6.3,1.9,14.9-0.6,21.6c-1.3,3.5-3.9,7.8-9.6,16c-5.1,7.3-4.7,7.1-6.3,9.2c-3.7,5.1-10.9,13.7-24.1,23.6
					c-0.7-3.7-1.9-8.3-3.8-13.4c-0.7-1.9-3.8-9.5-8.5-15.9C2751.5,1760.3,2742.1,1757.2,2735.3,1752.4z"/>
				<linearGradient id="SVGID_22_" gradientUnits="userSpaceOnUse" x1="2763.5278" y1="1740.689" x2="2800.1992" y2="2044.0609">
					<stop  offset="0" style="stop-color:#FFC444"/>
					<stop  offset="0.9964" style="stop-color:#F36F56"/>
				</linearGradient>
				<path class="st27" d="M2788.9,1790.8c0,0-13.7,20.4-39,17.6c-22.7-2.5-23.8-53.7-8.8-63.9c5-3.4,14.8-4.5,22.6-1.9
					c4.6,1.5,6.1,3.5,13.7,5.8c7,2.1,9,1.4,11.1,3.3c2.6,2.4,4.3,8-0.8,22.7c4.5-4.2,9.8-5.7,13.4-3.8c0.6,0.3,2.1,1.4,2.9,3.1
					C2806.9,1779.8,2801.3,1787,2788.9,1790.8z"/>
			</g>
			<linearGradient id="SVGID_23_" gradientUnits="userSpaceOnUse" x1="2228.6863" y1="2218.7026" x2="2582.5125" y2="2218.7026">
				<stop  offset="0" style="stop-color:#FFC444"/>
				<stop  offset="0.9964" style="stop-color:#F36F56"/>
			</linearGradient>
			<path class="st28" d="M2337.7,2256.8c63.4-14.3,88.7-13.8,120.1-39.1c52.2-42.1,60.1-106.1,90.4-105.4c14.3,0.4,26,15,34.3,29.4
				c-7.6,12-15.3,23.9-22.9,35.9c0-0.5-0.1-0.8-0.4-0.9c-2.5-1.3-13,15.4-22.5,29.3c-48.2,70.3-149.6,133.9-237.1,116.1
				c-25.1-5.1-54.2-18-70.9-34.5C2271.9,2272.9,2308.8,2263.3,2337.7,2256.8z"/>
			<linearGradient id="SVGID_24_" gradientUnits="userSpaceOnUse" x1="2196.1013" y1="2311.5308" x2="2067.8855" y2="2571.5247">
				<stop  offset="0" style="stop-color:#FFC444"/>
				<stop  offset="0.9964" style="stop-color:#F36F56"/>
			</linearGradient>
			<path class="st29" d="M2234.4,2327.6c0,0-35.8-3.6-57.1-12.7c-21.3-9.1-35.1,4-33.2,13.1c2,9.1,37.1,21.7,51.1,22.2
				C2209.2,2350.5,2234.4,2327.6,2234.4,2327.6z"/>
			<linearGradient id="SVGID_25_" gradientUnits="userSpaceOnUse" x1="2064.293" y1="3222.0669" x2="3460.425" y2="1730.9573">
				<stop  offset="0" style="stop-color:#FFC444"/>
				<stop  offset="0.9964" style="stop-color:#F36F56"/>
			</linearGradient>
			<path class="st30" d="M3005.4,2500.7c38.4,3.4,125,5,186.2-51.6c101.9-94.2,51.3-273.6,15.9-350.8
				c-40.7-88.5-105.4-138-144.7-168.1c-48.8-37.3-78.6-60.1-114.4-55c-92.7,13.2-156.8,203.1-106,257.5
				c16.7,17.8,33.1,7.7,81.3,23.1c15.7,5,132.8,42.3,153.2,128.6c14.3,60.4-22.1,131.1-86.7,178.6
				C2995.2,2475.5,3000.3,2488.1,3005.4,2500.7z"/>
			<linearGradient id="SVGID_26_" gradientUnits="userSpaceOnUse" x1="2453.6592" y1="2330.9294" x2="3179.5808" y2="2330.9294">
				<stop  offset="0" style="stop-color:#FFC444"/>
				<stop  offset="0.9964" style="stop-color:#F36F56"/>
			</linearGradient>
			<path class="st31" d="M2574.6,2469.5c43.5-27.5,50-55.4,98.7-74.2c63.3-24.5,93.7,6.6,125.1-18.5c37.3-29.9,4.3-81.9,32.2-172.2
				c4.7-15.3,40.8-131.7,123.5-146.5c38.6-6.9,89.5,7.9,109.1,40.5c15.4,25.6,1.1,44.6,19.7,72.9c18.7,28.2,41,21.3,64.8,44.8
				c37.8,37.4,43.6,116.1,9.5,160.7c-15.9,20.8-36.6,29-75.5,44.5c-23.8,9.4-45.8,15.3-64.8,19c47.6-45.7,72.3-104.6,60.2-156.1
				c-12.7-53.8-63-88.5-102.9-108.3c-39.9,75.1-72.5,162.2-83.4,244.2c-7.2,54.6-5.1,108.8-45.9,153.7c-7.9,8.6-32.6,35.9-57,30.8
				c-29.1-6.1-26.5-51.5-65.1-70.4c-12.7-6.2-17.1-3.3-72.6-2.5c-34.7,0.5-69.8,0.9-107.4-3.4c-31.7-3.6-75.8-8.6-88.9-25.5
				C2510.9,2501.4,2549.1,2485.6,2574.6,2469.5z"/>
			<g>
				<linearGradient id="SVGID_27_" gradientUnits="userSpaceOnUse" x1="2085.5879" y1="2384.2422" x2="2986.7153" y2="2384.2422">
					<stop  offset="0" style="stop-color:#444B8C"/>
					<stop  offset="0.9964" style="stop-color:#26264F"/>
				</linearGradient>
				<path class="st32" d="M2980.1,2531l4.5-13.2c7.1-21-4.6-43.4-26.2-50l-847-258l-25.8,87.5l842.7,259.6
					C2949.8,2563.5,2973,2551.9,2980.1,2531z"/>
				<linearGradient id="SVGID_28_" gradientUnits="userSpaceOnUse" x1="1254.5021" y1="2099.7969" x2="2184.2988" y2="2099.7969">
					<stop  offset="0" style="stop-color:#444B8C"/>
					<stop  offset="0.9964" style="stop-color:#26264F"/>
				</linearGradient>
				<path class="st33" d="M1269.7,1972.8c64.8-255.9,318.5-410,569.5-337.8c255.6,73.6,401.9,350.5,324.3,611.6
					c-75.8,254.9-335.9,392.4-578.5,313.8C1346.5,2483,1206.4,2222.8,1269.7,1972.8z M2089.7,2224
					c64.2-218.5-58.3-449.8-271.7-511.9c-210.2-61.2-423.8,67.2-478.9,282c-54.1,210.7,64,430.3,265.3,495
					C1808.8,2554.7,2026.8,2438.1,2089.7,2224z"/>
				<path class="st34" d="M2111.4,2209.8l108,32.9c7.4,34.4,21.8,54.2,36.3,66.2c54.6,45.2,127.4-4.1,229,48.9
					c51,26.6,41.3,43.5,89.1,62.1c79,30.7,115.2-11.8,185.1,16.1c70.7,28.3,77.7,89.3,117.8,87.1c17.2-0.9,39.3-13.4,63.9-60.8
					l17.7,5.4c21.6,6.6,33.3,29,26.2,50l-4.5,13.2c-7.1,20.9-30.3,32.5-51.8,25.9l-842.7-259.6L2111.4,2209.8z"/>
				
					<linearGradient id="SVGID_29_" gradientUnits="userSpaceOnUse" x1="-6762.8442" y1="3679.9197" x2="-7231.0122" y2="3155.7317" gradientTransform="matrix(-0.8705 0.4922 0.4922 0.8705 -6104.4209 2747.6741)">
					<stop  offset="0" style="stop-color:#444B8C"/>
					<stop  offset="0.9964" style="stop-color:#26264F"/>
				</linearGradient>
				<path class="st35" d="M1253.3,1994.7c64.8-255.9,318.5-410,569.5-337.8c255.6,73.6,401.9,350.5,324.3,611.6
					c-75.8,254.9-335.9,392.4-578.5,313.8C1330.1,2505,1190,2244.8,1253.3,1994.7z M2073.3,2245.9
					c64.2-218.5-58.3-449.8-271.7-511.9c-210.2-61.2-423.8,67.2-478.9,282c-54,210.7,64,430.3,265.3,495
					C1792.4,2576.7,2010.4,2460.1,2073.3,2245.9z"/>
				
					<linearGradient id="SVGID_30_" gradientUnits="userSpaceOnUse" x1="-7451.0552" y1="2914.575" x2="-6816.1035" y2="3613.5557" gradientTransform="matrix(-0.8705 0.4922 0.4922 0.8705 -6104.4209 2747.6741)">
					<stop  offset="0" style="stop-color:#444B8C"/>
					<stop  offset="0.9964" style="stop-color:#26264F"/>
				</linearGradient>
				<path class="st36" d="M1277.8,2002.2c61.4-241.3,300.9-386.3,537.5-318c240.6,69.5,378.5,330.3,305.6,576.2
					c-71.2,240.5-316.4,370.7-545.5,296.6C1350,2484.3,1217.8,2238.4,1277.8,2002.2z M2073.3,2245.9
					c64.2-218.5-58.3-449.8-271.7-511.9c-210.2-61.2-423.8,67.2-478.9,282c-54,210.7,64,430.3,265.3,495
					C1792.4,2576.7,2010.4,2460.1,2073.3,2245.9z"/>
			</g>
			
				<linearGradient id="SVGID_31_" gradientUnits="userSpaceOnUse" x1="-5620.9873" y1="754.0772" x2="-5603.3726" y2="654.3719" gradientTransform="matrix(-0.8553 -0.5182 -0.5182 0.8553 -1479.6936 -1003.974)">
				<stop  offset="0" style="stop-color:#FFC444"/>
				<stop  offset="0.9964" style="stop-color:#F36F56"/>
			</linearGradient>
			<path class="st37" d="M3002.1,2492.6l-8.6-21.3c0,0-14,0.9-25.4-7.4c-6.2-4.5-17.3-5.8-20.6-4.9c-3.2,0.9-15.4,0.4-1.5,7
				c13.9,6.6,13.8,11.5,8,17c-5.8,5.4-27.8,17.1-35.7,17.7c-7.9,0.6,6.4,12.8,14.4,14.4c8,1.6,21.1,3.5,37.3-6
				C2975.9,2505.6,3002.1,2492.6,3002.1,2492.6z"/>
		</g>
		<g>
			<g>
				<linearGradient id="SVGID_32_" gradientUnits="userSpaceOnUse" x1="614.8931" y1="611.451" x2="1042.2812" y2="1656.7722">
					<stop  offset="0" style="stop-color:#AA80F9"/>
					<stop  offset="0.9964" style="stop-color:#6165D7"/>
				</linearGradient>
				<path class="st38" d="M1151.1,1751.3c-164.3,108.2-352.9,114.2-432.4,16.8l-0.1,0l-0.3-0.5c-3.2-4-6.4-8.1-9.2-12.4
					c-3.6-5.5-6.8-11.1-9.7-16.9l-92.1-143.1l-19.1-29.7l190-121c30.2-34,66.8-66,109-93.8c47.4-31.2,96.9-53.9,145.2-68.1
					l190.2-121.1l105.4,183.5c0.4,0.6,0.9,1.2,1.2,1.8c4.1,6.2,7.7,12.6,10.8,19.2c5,10.4,8.7,21.3,11.4,32.7
					C1377.1,1508.2,1297.6,1654.8,1151.1,1751.3z"/>
				<linearGradient id="SVGID_33_" gradientUnits="userSpaceOnUse" x1="969.0183" y1="1841.0919" x2="985.4169" y2="1385.4509">
					<stop  offset="0" style="stop-color:#AA80F9"/>
					<stop  offset="0.9964" style="stop-color:#6165D7"/>
				</linearGradient>
				<path class="st39" d="M1152,1752.6c-44.6,30.9-93.6,55.3-144.7,69c-52.5,14.1-124.9,23.1-178.5,10.1
					c-89.1-21.6-122.8-85.5-168.5-155.5c-17.6-27-37-52.9-53.1-80.8c53.5,1.5,118.9,29.2,165.3,54.1c40.2,21.6,76.8,52.2,120.8,65.9
					c97,30.2,212.7-14.9,275.4-91.7c38.4-46.9,36.7-115.8,83.1-157.5c30-27,71.6-37.8,99.3-67.5c-5,5.3,2.6,49.7,2.2,58.9
					c-0.9,21-4.3,41.8-10.4,61.9c-14.2,47.1-41.8,89.3-73.5,126.3C1235.9,1685.1,1196,1722,1152,1752.6z"/>
			</g>
			
				<linearGradient id="SVGID_34_" gradientUnits="userSpaceOnUse" x1="-1577.582" y1="-709.3553" x2="-1652.1383" y2="-153.1448" gradientTransform="matrix(0.8655 -0.5009 0.5009 0.8655 2472.9131 796.0114)">
				<stop  offset="0" style="stop-color:#AA80F9"/>
				<stop  offset="0.9964" style="stop-color:#6165D7"/>
			</linearGradient>
			<polygon class="st40" points="1369.3,1068.4 768.7,1108.1 435.2,1609 417.2,1619.4 421.7,1627.2 421.7,1627.2 1046,1586.1 
				1392.7,1065.3 1392.7,1065.3 1388.2,1057.5 			"/>
			
				<linearGradient id="SVGID_35_" gradientUnits="userSpaceOnUse" x1="-1588.1528" y1="-866.83" x2="-1685.5026" y2="370.2255" gradientTransform="matrix(0.8655 -0.5009 0.5009 0.8655 2472.9131 796.0114)">
				<stop  offset="0" style="stop-color:#AA80F9"/>
				<stop  offset="0.9964" style="stop-color:#6165D7"/>
			</linearGradient>
			<polygon class="st41" points="762.5,1097.4 415.6,1618.4 1040.2,1577.1 1387.1,1056.1 			"/>
			<g>
				<linearGradient id="SVGID_36_" gradientUnits="userSpaceOnUse" x1="688.6" y1="1942.594" x2="760.0616" y2="1274.5831">
					<stop  offset="0" style="stop-color:#FFC444"/>
					<stop  offset="0.9964" style="stop-color:#F36F56"/>
				</linearGradient>
				<path class="st42" d="M607.3,1933.9c-4.7,0-8.6-3.6-8.9-8.4l-19.1-308.7c-0.2-2.5,0.7-4.9,2.5-6.7l304.6-318.5
					c3.4-3.6,9-3.7,12.6-0.3c3.6,3.4,3.7,9,0.3,12.6l-302,315.7l18.9,304.8c0.3,4.9-3.4,9.1-8.3,9.4
					C607.7,1933.8,607.5,1933.9,607.3,1933.9z"/>
			</g>
			
				<linearGradient id="SVGID_37_" gradientUnits="userSpaceOnUse" x1="6559.0781" y1="2900.3164" x2="6601.8975" y2="2500.0498" gradientTransform="matrix(-0.9978 -6.640000e-02 -6.640000e-02 0.9978 7350.6958 -213.1073)">
				<stop  offset="0" style="stop-color:#FFC444"/>
				<stop  offset="0.9964" style="stop-color:#F36F56"/>
			</linearGradient>
			<path class="st43" d="M589.4,1916.6l7.1-10.8c2.7-4.1,7.4-6.4,12.3-6c4.9,0.4,9.2,3.5,11.2,8l4.5,12.1c1.3,2.9,1,6.1,0.8,9.3
				l-6.6,98.6c-0.1,2.1-8.5,3.3-19.8,2.5c-11.3-0.8-19.4-3-19.3-5.1l6.6-98.9C586.5,1922.8,587.5,1919.5,589.4,1916.6z"/>
		</g>
		<g>
			<g>
				<linearGradient id="SVGID_38_" gradientUnits="userSpaceOnUse" x1="2567.1919" y1="1205.2614" x2="2233.8997" y2="1110.9467">
					<stop  offset="0" style="stop-color:#311944"/>
					<stop  offset="1" style="stop-color:#A03976"/>
				</linearGradient>
				<path class="st44" d="M2309.6,1181.2c10.7,5.4,24.1,0.4,30-11.1c5.9-11.6,2-25.3-8.7-30.7c-0.6-0.3-1.1-0.5-1.7-0.7
					c2-6.4,3.5-12.8,4.5-19.3c0.6,0,1.2,0,1.8-0.1c12.2-1.1,21.8-12.3,21.6-25c-0.3-12.7-10.3-22.1-22.5-21.1
					c-0.6,0.1-1.3,0.2-1.9,0.3c-1.3-6.3-3-12.5-5.2-18.4c0.6-0.3,1.1-0.7,1.7-1c10.4-7.3,13.7-21.7,7.4-32.2
					c-6.3-10.5-19.9-13-30.3-5.7c-0.5,0.4-1,0.8-1.5,1.2c-4.1-4.5-8.6-8.8-13.5-12.6c0.3-0.6,0.7-1.1,1-1.7
					c5.9-11.6,13.5-24.2,2.8-29.4c-24.9-12.1-35.6-1.7-41.4,9.8c-0.3,0.6-0.6,1.2-0.8,1.8c-6-1.7-12.1-2.8-18.2-3.5
					c0-0.6,0.1-1.3,0.1-1.9c-0.3-12.7,3.5-19.6-8.7-19.8c-26.7-0.5-35.6,11.1-35.4,23.8c0,0.7,0.1,1.3,0.1,2
					c-6.1,1.7-12.1,4-17.9,6.7c-0.3-0.6-0.6-1.1-0.9-1.7c-6.3-10.5-19.9-13-30.3-5.7c-10.4,7.3-13.7,21.7-7.4,32.2
					c0.3,0.5,0.7,1,1,1.5c-4.6,4.6-8.9,9.6-12.9,15c-0.5-0.3-1-0.6-1.6-0.9c-10.7-5.4-24.1-0.4-30,11.1c-5.9,11.6-2,25.3,8.7,30.7
					c0.6,0.3,1.1,0.5,1.7,0.7c-2,6.4-3.5,12.8-4.5,19.3c-0.6,0-1.2,0-1.8,0.1c-12.2,1.1-21.8,12.3-21.6,25
					c0.3,12.7,10.3,22.1,22.5,21.1c0.6-0.1,1.3-0.2,1.9-0.3c1.3,6.3,3,12.5,5.2,18.4c-0.6,0.3-1.1,0.7-1.7,1
					c-10.4,7.3-13.7,21.7-7.4,32.2c6.3,10.5,27.2,15.3,37.6,8c0.5-0.4-6.3-3.1-5.8-3.5c4.1,4.5,8.6,8.8,13.5,12.6
					c-0.3,0.6-0.7,1.1-1,1.7c-5.9,11.6-2,25.3,8.7,30.7c10.7,5.4,24.1,0.4,30-11.1c0.3-0.6,0.6-1.2,0.8-1.8c6,1.7,12.1,2.8,18.2,3.5
					c0,0.6-0.1,1.3-0.1,1.9c0.3,12.7,10.3,22.1,22.5,21.1c12.2-1.1,21.8-12.3,21.6-25c0-0.7-0.1-1.3-0.1-2c6.1-1.7,12.1-4,17.9-6.7
					c0.3,0.6,0.6,1.1,0.9,1.7c6.3,10.5,19.9,13,30.3,5.7c10.4-7.3,13.7-21.7,7.4-32.2c-0.3-0.5-0.7-1-1-1.5c4.6-4.6,8.9-9.6,12.9-15
					C2308.5,1180.6,2309,1181,2309.6,1181.2z M2176.5,1182.9c-38.8-19.7-52.9-69.6-31.6-111.6c21.3-42,70-60,108.7-40.4
					c38.8,19.7,52.9,69.6,31.6,111.6C2264,1184.5,2215.3,1202.6,2176.5,1182.9z"/>
				<linearGradient id="SVGID_39_" gradientUnits="userSpaceOnUse" x1="2566.3181" y1="1208.3481" x2="2233.0251" y2="1114.0332">
					<stop  offset="0" style="stop-color:#311944"/>
					<stop  offset="1" style="stop-color:#A03976"/>
				</linearGradient>
				<path class="st45" d="M2335.5,1119.3c12.2-1.1,21.8-12.3,21.6-25c-0.3-12.7-10.3-22.1-22.5-21.1c-0.6,0.1-1.3,0.2-1.9,0.3
					c-1.3-6.3-3-12.5-5.2-18.4c0.6-0.3,1.1-0.7,1.7-1c10.4-7.3,23.3-24.9,16-34.7c-14-18.5-28.4-10.5-38.8-3.2
					c-0.5,0.4-1,0.8-1.5,1.2c-4.1-4.5-8.6-8.8-13.5-12.6c0.3-0.6,0.7-1.1,1-1.7c3.2-6.3,3.5-13.2,1.4-19.1
					c-10.1,17.7-20,35.5-29.7,53.4c30.9,22.7,40.8,67.3,21.4,105.4c-16.4,32.3-48.9,50.4-80.7,48.1c-1.4,3.7-2.8,7.4-4.3,11
					c-4.1,9.9-8.8,19.6-13.5,29.2c2.9,0.6,5.9,1,8.9,1.3c0,0.6-0.1,1.3-0.1,1.9c0.3,12.7,8,23.5,30,22.4
					c12.2-0.6,14.3-13.6,14.1-26.3c0-0.7-0.1-1.3-0.1-2c6.1-1.7,12.1-4,17.9-6.7c0.3,0.6,0.6,1.1,0.9,1.7
					c6.3,10.5,28.2,14.9,38.6,7.6c10.4-7.3,5.4-23.6-0.9-34.1c-0.3-0.5-0.7-1-1-1.5c4.6-4.6,8.9-9.6,12.9-15c0.5,0.3,1,0.6,1.6,0.9
					c10.7,5.4,24.1,0.4,30-11.1c5.9-11.6,2-25.3-8.7-30.7c-0.6-0.3-1.1-0.5-1.7-0.7c2-6.4,3.5-12.8,4.5-19.3
					C2334.2,1119.4,2334.8,1119.3,2335.5,1119.3z"/>
				<linearGradient id="SVGID_40_" gradientUnits="userSpaceOnUse" x1="2225.1646" y1="994.6387" x2="2230.3767" y2="1415.5132">
					<stop  offset="0" style="stop-color:#FF9085"/>
					<stop  offset="1" style="stop-color:#FB6FBB"/>
				</linearGradient>
				<path class="st46" d="M2321.1,1182.6c10.7,5.4,24.1,0.4,30-11.1c5.9-11.6,2-25.3-8.7-30.7c-0.6-0.3-1.1-0.5-1.7-0.7
					c2-6.4,3.5-12.8,4.5-19.3c0.6,0,1.2,0,1.8-0.1c12.2-1.1,21.8-12.3,21.6-25c-0.3-12.7-10.3-22.1-22.5-21.1
					c-0.6,0.1-1.3,0.2-1.9,0.3c-1.3-6.3-3-12.5-5.2-18.4c0.6-0.3,1.1-0.7,1.7-1c10.4-7.3,13.7-21.7,7.4-32.2
					c-6.3-10.5-19.9-13-30.3-5.7c-0.5,0.4-1,0.8-1.5,1.2c-4.1-4.5-8.6-8.8-13.5-12.6c0.3-0.6,0.7-1.1,1-1.7
					c5.9-11.6,2-25.3-8.7-30.7c-10.7-5.4-24.1-0.4-30,11.1c-0.3,0.6-0.6,1.2-0.8,1.8c-6-1.7-12.1-2.8-18.2-3.5
					c0-0.6,0.1-1.3,0.1-1.9c-0.3-12.7-10.3-22.1-22.5-21.1c-12.2,1.1-21.8,12.3-21.6,25c0,0.7,0.1,1.3,0.1,2
					c-6.1,1.7-12.1,4-17.9,6.7c-0.3-0.6-0.6-1.1-0.9-1.7c-6.3-10.5-19.9-13-30.3-5.7c-10.4,7.3-13.7,21.7-7.4,32.2
					c0.3,0.5,0.7,1,1,1.5c-4.6,4.6-8.9,9.6-12.9,15c-0.5-0.3-1-0.6-1.6-0.9c-10.7-5.4-24.1-0.4-30,11.1c-5.9,11.6-2,25.3,8.7,30.7
					c0.6,0.3,1.1,0.5,1.7,0.7c-2,6.4-3.5,12.8-4.5,19.3c-0.6,0-1.2,0-1.8,0.1c-12.2,1.1-21.8,12.3-21.6,25
					c0.3,12.7,10.3,22.1,22.5,21.1c0.6-0.1,1.3-0.2,1.9-0.3c1.3,6.3,3,12.5,5.2,18.4c-0.6,0.3-1.1,0.7-1.7,1
					c-10.4,7.3-13.7,21.7-7.4,32.2c6.3,10.5,19.9,13,30.3,5.7c0.5-0.4,1-0.8,1.5-1.2c4.1,4.5,8.6,8.8,13.5,12.6
					c-0.3,0.6-0.7,1.1-1,1.7c-5.9,11.6-2,25.3,8.7,30.7s24.1,0.4,30-11.1c0.3-0.6,0.6-1.2,0.8-1.8c6,1.7,12.1,2.8,18.2,3.5
					c0,0.6-0.1,1.3-0.1,1.9c0.3,12.7,10.3,22.1,22.5,21.1c12.2-1.1,21.8-12.3,21.6-25c0-0.7-0.1-1.3-0.1-2c6.1-1.7,12.1-4,17.9-6.7
					c0.3,0.6,0.6,1.1,0.9,1.7c6.3,10.5,19.9,13,30.3,5.7c10.4-7.3,13.7-21.7,7.4-32.2c-0.3-0.5-0.7-1-1-1.5c4.6-4.6,8.9-9.6,12.9-15
					C2320,1182,2320.5,1182.3,2321.1,1182.6z M2188,1184.2c-38.8-19.7-52.9-69.6-31.6-111.6c21.3-42,70-60,108.7-40.4
					c38.8,19.7,52.9,69.6,31.6,111.6C2275.4,1185.8,2226.7,1203.9,2188,1184.2z"/>
			</g>
			<g>
				<linearGradient id="SVGID_41_" gradientUnits="userSpaceOnUse" x1="2385.2676" y1="1089.6233" x2="1732.3859" y2="904.8715">
					<stop  offset="0" style="stop-color:#311944"/>
					<stop  offset="1" style="stop-color:#A03976"/>
				</linearGradient>
				<path class="st47" d="M1880.6,1042.6c20.9,10.6,47.2,0.9,58.7-21.8c11.5-22.6,3.9-49.6-17-60.2c-1.1-0.6-2.2-1-3.3-1.5
					c3.9-12.5,6.8-25.2,8.8-37.8c1.2,0,2.4,0,3.6-0.1c23.9-2.1,42.8-24,42.3-49c-0.5-24.9-20.2-43.4-44.1-41.3
					c-1.2,0.1-2.5,0.3-3.7,0.5c-2.5-12.3-5.9-24.4-10.2-36.1c1.1-0.6,2.2-1.3,3.3-2.1c20.4-14.3,26.9-42.5,14.6-63
					c-12.4-20.5-38.9-25.6-59.3-11.3c-1,0.7-2,1.5-3,2.3c-8.1-8.9-16.9-17.2-26.5-24.7c0.7-1.1,1.3-2.2,1.9-3.4
					c11.5-22.6,26.5-47.4,5.4-57.7c-48.7-23.8-69.7-3.4-81.2,19.2c-0.6,1.2-1.1,2.4-1.6,3.6c-11.7-3.3-23.6-5.5-35.6-6.8
					c0.1-1.3,0.1-2.5,0.1-3.8c-0.5-24.9,6.9-38.4-17.1-38.9c-52.2-1-69.8,21.6-69.3,46.6c0,1.3,0.1,2.6,0.3,3.8
					c-12,3.4-23.7,7.8-35.2,13c-0.5-1.1-1.1-2.2-1.8-3.3c-12.4-20.5-38.9-25.6-59.3-11.3s-26.9,42.5-14.6,63c0.6,1.1,1.3,2,2,3
					c-9,9-17.5,18.9-25.3,29.4c-1-0.6-2-1.3-3.1-1.8c-20.9-10.6-47.2-0.9-58.7,21.8c-11.5,22.6-3.9,49.6,17,60.2
					c1.1,0.6,2.2,1,3.3,1.5c-3.9,12.5-6.8,25.2-8.8,37.8c-1.2,0-2.4,0-3.6,0.1c-23.9,2.1-42.8,24-42.3,49
					c0.5,24.9,20.2,43.4,44.1,41.3c1.2-0.1,2.5-0.3,3.7-0.5c2.5,12.3,5.9,24.4,10.2,36.1c-1.1,0.6-2.2,1.3-3.3,2.1
					c-20.4,14.3-26.9,42.5-14.6,63c12.4,20.5,53.3,30,73.7,15.7c1-0.7-12.3-6-11.4-6.8c8.1,8.9,16.9,17.2,26.5,24.7
					c-0.7,1.1-1.3,2.2-1.9,3.4c-11.5,22.6-3.9,49.6,17,60.2c20.9,10.6,47.2,0.9,58.7-21.8c0.6-1.2,1.1-2.4,1.6-3.6
					c11.7,3.3,23.6,5.5,35.6,6.8c-0.1,1.3-0.1,2.5-0.1,3.8c0.5,24.9,20.2,43.4,44.1,41.3c23.9-2.1,42.8-24,42.3-49
					c0-1.3-0.1-2.6-0.3-3.8c12-3.4,23.7-7.8,35.2-13c0.5,1.1,1.1,2.2,1.8,3.3c12.4,20.5,38.9,25.6,59.3,11.3
					c20.4-14.3,26.9-42.5,14.6-63c-0.6-1-1.3-2-2-3c9-9,17.5-18.9,25.3-29.4C1878.5,1041.4,1879.5,1042,1880.6,1042.6z M1620,1045.9
					c-75.9-38.5-103.6-136.4-61.9-218.6c41.7-82.2,137.1-117.6,213-79c75.9,38.5,103.6,136.4,61.9,218.6
					C1791.3,1049,1695.9,1084.4,1620,1045.9z"/>
				<linearGradient id="SVGID_42_" gradientUnits="userSpaceOnUse" x1="2383.5554" y1="1095.6697" x2="1730.6729" y2="910.9175">
					<stop  offset="0" style="stop-color:#311944"/>
					<stop  offset="1" style="stop-color:#A03976"/>
				</linearGradient>
				<path class="st48" d="M1931.4,921.2c23.9-2.1,42.8-24,42.3-49c-0.5-24.9-20.2-43.4-44.1-41.3c-1.2,0.1-2.5,0.3-3.7,0.5
					c-2.5-12.3-5.9-24.4-10.2-36.1c1.1-0.6,2.2-1.3,3.3-2.1c20.4-14.3,45.7-48.8,31.3-68c-27.3-36.3-55.6-20.6-76-6.3
					c-1,0.7-2,1.5-3,2.3c-8.1-8.9-16.9-17.2-26.5-24.7c0.7-1.1,1.3-2.2,1.9-3.4c6.3-12.3,6.8-25.9,2.7-37.5
					c-19.7,34.7-39.2,69.5-58.3,104.6c60.6,44.4,79.8,131.8,42,206.4c-32.1,63.2-95.8,98.7-158.1,94.2c-2.8,7.2-5.5,14.4-8.5,21.6
					c-8.1,19.4-17.2,38.3-26.4,57.3c5.8,1.1,11.6,1.9,17.4,2.6c-0.1,1.3-0.1,2.5-0.1,3.8c0.5,24.9,15.6,46.1,58.9,43.8
					c23.9-1.3,28-26.6,27.5-51.5c0-1.3-0.1-2.6-0.3-3.8c12-3.4,23.7-7.8,35.2-13c0.5,1.1,1.1,2.2,1.8,3.3
					c12.4,20.5,55.2,29.2,75.6,14.9c20.4-14.3,10.6-46.2-1.7-66.7c-0.6-1.1-1.3-2-2-3c9-9,17.5-18.9,25.3-29.4c1,0.6,2,1.3,3.1,1.8
					c20.9,10.6,47.2,0.9,58.7-21.8c11.5-22.6,3.9-49.6-17-60.2c-1.1-0.6-2.2-1-3.3-1.5c3.9-12.5,6.8-25.2,8.8-37.8
					C1928.9,921.4,1930.1,921.3,1931.4,921.2z"/>
				<linearGradient id="SVGID_43_" gradientUnits="userSpaceOnUse" x1="1715.2751" y1="677.0371" x2="1725.4849" y2="1501.4827">
					<stop  offset="0" style="stop-color:#FF9085"/>
					<stop  offset="1" style="stop-color:#FB6FBB"/>
				</linearGradient>
				<path class="st49" d="M1903.1,1045.1c20.9,10.6,47.2,0.9,58.7-21.8c11.5-22.6,3.9-49.6-17-60.2c-1.1-0.5-2.2-1-3.3-1.5
					c3.9-12.5,6.8-25.2,8.8-37.8c1.2,0,2.4,0,3.6-0.1c23.9-2.1,42.8-24,42.3-49c-0.5-24.9-20.2-43.4-44.1-41.3
					c-1.2,0.1-2.5,0.3-3.7,0.5c-2.5-12.3-5.9-24.4-10.2-36.1c1.1-0.6,2.2-1.3,3.3-2.1c20.4-14.3,26.9-42.5,14.6-63
					c-12.4-20.5-38.9-25.6-59.3-11.3c-1,0.7-2,1.5-3,2.3c-8.1-8.9-16.9-17.2-26.5-24.7c0.7-1.1,1.3-2.2,1.9-3.4
					c11.5-22.6,3.9-49.6-17-60.2c-20.9-10.6-47.2-0.9-58.7,21.8c-0.6,1.2-1.1,2.4-1.6,3.6c-11.7-3.3-23.6-5.5-35.6-6.8
					c0.1-1.3,0.1-2.5,0.1-3.8c-0.5-24.9-20.2-43.4-44.1-41.3c-23.9,2.1-42.8,24-42.3,49c0,1.3,0.1,2.6,0.3,3.8
					c-12,3.4-23.7,7.8-35.2,13c-0.5-1.1-1.1-2.2-1.8-3.3c-12.4-20.5-38.9-25.6-59.3-11.3c-20.4,14.3-26.9,42.5-14.6,63
					c0.6,1.1,1.3,2,2,3c-9,9-17.5,18.9-25.3,29.4c-1-0.6-2-1.3-3.1-1.8c-20.9-10.6-47.2-0.9-58.7,21.8c-11.5,22.6-3.9,49.6,17,60.2
					c1.1,0.6,2.2,1,3.3,1.5c-3.9,12.5-6.8,25.2-8.8,37.8c-1.2,0-2.4,0-3.6,0.1c-23.9,2.1-42.8,24-42.3,49
					c0.5,24.9,20.2,43.4,44.1,41.3c1.2-0.1,2.5-0.3,3.7-0.5c2.5,12.3,5.9,24.4,10.2,36.1c-1.1,0.6-2.2,1.3-3.3,2.1
					c-20.4,14.3-26.9,42.5-14.6,63c12.4,20.5,38.9,25.6,59.3,11.3c1-0.7,2-1.5,3-2.3c8.1,8.9,16.9,17.2,26.5,24.7
					c-0.7,1.1-1.3,2.2-1.9,3.4c-11.5,22.6-3.9,49.6,17,60.2s47.2,0.9,58.7-21.8c0.6-1.2,1.1-2.4,1.6-3.6c11.7,3.3,23.6,5.5,35.6,6.8
					c-0.1,1.3-0.1,2.5-0.1,3.8c0.5,24.9,20.2,43.4,44.1,41.3c23.9-2.1,42.8-24,42.3-49c0-1.3-0.1-2.6-0.3-3.8
					c12-3.4,23.7-7.8,35.2-13c0.5,1.1,1.1,2.2,1.8,3.3c12.4,20.5,38.9,25.6,59.3,11.3c20.4-14.3,26.9-42.5,14.6-63c-0.6-1-1.3-2-2-3
					c9-9,17.5-18.9,25.3-29.4C1901,1044,1902,1044.6,1903.1,1045.1z M1642.5,1048.4c-75.9-38.5-103.6-136.4-61.9-218.6
					c41.7-82.2,137.1-117.6,213-79c75.9,38.5,103.6,136.4,61.9,218.6C1813.8,1051.6,1718.4,1087,1642.5,1048.4z"/>
			</g>
		</g>
	</g>
</g>
</svg>
