<?xml version="1.0" encoding="utf-8"?>
<!-- Generator: Adobe Illustrator 25.1.0, SVG Export Plug-In . SVG Version: 6.00 Build 0)  -->
<svg version="1.1" xmlns="http://www.w3.org/2000/svg" xmlns:xlink="http://www.w3.org/1999/xlink" x="0px" y="0px"
	 viewBox="0 0 3710 3710" style="enable-background:new 0 0 3710 3710;" xml:space="preserve">
<style type="text/css">
	.st0{fill:#FFFFFF;}
	.st1{fill:#F4F7FA;}
	.st2{fill:url(#SVGID_1_);}
	.st3{fill:url(#SVGID_2_);}
	.st4{fill:url(#SVGID_3_);}
	.st5{opacity:0.28;fill:#FFFFFF;}
	.st6{fill:url(#SVGID_4_);}
	.st7{opacity:0.7;clip-path:url(#SVGID_6_);fill:#FFFFFF;}
	.st8{opacity:0.5;clip-path:url(#SVGID_9_);fill:#FFFFFF;}
	.st9{fill:url(#SVGID_10_);}
	.st10{fill:url(#SVGID_11_);}
	.st11{fill:url(#SVGID_12_);}
	.st12{fill:#97A6B7;}
	.st13{fill:url(#SVGID_13_);}
	.st14{opacity:0.3;fill:url(#SVGID_14_);}
	.st15{fill:url(#SVGID_15_);}
	.st16{fill:#26264F;}
	.st17{fill:#D8DEE8;}
	.st18{fill:url(#SVGID_16_);}
	.st19{fill:url(#SVGID_17_);}
	.st20{fill:url(#SVGID_18_);}
	.st21{fill:url(#SVGID_19_);}
	.st22{fill:url(#SVGID_20_);}
	.st23{fill:url(#SVGID_21_);}
	.st24{fill:url(#SVGID_22_);}
	.st25{fill:url(#SVGID_23_);}
	.st26{fill:url(#SVGID_24_);}
	.st27{fill:url(#SVGID_25_);}
	.st28{opacity:0.3;fill:url(#SVGID_26_);}
	.st29{opacity:0.3;fill:url(#SVGID_27_);}
	.st30{fill:url(#SVGID_28_);}
	.st31{fill:url(#SVGID_29_);}
	.st32{fill:url(#SVGID_30_);}
	.st33{fill:url(#SVGID_31_);}
	.st34{fill:url(#SVGID_32_);}
</style>
<g id="Background">
	<g>
		<g>
			<rect class="st0" width="3710" height="3710"/>
		</g>
	</g>
</g>
<g id="Illustration">
	<g>
		<path class="st1" d="M2996.5,1066.2c-41.1-56.2-392.8-521.2-962.8-498.6c-28.5,1.1-584.5,30.5-789.5,395
			c-151.7,269.6,8.9,508.9-176.2,692.6c-161.2,160.1-359.4,54.1-458.5,183.6c-150.9,197.2,89.4,729.7,458.8,1026.7
			c381.3,306.7,1110.9,531.6,1678,122.5C3382.8,2528.6,3376.3,1586.2,2996.5,1066.2z"/>
		<g>
			<linearGradient id="SVGID_1_" gradientUnits="userSpaceOnUse" x1="3208.7061" y1="380.6023" x2="2530.7075" y2="970.2891">
				<stop  offset="0" style="stop-color:#AA80F9"/>
				<stop  offset="0.9964" style="stop-color:#6165D7"/>
			</linearGradient>
			<path class="st2" d="M2292,494.3l11.9,60.8c-26.5,10.5-51.8,23.1-75.5,37.7l-40.6-46.6c-11.1-12.7-30.4-13.9-43.1-2.7l-79.8,70.4
				c-12.8,11.3-14.2,30.7-3.1,43.5l40.9,47.2c-17.6,22.1-33.3,45.7-46.9,70.5l-59.3-20.2c-16-5.4-33.5,3.3-39,19.5l-35,101.5
				c-5.6,16.3,2.8,33.9,18.8,39.4l59.5,20.3c-4.4,27.8-6.4,56.2-6,84.9l-62.2,12.7c-16.7,3.4-27.7,19.9-24.5,36.8l19.8,106
				c3.2,17,19.3,28,36.1,24.6l62.4-12.7c10.1,27,22.3,52.8,36.6,77l-48,42.6c-12.9,11.5-14.4,31.4-3.2,44.5l70,82
				c11.2,13.1,30.8,14.4,43.8,2.9l48-42.8c22,18.1,45.5,34.2,70.3,48.1l-20.6,61.4c-5.6,16.6,3,34.7,19.3,40.3l101.7,35.2
				c16.3,5.6,34-3.3,39.5-19.9l20.3-60.9c27.9,4.4,56.4,6.3,85.3,5.7l12.3,63c3.4,17.3,19.8,28.5,36.7,25l105.7-21.5
				c16.9-3.4,27.8-20.2,24.4-37.5l-12.4-62.5c27.1-10.6,52.9-23.5,77.1-38.5l41.2,47.5c11.4,13.2,31.2,14.5,44,2.9l80.5-72.4
				c12.9-11.6,14-31.6,2.6-44.7l-41-47.1c17.9-22.8,33.8-47.1,47.5-72.7l58.4,20c16.3,5.6,33.9-3.3,39.3-19.8l33.6-103.1
				c5.4-16.5-3.5-34.3-19.8-39.8l-57.9-19.7c4.1-28.4,5.7-57.5,4.8-86.8l59.7-12.2c16.8-3.4,27.5-19.9,24-36.8l-21.9-105.6
				c-3.5-16.8-19.9-27.7-36.6-24.3l-59.5,12.1c-10.7-27.2-23.5-53-38.3-77.3l45.2-40.3c12.7-11.3,13.8-30.9,2.5-43.7l-70.7-80
				c-11.3-12.8-30.7-14-43.4-2.7l-45.5,40.4c-22.3-17.7-46-33.5-71-47l19.3-57.9c5.4-16.1-3.3-33.5-19.3-38.9l-100.3-33.6
				c-16-5.4-33.4,3.3-38.8,19.4l-19.5,58c-27.6-4.1-55.8-5.7-84.4-4.8l-12-60.3c-3.3-16.6-19.4-27.3-35.9-23.9l-103.6,21.1
				C2299.6,461.5,2288.8,477.7,2292,494.3z M2173.9,1070.9c-32.6-170.5,77.3-335.8,245.3-370.1c168-34.3,332,75.2,366.4,245.3
				c34.6,171.2-74.8,338.8-244.7,373.4C2371.1,1354.3,2206.7,1242.5,2173.9,1070.9z"/>
			<linearGradient id="SVGID_2_" gradientUnits="userSpaceOnUse" x1="3129.0603" y1="1376.3788" x2="1105.8306" y2="150.6279">
				<stop  offset="0" style="stop-color:#AA80F9"/>
				<stop  offset="0.9964" style="stop-color:#6165D7"/>
			</linearGradient>
			<path class="st3" d="M3071.8,928.6L3049.9,823c-3.5-16.8-19.9-27.7-36.6-24.3l-59.5,12.1c-10.7-27.2-23.5-53-38.3-77.3l45.2-40.3
				c12.7-11.3,13.8-30.9,2.5-43.7l-70.7-80c-11.3-12.8-30.7-14-43.4-2.7l-45.5,40.4c-22.3-17.7-46-33.5-71-47l19.3-57.9
				c5.4-16.1-3.3-33.5-19.3-38.9l-100.3-33.6c-16-5.4-33.4,3.3-38.8,19.4l-19.5,58c-27.6-4.1-55.8-5.7-84.4-4.8l-12-60.3
				c-3.3-16.6-19.4-27.3-35.9-23.9l-103.6,21.1c-16.6,3.4-27.4,19.6-24.1,36.2l11.9,60.8c-26.5,10.5-51.8,23.1-75.5,37.7l-40.6-46.6
				c-11.1-12.7-30.4-13.9-43.1-2.7l-79.8,70.4c-12.8,11.3-14.2,30.7-3.1,43.5l40.9,47.2c-17.6,22.1-33.3,45.7-46.9,70.5l-59.3-20.2
				c-16-5.4-33.5,3.3-39,19.5l-35,101.5c-5.6,16.3,2.8,33.9,18.8,39.4l59.5,20.3c-4.4,27.8-6.4,56.2-6,84.9l-62.2,12.7
				c-16.7,3.4-27.7,19.9-24.5,36.8l19.8,106c3.2,17,19.3,28,36.1,24.6l62.4-12.7c10.1,27,22.3,52.8,36.6,77l-48,42.6
				c-12.9,11.5-14.4,31.4-3.2,44.5l70,82c11.2,13.1,30.8,14.4,43.8,2.9l48-42.8c22,18.1,45.5,34.2,70.3,48.1L2245,1485
				c-5.6,16.6,3,34.7,19.3,40.3l101.7,35.2c16.3,5.6,34-3.3,39.5-19.9l20.3-60.9c27.9,4.4,56.4,6.3,85.3,5.7l12.3,63
				c3.4,17.3,19.8,28.5,36.7,25l105.7-21.5c16.9-3.4,27.8-20.2,24.4-37.5l-12.4-62.5c27.1-10.6,52.9-23.5,77.1-38.5l41.2,47.5
				c11.4,13.2,31.1,14.5,44,2.9l80.5-72.4c12.9-11.6,14-31.6,2.6-44.7l-41-47.1c17.9-22.8,33.8-47.1,47.5-72.7l58.4,20
				c16.3,5.6,33.9-3.3,39.3-19.8l33.6-103.1c5.4-16.5-3.5-34.3-19.8-39.8l-57.9-19.7c4.1-28.4,5.7-57.5,4.8-86.8l59.7-12.2
				C3064.6,962,3075.3,945.5,3071.8,928.6z M2562.9,1300.8c-169.9,34.6-334.3-77.1-367.1-248.7c-32.6-170.5,77.3-335.8,245.3-370.1
				c168-34.3,332,75.2,366.4,245.3C2842.3,1098.6,2732.8,1266.2,2562.9,1300.8z"/>
		</g>
		<g>
			<g>
				
					<linearGradient id="SVGID_3_" gradientUnits="userSpaceOnUse" x1="1927.1049" y1="1701.7649" x2="1200.6481" y2="2524.3694" gradientTransform="matrix(0.9895 -0.1447 0.1447 0.9895 -639.3816 136.1145)">
					<stop  offset="3.597120e-03" style="stop-color:#E38DDD"/>
					<stop  offset="1" style="stop-color:#9571F6"/>
				</linearGradient>
				<path class="st4" d="M2174.1,2757.7c-602.2,103.4-787.4,23.3-842.1-73c-31.8-55.9-35.1-144.8-125.8-256.9
					c-76.4-94.5-120.4-88.7-153.1-161.2c-56.8-125.7,51.5-196.4,7.4-318.1c-48.3-133.3-200.4-109.8-266.3-269
					c-36.1-87.1,6.3-101.8-25.8-188.5c-65.4-176.9-258.2-161.5-322.2-321.1C408.8,1077,428,956.8,489.4,886
					c123-142,417.5-87.5,584.1,44.1c21.5,17,183,148.3,198.6,342.8c9.4,117.4-41.1,172.1,0.5,243.5
					c58.8,100.8,191.8,47.6,250.3,137.1c79.2,121.3-108.7,305.6-18.1,442.1c35,52.9,72.1,38.7,107.1,99.4
					c57.6,99.8-9.5,195.5,3.7,278.6C1629.8,2562.9,1742.2,2671.9,2174.1,2757.7z"/>
				<path class="st5" d="M1060.1,1207.5c78.1,180.3-49.2,294.3,42.3,436.5c74.3,115.5,191.5,91.9,223.5,199.4
					c30.7,103.1-68.6,152.9-41.4,270.6c22.4,97,97.7,97.5,173,223c75.8,126.3,45.1,202.1,84,279.2
					c41.8,82.8,160.3,160.5,479.2,165.1c47.8-6.5,98.8-14.3,153.3-23.7c-431.9-85.9-544.3-194.8-558.5-284.1
					c-13.2-83.1,53.9-178.7-3.7-278.6c-35-60.7-72-46.5-107.1-99.4c-90.5-136.6,97.3-320.8,18.1-442.1
					c-58.4-89.5-191.5-36.3-250.3-137.1c-41.7-71.5,8.9-126.2-0.5-243.5c-15.6-194.5-177.2-325.9-198.6-342.8
					C906.9,798.5,612.4,744.1,489.4,886c-0.6,0.7-1.2,1.4-1.7,2.1c82.3,2.9,183.1,19.7,287.5,69.5
					C856.3,996.3,997.8,1063.8,1060.1,1207.5z"/>
			</g>
			<g>
				<linearGradient id="SVGID_4_" gradientUnits="userSpaceOnUse" x1="1409.986" y1="484.0689" x2="1575.7882" y2="1860.7316">
					<stop  offset="0" style="stop-color:#FFC444"/>
					<stop  offset="0.9964" style="stop-color:#F36F56"/>
				</linearGradient>
				<path class="st6" d="M1908.5,862c-122.8-204.9-375.1-404-660.7-383.9c-38.9,2.8-266.3,18.8-322.6,152.1
					c-57.1,135.1,79.2,349,218.6,462.4c101,82.2,185.7,96.9,190.2,161.6c6,87.2-143.8,119.1-158,246.2
					c-7.5,67.2,26.9,124.6,60.8,181.1c76.8,128,151.8,123.2,162.8,194.1c15,97-120.5,136.7-150.6,281.9
					c-21.4,103.4,24.5,193.6,50.4,244.4c100.9,198,372.8,311.4,689.5,305.3c-196.3-49.9-252.1-110.5-260.7-161.3
					c-14.1-83.2,99-134.4,83.9-229.2c-17.4-109.2-182.1-131.8-177-203.6c5.5-77.6,199.3-72,239.3-183.7
					c36.3-101.2-103.6-160.2-102.5-307.2c1.3-175.6,201.5-216.8,236.7-416.7C2032.7,1069.1,1963.1,953.1,1908.5,862z"/>
				<g>
					<defs>
						<path id="SVGID_5_" d="M1988.9,2707.2c-196.3-49.9-252.1-110.5-260.7-161.3c-14.1-83.2,99-134.4,83.9-229.2
							c-17.4-109.2-182.1-131.8-177-203.6c5.5-77.6,199.3-72,239.3-183.7c36.3-101.2-103.6-160.2-102.5-307.2
							c1.3-175.6,201.5-216.8,236.7-416.7c24-136.5-45.5-252.5-100.1-343.5c-122.8-204.9-375.1-404-660.7-383.9
							c-38.9,2.8-266.3,18.8-322.6,152.1c-57.1,135.1,79.2,349,218.6,462.4c101,82.2,185.7,96.9,190.2,161.6
							c6,87.2-143.8,119.1-158,246.2c-7.5,67.2,26.9,124.6,60.8,181.1c76.8,128,151.8,123.2,162.8,194.1
							c15,97-120.5,136.7-150.6,281.9c-21.4,103.4,24.5,193.6,50.4,244.4C1400.4,2600,1672.2,2713.4,1988.9,2707.2z"/>
					</defs>
					<clipPath id="SVGID_6_">
						<use xlink:href="#SVGID_5_"  style="overflow:visible;"/>
					</clipPath>
					<path class="st7" d="M853.1,562.6c123.5,56.7,246.8,113.9,370,171.5c61.7,28.6,123.1,57.8,184,88
						c30.5,15.1,60.9,30.3,91.1,46.1c30.2,15.8,60.2,31.9,89.4,49.7c14.6,8.9,29,18.3,42.8,28.6c6.9,5.1,13.6,10.7,20.1,16.4
						c6.4,5.9,12.6,12.2,18.2,19c5.5,6.9,10.5,14.4,14.4,22.4c3.9,8,6.8,16.6,8.7,25.2c3.5,17.3,4,35.3,0.7,52.7
						c-3.2,17.4-9.7,33.9-18,49.2c-8.3,15.3-18.4,29.4-28.9,43c-21.2,27.1-44.9,51.6-67.5,76.9c-22.7,25.2-44.6,50.9-62.7,79.1
						c-8.9,14.2-17,28.8-23.4,44.2c-6.2,15.4-11.2,31.3-14,47.7c-5.2,32.7-3.2,66.8,7,98.3c5.1,15.8,12.4,30.8,21.1,45
						c8.7,14.2,18.9,27.6,29.3,40.9c10.5,13.3,21.4,26.4,31.4,40.5c5.1,6.9,9.7,14.2,14.2,21.7c4.3,7.5,8.5,15.2,11.8,23.2
						c7,16,11.6,33,13.6,50.3c2.1,17.3,1.9,34.7-0.1,52c-2.1,17.2-6.3,34.3-12.7,50.4c-6.5,16.1-14.9,31.4-24.4,45.7
						c-19,28.8-42.5,53.7-59,82.6c-8.3,14.4-14.2,30-16.9,46.2c-2.5,16.2-2.1,33,1.1,49.2c3.2,16.2,9.1,31.9,17.3,46.3
						c8.3,14.4,18.4,27.8,29.7,40.3c22.3,25.2,48.4,47.5,69.5,74.8c10.6,13.6,19.6,28.7,25.8,45c6,16.4,9,33.8,9,51.1
						c-0.1,17.3-3,34.8-9.3,51.1c-6.3,16.2-15.7,30.9-24.9,45.1c-9.1,14.2-18.1,28.6-20.6,44.8c-3,16.1,0.7,32.8,8.3,47.4
						c7.8,14.6,18.7,27.5,31,38.9c12.3,11.4,25.9,21.5,40,30.8c28.4,18.4,58.6,33.9,89.5,47.7c30.9,13.9,62.6,26.2,94.5,37.7
						c32,11.4,64.2,22.1,96.7,31.9c65,19.8,130.7,37.1,196.7,53.3l-0.1,0.5c-66.1-15.6-132-32.3-197.2-51.6
						c-32.6-9.6-65-19.9-97.1-31.1c-32.1-11.2-63.9-23.3-95.1-37c-31.2-13.6-61.8-28.9-90.6-47.3c-14.3-9.3-28.2-19.4-40.9-31
						c-12.8-11.5-24.2-24.8-32.5-40.2c-8-15.4-12.3-33.5-9.1-51.1c1.2-8.8,4.6-17.1,8.3-24.9c3.8-7.9,8.5-15.1,13-22.3
						c9.2-14.3,18.1-28.5,24.1-44.1c5.9-15.5,8.6-32.1,8.7-48.7c-0.1-16.6-3-33.2-8.8-48.7c-5.9-15.5-14.6-29.8-24.9-43
						c-20.6-26.5-46.6-48.6-69.6-74.1c-11.5-12.7-22.1-26.5-30.9-41.5c-8.6-15.1-14.9-31.6-18.4-48.7c-3.4-17.1-4-34.8-1.4-52.2
						c2.8-17.3,9.1-34,17.7-49.1c8.4-15.2,18.8-29,29-42.6c10.3-13.5,20.7-26.9,29.9-40.9c9.3-13.9,17.3-28.6,23.5-44
						c6.1-15.4,10.1-31.7,12-48.1c3.8-33,0.7-67.1-12.9-97.4c-13-30.6-35.1-56.5-56.2-83.1c-10.6-13.4-21-27.1-30.1-41.8
						c-9-14.8-16.7-30.5-22.1-47.1c-10.7-33.2-12.9-68.7-7.5-103.1c2.9-17.2,8.1-33.9,14.5-49.9c6.6-16,15-31.2,24.2-45.8
						c18.6-29.1,40.9-55.2,63.6-80.6c22.7-25.4,46.2-49.9,66.9-76.4c10.3-13.3,20-26.9,27.9-41.6c7.8-14.6,13.9-30.1,16.8-46.1
						c3-16,2.5-32.5-0.7-48.5c-3.3-15.9-10.5-30.6-20.8-43.3c-5.2-6.3-10.9-12.2-17-17.9c-6.2-5.5-12.6-10.9-19.3-15.9
						c-13.4-10.1-27.5-19.4-41.8-28.2c-28.8-17.7-58.6-33.9-88.6-49.7c-30-15.8-60.3-31.1-90.7-46.3l-91.3-45.2
						c-30.4-15.2-61.1-29.6-91.7-44.4C1097.3,682,975,622.8,852.9,563L853.1,562.6z"/>
				</g>
			</g>
			<g>
				<g>
					<defs>
						<path id="SVGID_7_" d="M1876.6,2654.6c-47.4,24.7-124.7,61-224.6,89.5c-205.8,58.8-560,99.8-681.6-59.3
							c-15-19.6-54.5-71.2-49.2-135c5.4-66.4,54.4-86.8,47.1-128.3c-10-56.7-107.5-52.4-204.5-117.5
							c-82.4-55.3-181.5-172.2-171.9-309.6c10.5-150.7,145.4-236.5,160.1-245.5c99.7-61.2,253.4-83.3,349.5-6
							c85,68.4,93,188.9,98.2,268.4c11.9,179.9-63.4,260.8-9.2,323.8c49.4,57.4,133.1,15,193.1,91.6c25.6,32.7,18.3,50.6,58.4,114.6
							c30.3,48.4,63.1,83.8,76.5,96.4C1622.7,2734.7,1855.9,2661.3,1876.6,2654.6z"/>
					</defs>
					<linearGradient id="SVGID_8_" gradientUnits="userSpaceOnUse" x1="1256.2124" y1="2121.8071" x2="1133.2949" y2="3247.7354">
						<stop  offset="0" style="stop-color:#FF9085"/>
						<stop  offset="1" style="stop-color:#FB6FBB"/>
					</linearGradient>
					<use xlink:href="#SVGID_7_"  style="overflow:visible;fill:url(#SVGID_8_);"/>
					<clipPath id="SVGID_9_">
						<use xlink:href="#SVGID_7_"  style="overflow:visible;"/>
					</clipPath>
					<path class="st8" d="M1747.6,2714.3c-97.9,0-195.2-6.4-290.5-19.2c-288.4-38.6-321-103.2-331.7-124.4
						c-16.6-33-13.6-60.7-10.4-90.1c3.6-33,7.3-67.1-14.3-114.5c-19.7-43.2-45.5-63.3-70.4-82.7c-24.3-18.9-49.4-38.5-67.8-79.2
						c-23.8-52.5-16.6-95.1-8.9-140.2c4.2-24.7,8.5-50.3,8.1-79c-1.8-113.2-79.9-229.1-232-344.4l2.2-2.9
						c153.1,116.1,231.6,232.9,233.4,347.3c0.5,29-3.9,54.7-8.1,79.6c-7.5,44.6-14.7,86.6,8.7,138.1c18.1,39.9,41.7,58.4,66.8,77.9
						c25.2,19.7,51.3,40,71.4,84c22.1,48.3,18.1,84.5,14.6,116.4c-3.1,28.8-6.1,56,10.1,88.1c10.5,20.8,42.4,84.1,328.9,122.4
						c141.7,19,287.7,23.9,433.7,14.6l0.2,3.6C1843.5,2712.8,1795.4,2714.3,1747.6,2714.3z"/>
				</g>
			</g>
		</g>
		<g>
			<linearGradient id="SVGID_10_" gradientUnits="userSpaceOnUse" x1="1814.8641" y1="-918.2004" x2="1646.9543" y2="2724.876">
				<stop  offset="0" style="stop-color:#444B8C"/>
				<stop  offset="0.9964" style="stop-color:#26264F"/>
			</linearGradient>
			<path class="st9" d="M2503,922.2c0-36.7-26.9-67.4-58.4-68.6L926.5,793.8c-37.8-1.5-66.8,30-66.8,70.3v2387.3
				c0,40.3,27.7,70,65.5,66.2l1520.3-153.3c31.5-3.2,57.5-35.5,57.5-72.1V922.2z"/>
			<linearGradient id="SVGID_11_" gradientUnits="userSpaceOnUse" x1="1786.8687" y1="588.4352" x2="1618.9645" y2="4231.3931">
				<stop  offset="0" style="stop-color:#444B8C"/>
				<stop  offset="0.9964" style="stop-color:#26264F"/>
			</linearGradient>
			<path class="st10" d="M2542.7,922.2c0-36.7-24.6-67.4-56.1-68.6L969.1,793.8c-37.8-1.5-66.2,30-66.2,70.3v2387.3
				c0,40.3,28.2,70,66,66.2l1518.2-153.3c31.5-3.2,55.5-35.5,55.5-72.1V922.2z"/>
			<linearGradient id="SVGID_12_" gradientUnits="userSpaceOnUse" x1="1784.6063" y1="808.8751" x2="1642.1791" y2="3899.0669">
				<stop  offset="0.494" style="stop-color:#EBEFF2"/>
				<stop  offset="1" style="stop-color:#FFFFFF"/>
			</linearGradient>
			<path class="st11" d="M2474.2,1072.6v1880c0,19.5-14.4,38.5-31.2,40l-1319.1,119.1l-103.5,9.3c-6,0.5-11.7-0.7-16.4-3.3
				c-10.9-6-18.1-19.3-18.1-34.2V1033.9c0-11.6,3.6-21.7,11.2-28.5c2.2-1.9,4.6-3.6,7-4.9c4.5-2.6,9.6-3.9,15.5-3.7l104.1,2.9
				l1319.5,37.1C2460,1037.3,2474.2,1053.2,2474.2,1072.6z"/>
			<path class="st0" d="M2416.5,2994.9l-1395.7,126c-19.8,1.8-34.9-16.2-34.9-37.4V1033.9c0-11.6,4.1-21.9,11.7-28.7
				c4.6,12.2,9.1,24.2,14.5,35.9c156.8,346.2,469.2,119.8,675.7,461.5c161.7,267.5,36.7,520.9,219.4,818.1
				c144.4,234.9,272.9,154.9,404.5,381C2362.2,2788.7,2395.2,2890.8,2416.5,2994.9z"/>
			<g>
				<g>
					<path class="st12" d="M1348,1571.8l-55.4,167.8h-71.2l181.2-533.3h83.1l182,533.3h-73.6l-57-167.8H1348z M1522.9,1517.9
						l-52.2-153.5c-11.9-34.8-19.8-66.5-27.7-97.3h-1.6c-7.9,31.7-16.6,64.1-26.9,96.5l-52.2,154.3H1522.9z"/>
				</g>
				<polygon class="st12" points="2308.8,1424.8 1736.8,1421.3 1736.8,1379.7 2308.8,1384.7 				"/>
				<polygon class="st12" points="2308.8,1497.4 1736.8,1496.6 1736.8,1455 2308.8,1457.3 				"/>
				<polygon class="st12" points="2308.8,1570 1736.8,1571.8 1736.8,1530.3 2308.8,1529.9 				"/>
				<polygon class="st12" points="2308.8,1642.6 1736.8,1647.1 1736.8,1605.6 2308.8,1602.5 				"/>
				<polygon class="st12" points="2308.8,1715.2 1736.8,1722.4 1736.8,1680.8 2308.8,1675.1 				"/>
				<polygon class="st12" points="2308.8,1835 1174.2,1858.1 1174.2,1815.1 2308.8,1794.9 				"/>
				<polygon class="st12" points="2308.8,1907.6 1174.2,1936.1 1174.2,1893 2308.8,1867.5 				"/>
				<polygon class="st12" points="2308.8,1980.1 1174.2,2014 1174.2,1971 2308.8,1940.1 				"/>
				<polygon class="st12" points="2308.8,2052.7 1174.2,2091.9 1174.2,2048.9 2308.8,2012.6 				"/>
				<polygon class="st12" points="2308.8,2125.3 1174.2,2169.8 1174.2,2126.8 2308.8,2085.2 				"/>
				<polygon class="st12" points="2308.8,2270.5 1174.2,2325.7 1174.2,2282.6 2308.8,2230.4 				"/>
				<polygon class="st12" points="2308.8,2343.1 1174.2,2403.6 1174.2,2360.6 2308.8,2303 				"/>
				<polygon class="st12" points="2308.8,2415.7 1174.2,2481.5 1174.2,2438.5 2308.8,2375.6 				"/>
				<polygon class="st12" points="2308.8,2488.3 1174.2,2559.4 1174.2,2516.4 2308.8,2448.2 				"/>
				<polygon class="st12" points="2308.8,2560.9 1174.2,2637.4 1174.2,2594.3 2308.8,2520.8 				"/>
				<polygon class="st12" points="2308.8,2684.9 1174.2,2768.3 1174.2,2725.2 2308.8,2644.8 				"/>
				<polygon class="st12" points="2308.8,2757.4 1174.2,2846.2 1174.2,2803.1 2308.8,2717.4 				"/>
				<polygon class="st12" points="2308.8,2830 1174.2,2924.1 1174.2,2881.1 2308.8,2789.9 				"/>
			</g>
			<linearGradient id="SVGID_13_" gradientUnits="userSpaceOnUse" x1="1043.5146" y1="1284.2705" x2="1198.4756" y2="1284.2705">
				<stop  offset="0" style="stop-color:#FF9085"/>
				<stop  offset="1" style="stop-color:#FB6FBB"/>
			</linearGradient>
			<path class="st13" d="M1194.1,997.4l-125-0.7l-6.3,0c-6.2,0-10.2,0.2-15.2,0.6c-2.3,0.2-4,2.1-4,4.4v570.2l77.5-85.5l77.5,64.5
				v-549C1198.5,999.4,1196.5,997.5,1194.1,997.4z"/>
			<linearGradient id="SVGID_14_" gradientUnits="userSpaceOnUse" x1="1043.5146" y1="1284.2705" x2="1198.4756" y2="1284.2705">
				<stop  offset="0" style="stop-color:#FF9085"/>
				<stop  offset="1" style="stop-color:#FB6FBB"/>
			</linearGradient>
			<path class="st14" d="M1131.2,1388.3c-91.3-32.4-45.6-211.4-37.2-291.9c4.8-45.9-10.7-79.3-24.9-99.6l-6.3,0
				c-6.2,0-10.2,0.2-15.2,0.6c-2.3,0.2-4,2.1-4,4.4v570.2l77.5-85.5l77.5,64.5v-85C1185.6,1431,1164.7,1400.2,1131.2,1388.3z"/>
			<linearGradient id="SVGID_15_" gradientUnits="userSpaceOnUse" x1="1797.2611" y1="2439.7444" x2="1681.2139" y2="5393.7397">
				<stop  offset="0" style="stop-color:#444B8C"/>
				<stop  offset="0.9964" style="stop-color:#26264F"/>
			</linearGradient>
			<path class="st15" d="M1890.4,3133.7c0,11.8-9.6,22-21.4,22.8l-198.2,14.1c-12.1,0.9-21.9-8.1-21.9-20.1l0,0
				c0-11.9,9.8-22.3,21.9-23.1l198.2-13.6C1880.8,3113,1890.4,3121.9,1890.4,3133.7L1890.4,3133.7z"/>
		</g>
		<g>
			<g>
				<path class="st16" d="M2120,1574.4c-3.2,0.9-5.9,3-7.5,5.8c-1.6,2.9-1.9,6.3-0.9,9.4l69.7,218.4c2,6.2,8.7,9.8,15.1,7.9
					l161.8-46.5c6.4-1.9,10.2-8.5,8.3-14.8l-62.7-217.4c-1.8-6.3-8.5-10.1-15-8.3L2120,1574.4z"/>
				<path class="st0" d="M2132.9,1585c-2.9,0.8-5.3,2.6-6.7,5.2c-1.4,2.6-1.7,5.6-0.8,8.4l62.1,194.8c1.8,5.6,7.8,8.7,13.4,7.1
					l144.3-41.5c5.7-1.7,9.1-7.6,7.4-13.2l-56-193.9c-1.6-5.7-7.6-9-13.4-7.4L2132.9,1585z"/>
				<g>
					<polygon class="st17" points="2256.4,1585.4 2182.7,1604.6 2177.9,1589.5 2251.8,1570.6 					"/>
					<g>
						<path class="st17" d="M2301.1,1612.4c0.2,0.6-0.1,1.1-0.5,1.3l-62,16.7c-0.5,0.1-1-0.2-1.2-0.8l-4-12.8
							c-0.2-0.6,0.1-1.2,0.5-1.3l62.1-16.4c0.5-0.1,1,0.2,1.2,0.8L2301.1,1612.4z"/>
						<path class="st17" d="M2305.6,1626.8c0.2,0.6-0.1,1.1-0.5,1.3l-61.9,17c-0.5,0.1-1-0.2-1.2-0.8l-1.1-3.6
							c-0.2-0.6,0.1-1.2,0.5-1.3l62-16.9c0.5-0.1,1,0.2,1.2,0.8L2305.6,1626.8z"/>
						<path class="st17" d="M2309.7,1640.1c0.2,0.6-0.1,1.2-0.5,1.3l-61.8,17.3c-0.5,0.1-1-0.2-1.2-0.8l-1.1-3.6
							c-0.2-0.6,0.1-1.2,0.5-1.3l61.9-17.2c0.5-0.1,1,0.2,1.2,0.8L2309.7,1640.1z"/>
						<path class="st17" d="M2313.9,1653.3c0.2,0.6-0.1,1.2-0.5,1.3l-61.8,17.6c-0.5,0.1-1-0.2-1.2-0.8l-1.1-3.6
							c-0.2-0.6,0.1-1.2,0.5-1.3l61.8-17.5c0.5-0.1,1,0.2,1.2,0.8L2313.9,1653.3z"/>
						<path class="st17" d="M2318,1666.5c0.2,0.6,0,1.2-0.5,1.3l-61.7,17.9c-0.5,0.1-1-0.2-1.2-0.8l-1.1-3.6
							c-0.2-0.6,0.1-1.2,0.5-1.3l61.7-17.7c0.5-0.1,1,0.2,1.2,0.8L2318,1666.5z"/>
					</g>
					<g>
						<path class="st17" d="M2234.3,1692.5l-49.5,14.4c-1.8,0.5-3.9-0.8-4.6-3l-20.3-65.1c-0.7-2.2,0.3-4.4,2.1-4.8l49.9-13.2
							c1.8-0.5,3.8,0.9,4.4,3l19.9,63.9C2237,1689.8,2236.1,1692,2234.3,1692.5z"/>
						<path class="st17" d="M2162.5,1635.7L2162.5,1635.7l50-13.2c1-0.3,2.1,0.5,2.5,1.7l19.9,63.9c0.4,1.2-0.1,2.3-1.1,2.6
							l-49.5,14.4c-1,0.3-2.2-0.5-2.6-1.7l-20.3-65.1C2161,1637.1,2161.5,1636,2162.5,1635.7z M2161.9,1633.9
							c-1.8,0.5-2.7,2.7-2,4.8l20.3,65.1c0.7,2.2,2.7,3.5,4.6,3l49.5-14.4c0,0,0,0,0,0c1.8-0.5,2.6-2.7,2-4.8l-19.9-63.9
							c-0.7-2.2-2.7-3.5-4.4-3l-49.9,13.2C2162,1633.9,2162,1633.9,2161.9,1633.9z"/>
					</g>
					<g>
						<path class="st17" d="M2224.2,1730.8l-31.5,9.2c-0.2,0.1-0.4-0.1-0.5-0.3l-1.5-5c-0.1-0.2,0-0.5,0.2-0.6l31.5-9.2
							c0.2-0.1,0.4,0.1,0.5,0.3l1.5,4.9C2224.5,1730.5,2224.4,1730.7,2224.2,1730.8z"/>
						<path class="st17" d="M2250.2,1736l-53.8,16c-0.2,0.1-0.4-0.1-0.5-0.3l-1.5-5c-0.1-0.2,0-0.5,0.2-0.6l53.8-15.9
							c0.2-0.1,0.4,0.1,0.5,0.3l1.5,4.9C2250.5,1735.7,2250.4,1736,2250.2,1736z"/>
						<path class="st17" d="M2253.9,1747.8l-53.7,16.2c-0.2,0.1-0.4-0.1-0.5-0.3l-1.5-5c-0.1-0.2,0-0.5,0.2-0.6l53.7-16.1
							c0.2-0.1,0.4,0.1,0.5,0.3l1.5,4.9C2254.2,1747.5,2254.1,1747.8,2253.9,1747.8z"/>
						<path class="st17" d="M2257.6,1759.6l-53.6,16.4c-0.2,0.1-0.4-0.1-0.5-0.3l-1.5-5c-0.1-0.2,0-0.5,0.2-0.6l53.7-16.3
							c0.2-0.1,0.4,0.1,0.5,0.3l1.5,4.9C2257.9,1759.3,2257.8,1759.6,2257.6,1759.6z"/>
					</g>
					<g>
						<path class="st17" d="M2313,1704.8l-47.5,13.9c-0.2,0.1-0.4-0.1-0.5-0.3l-1.5-4.8c-0.1-0.2,0-0.5,0.2-0.5l47.5-13.8
							c0.2-0.1,0.4,0.1,0.5,0.3l1.5,4.8C2313.3,1704.5,2313.2,1704.7,2313,1704.8z"/>
						<path class="st17" d="M2330.9,1712.1l-61.7,18.3c-0.2,0.1-0.4-0.1-0.5-0.3l-1.5-4.8c-0.1-0.2,0-0.5,0.2-0.5l61.7-18.2
							c0.2-0.1,0.4,0.1,0.5,0.3l1.5,4.7C2331.2,1711.8,2331.1,1712,2330.9,1712.1z"/>
						<path class="st17" d="M2334.4,1723.6l-61.6,18.6c-0.2,0.1-0.4-0.1-0.5-0.3l-1.5-4.8c-0.1-0.2,0-0.5,0.2-0.5l61.7-18.5
							c0.2-0.1,0.4,0.1,0.5,0.3l1.5,4.7C2334.7,1723.3,2334.6,1723.5,2334.4,1723.6z"/>
						<path class="st17" d="M2338,1735l-61.6,18.8c-0.2,0.1-0.4-0.1-0.5-0.3l-1.5-4.8c-0.1-0.2,0-0.5,0.2-0.5l61.6-18.7
							c0.2-0.1,0.4,0.1,0.5,0.3l1.5,4.7C2338.3,1734.7,2338.2,1735,2338,1735z"/>
					</g>
				</g>
			</g>
			<g>
				
					<linearGradient id="SVGID_16_" gradientUnits="userSpaceOnUse" x1="2125.2446" y1="958.907" x2="852.2674" y2="1720.3911" gradientTransform="matrix(0.765 0.6441 -0.6441 0.765 2384.8918 -106.4033)">
					<stop  offset="0" style="stop-color:#FF9085"/>
					<stop  offset="1" style="stop-color:#FB6FBB"/>
				</linearGradient>
				<path class="st18" d="M3041.1,1685.4c8.9,3.4,144.8,57.4,172.8,199.3c2.3,11.5,24.1,133.3-58.6,219.5
					c-92.7,96.6-271.2,94.2-342,13.4c-16.5-18.8-25.2-39.7-30.1-57.2c0,0,0,0,0,0l18.7-49.6c22.8-27.5,53.8-34,70.3-38.1
					c40.8-10.1,71.7,8.1,95-11.6c12.9-10.9,15.5-26.6,17.8-40.6c7.8-47.7-19.1-77.1-21.1-106.5c-1.5-22-9.2-70.2,19.5-101.6
					C3001.7,1692.5,3026.9,1687.1,3041.1,1685.4z"/>
				
					<linearGradient id="SVGID_17_" gradientUnits="userSpaceOnUse" x1="2725.0195" y1="3449.6147" x2="2780.7305" y2="3499.1697" gradientTransform="matrix(0.9902 -0.14 0.14 0.9902 -102.8428 206.9384)">
					<stop  offset="0" style="stop-color:#444B8C"/>
					<stop  offset="0.9964" style="stop-color:#26264F"/>
				</linearGradient>
				<path class="st19" d="M3094.1,3266.5c1.6-8.7,29.8-16.6,43.8-4.9c6.9,5.8,11.7,17.6,7.7,22.9c-1.5,1.9,4.5,5.3-1.2,5.4
					C3125.3,3290,3092.5,3275.1,3094.1,3266.5z"/>
				
					<linearGradient id="SVGID_18_" gradientUnits="userSpaceOnUse" x1="1853.4182" y1="3499.248" x2="1853.4182" y2="3402.1941" gradientTransform="matrix(0.9902 -0.14 0.14 0.9902 813.3583 77.4224)">
					<stop  offset="0" style="stop-color:#FFC444"/>
					<stop  offset="0.9964" style="stop-color:#F36F56"/>
				</linearGradient>
				<path class="st20" d="M3123.6,3269.6l29-4.1c-13.4-16.2-11-67.7-11-67.7l-30.8,6.9c0,0,3.5,14.1,9.5,35
					C3122.4,3246.9,3123.3,3258,3123.6,3269.6z"/>
				
					<linearGradient id="SVGID_19_" gradientUnits="userSpaceOnUse" x1="2730.6199" y1="3443.3191" x2="2786.3306" y2="3492.874" gradientTransform="matrix(0.9902 -0.14 0.14 0.9902 -102.8428 206.9384)">
					<stop  offset="0" style="stop-color:#444B8C"/>
					<stop  offset="0.9964" style="stop-color:#26264F"/>
				</linearGradient>
				<path class="st21" d="M3121.1,3266.1c0,0,34.9-8,38.7-1.1c3.8,6.9,6.7,25.5-15.4,24.9S3119.1,3271.9,3121.1,3266.1z"/>
				<linearGradient id="SVGID_20_" gradientUnits="userSpaceOnUse" x1="2684.0959" y1="3272.0483" x2="2739.8093" y2="3321.6055">
					<stop  offset="0" style="stop-color:#444B8C"/>
					<stop  offset="0.9964" style="stop-color:#26264F"/>
				</linearGradient>
				<path class="st22" d="M2696.1,3299.2c2.8-8.4,31.8-12.3,44,1.2c6.1,6.7,9.1,19,4.4,23.8c-1.7,1.7,3.7,5.9-2,5.2
					C2723.7,3326.9,2693.3,3307.6,2696.1,3299.2z"/>
				
					<linearGradient id="SVGID_21_" gradientUnits="userSpaceOnUse" x1="1812.4518" y1="3321.7043" x2="1812.4518" y2="3224.6458" gradientTransform="matrix(1 0 0 1 925.3102 0)">
					<stop  offset="0" style="stop-color:#FFC444"/>
					<stop  offset="0.9964" style="stop-color:#F36F56"/>
				</linearGradient>
				<path class="st23" d="M2724.9,3306.5h29.3c-11-17.9-1.4-68.6-1.4-68.6l-31.5,2.5c0,0,1.5,14.5,4.5,36
					C2726.9,3283.8,2726.2,3295,2724.9,3306.5z"/>
				
					<linearGradient id="SVGID_22_" gradientUnits="userSpaceOnUse" x1="-457.4426" y1="3366.2119" x2="-820.7332" y2="1899.4302" gradientTransform="matrix(-1 0 0 1 2275.7473 0)">
					<stop  offset="0" style="stop-color:#AB316D"/>
					<stop  offset="1" style="stop-color:#792D3D"/>
				</linearGradient>
				<path class="st24" d="M2649,2198.7c-13.6,44.8-33,117.1-45.4,207.9c-35.6,258.8,40,267.1,25.9,553.9
					c-4.5,91.6,79.3,302.7,86.7,307.3c3.6,0.3,7.5,0.6,11.6,0.5c7.3-0.2,17.6-1.3,29.5-4.9c13.3-2.3,61.2-132,50.1-209.1
					c-7.9-54.6-5.6-113.1-1-230.3c0.7-19,49.3-369.2,49.3-369.2c14.8,129.6,31.8,239.8,46.5,325.2
					c47.3,274.4,201.1,440.5,209.2,443.1c1.6,0.6,16,5.9,27.8-1.9c5.3-3.5,7-7.9,7-7.9c4.1-3.2-1.2-273.9-48.1-477.7
					c-68.1-295.7-38.4-364.9-60-497C3019.3,2124.3,2649,2198.7,2649,2198.7z"/>
				<linearGradient id="SVGID_23_" gradientUnits="userSpaceOnUse" x1="3376.4636" y1="1673.3906" x2="2167.2205" y2="2396.7495">
					<stop  offset="0" style="stop-color:#FF9085"/>
					<stop  offset="1" style="stop-color:#FB6FBB"/>
				</linearGradient>
				<path class="st25" d="M3074.7,1919.4c-14.2,55.1-14.5,49.8-31.6,119.2c-10.2,41.4-30.3,85.7-16,158.8
					c2.5,12.8,6.1,26.5,10.9,41.3c-32.3,17-78.1,36.1-135.5,44.6c-125.5,18.7-230.1-18.9-271-39.9c-1-4.7-2.3-9.7-2.3-15v-0.1
					c-3.6-10.1-4.3-21.4-6-34.3c-5.2-41.1-8.4-98.9-1.2-189.2v-0.1c0-1.8-0.2-3.7-0.1-5.6c1.8-24.5,7.2-80.6,26.6-146.6
					c11-37.4,21.7-62.5,33.8-84c16.7-29.7,35-51.7,40.4-58c5.8-6.7,10.4-11.8,11.3-12.7c57.3-51.5,144.8-36.7,190.1-35.4
					c40.5,1.2,118.4,3.1,161.7,54.3C3101.8,1735.6,3098,1828.5,3074.7,1919.4z"/>
				<linearGradient id="SVGID_24_" gradientUnits="userSpaceOnUse" x1="2689.6968" y1="3265.7517" x2="2745.4099" y2="3315.3088">
					<stop  offset="0" style="stop-color:#444B8C"/>
					<stop  offset="0.9964" style="stop-color:#26264F"/>
				</linearGradient>
				<path class="st26" d="M2722.9,3302.6c0,0,35.7-3.1,38.5,4.3s3.1,26.2-18.8,22.5C2720.7,3325.7,2720.1,3308.1,2722.9,3302.6z"/>
				<linearGradient id="SVGID_25_" gradientUnits="userSpaceOnUse" x1="2700.1069" y1="1673.0946" x2="2685.6917" y2="2093.5312">
					<stop  offset="3.597120e-03" style="stop-color:#E38DDD"/>
					<stop  offset="1" style="stop-color:#9571F6"/>
				</linearGradient>
				<path class="st27" d="M2620.6,2046.6c-0.6,0-1.2-0.4-1.4-1c-0.3-0.8,0.1-1.6,0.9-1.9c0.7-0.3,70.8-27.7,136.1-92.2
					c0.6-0.6,1.5-0.6,2.1,0c0.6,0.6,0.6,1.5,0,2.1c-65.8,64.9-136.4,92.6-137.1,92.9C2621,2046.6,2620.8,2046.6,2620.6,2046.6z"/>
				<linearGradient id="SVGID_26_" gradientUnits="userSpaceOnUse" x1="3059.2063" y1="1685.4071" x2="3044.791" y2="2105.8445">
					<stop  offset="0" style="stop-color:#FF9085"/>
					<stop  offset="1" style="stop-color:#FB6FBB"/>
				</linearGradient>
				<path class="st28" d="M3023.6,2176.4c-0.7,0-1.4-0.6-1.5-1.3c-5.4-48.7,4.6-83.9,13.5-115c2.2-7.6,4.2-14.7,6-21.9
					c9.8-39.4,14-54.6,18.6-70.7c2.9-10.5,6-21.3,10.7-39.4c0.2-0.8,1-1.3,1.8-1.1c0.8,0.2,1.3,1,1.1,1.8
					c-4.7,18.1-7.8,28.9-10.7,39.4c-4.5,16.1-8.8,31.3-18.6,70.7c-1.8,7.2-3.8,14.4-6,22c-8.8,30.8-18.7,65.7-13.4,113.8
					c0.1,0.8-0.5,1.6-1.3,1.6C3023.7,2176.4,3023.6,2176.4,3023.6,2176.4z"/>
				<linearGradient id="SVGID_27_" gradientUnits="userSpaceOnUse" x1="3069.8081" y1="1978.1635" x2="2405.0691" y2="2375.8044">
					<stop  offset="0" style="stop-color:#FF9085"/>
					<stop  offset="1" style="stop-color:#FB6FBB"/>
				</linearGradient>
				<path class="st29" d="M3038,2238.6c-32.3,17-78.1,36.1-135.5,44.6c-125.5,18.7-230.1-18.9-271-39.9c-1-4.7-2.3-9.7-2.3-15v-0.1
					l-6-34.3c-5.2-41.1-8.4-98.9-1.2-189.2v-0.1c43.2-19.9,128.7-45.7,109.4,47.1c-26.1,125.8,3.4,120.5,63.8,123.2
					c60.4,2.6,44.1,70.2,121.6,54c37.3-7.8,76.8-24.5,110.4-31.5C3029.6,2210.2,3033.1,2223.9,3038,2238.6z"/>
				
					<linearGradient id="SVGID_28_" gradientUnits="userSpaceOnUse" x1="1326.9723" y1="432.9763" x2="1388.2533" y2="485.148" gradientTransform="matrix(0.1359 0.9907 0.9907 -0.1359 1532.756 497.6357)">
					<stop  offset="0" style="stop-color:#FFC444"/>
					<stop  offset="0.9964" style="stop-color:#F36F56"/>
				</linearGradient>
				<path class="st30" d="M2194,1821.1l-26.5-12.7c-4.1-3.3-10.4-9.1-15.2-18.1c-7.9-14.7-7.7-30.7-7.6-30.7
					c0.1,0-1.2-21.5,7.9-25.1c1.2-0.5,2.6-0.6,4.2-0.4l9.4,24.8c0,0,1.5,10.8,18.5,22c16.9,14.7,23.7,28.2,23.7,28.2L2194,1821.1z"
					/>
				<linearGradient id="SVGID_29_" gradientUnits="userSpaceOnUse" x1="3232.4189" y1="1438.9326" x2="2104.9316" y2="2113.3857">
					<stop  offset="0" style="stop-color:#FF9085"/>
					<stop  offset="1" style="stop-color:#FB6FBB"/>
				</linearGradient>
				<path class="st31" d="M2804.4,1678.8c-49.5-32.2-178.8,68.6-217.9,96.4c-151.8,107.8-133.6,175.1-202.6,141.5
					c-46.6-22.7-53-91.1-132.6-116.9c-3.7-1.2-7.2-2.2-10.5-3c-13.7-3.5-28.2-1.7-40.7,4.9c-5,2.7-9.2,4.9-9.2,4.9
					c-1.1,0.3-2.1,0.7-3.2,1c-13.7,4.6-24.7,15-30,28.5c-4.9,12.5-9,26.7-11.5,42.4c0.8,8,2.3,21.3,5.9,37.4
					c3,13.3,38,158.8,159.7,203.6c22.4,8.2,40.9,10.6,50.3,11.7c40,4.8,76.2-1.1,138.2-22.4c104.9-36.2,185.1-70.1,255.9-153
					c3.4-3.9,6.1-7.8,8.8-12C2817.7,1863.1,2852.2,1709.9,2804.4,1678.8z"/>
				<g>
					<linearGradient id="SVGID_30_" gradientUnits="userSpaceOnUse" x1="2827.6772" y1="1597.129" x2="3179.6438" y2="2165.3198">
						<stop  offset="0" style="stop-color:#FFC444"/>
						<stop  offset="0.9964" style="stop-color:#F36F56"/>
					</linearGradient>
					<path class="st32" d="M2796.8,1610.5c-14-23.7-7.8-50.7-6.4-56.6c5.9-24.5,8.1-28.2,12.6-33.4l6.4-6.8c0,0,0.4-0.3,0.8-0.6
						c4.5-3.1,21.1-8.1,24.7-8.2c11.5-0.6,34.9,40.7,48.3,104.2c1.1,2.3,2.2,4.6,3.2,6.9c6.6,14.4,12.3,28.6,17.2,42.4
						c77.7,6.6,88.5,15.7,88.9,21c0.7,11.1-43.6,23.9-76.9,28.8c-72.6,10.6-147.3-8.5-147-22.1c0.1-5.9,14.6-13.6,76.2-21.6
						c-1.4-10.2-2.9-20.4-4.3-30.6C2835.7,1632.8,2807.1,1627.9,2796.8,1610.5z"/>
					<path class="st16" d="M2782.2,1501.9c5.2,19.4,19.9,37.7,25.5,39.8c0.7,0.3,4.8,2,9.1,5.8c0.6,0.5,1.1,1.1,1.7,2
						c7.5,11.1-8.1,30.7-2.9,35.2c3.8,3.2,15.6-5.6,18.1-2.6c2.3,2.8-6.9,12.5-4.1,15.9c2,2.6,8.1-1.9,13.6,1.4
						c2.7,1.7,2.6,3.6,6.6,9.8c2.3,3.5,5.2,7.3,7.2,9.2c9.8,9.6,29.9,8.7,32.3,3.2c0.7-1.5-0.5-2.4-0.6-6.9c0,0-0.1-4.2,1.4-9.5
						c2.2-7.6,10.4-14.8,18.2-24.2c14.3-17.5,16.2-29.7,16.7-33.7c0.2-1.4,0.2-2.5,0.3-3.3c0.8-15.5-4.8-36.6-14.7-47.8
						c-16.6-18.8-38.1-2-63.7-18.2c-29.6-18.6-24.9-56.1-38.4-56.5C2793.6,1421,2772.5,1466.1,2782.2,1501.9z"/>
					<linearGradient id="SVGID_31_" gradientUnits="userSpaceOnUse" x1="2830.8462" y1="1595.166" x2="3182.8125" y2="2163.3562">
						<stop  offset="0" style="stop-color:#FFC444"/>
						<stop  offset="0.9964" style="stop-color:#F36F56"/>
					</linearGradient>
					<path class="st33" d="M2821.4,1578.3c3-7.8,13-3.9,15.3,4.6s-3.5,19.4-11.9,19.9C2816.3,1603.2,2817.3,1588.8,2821.4,1578.3z"
						/>
				</g>
				<path class="st16" d="M2821.4,1563.1l-7.2,17.3c0,0-7.2,20.8-16.7,13c-7.8-6.4-9.2-5.8-9.5-5.4c0,0.1,0,0.2-0.1,0.2
					c-0.1,0-0.2-4.1-0.3-7.8c-1.8,5-4,12.9-4,22.8c0,9.6,0,19.8,7.5,27.7c0.4,0.5,8.6,8.8,19.6,8.4c0,0,4.3-0.2,20.8-7.8
					c0,0-22.5-8.7-23.7-11.8c-3.1-8.6,7.8-16.7,12.1-37.2C2821.6,1574.5,2821.7,1567.7,2821.4,1563.1z"/>
			</g>
		</g>
		<linearGradient id="SVGID_32_" gradientUnits="userSpaceOnUse" x1="1812.7289" y1="115.1241" x2="1677.1157" y2="3567.1719">
			<stop  offset="0.494" style="stop-color:#EBEFF2"/>
			<stop  offset="1" style="stop-color:#FFFFFF"/>
		</linearGradient>
		<circle class="st34" cx="1780.5" cy="936" r="37.8"/>
	</g>
</g>
</svg>
