<?xml version="1.0" encoding="utf-8"?>
<!-- Generator: Adobe Illustrator 25.1.0, SVG Export Plug-In . SVG Version: 6.00 Build 0)  -->
<svg version="1.1" xmlns="http://www.w3.org/2000/svg" xmlns:xlink="http://www.w3.org/1999/xlink" x="0px" y="0px"
	 viewBox="0 0 3710 3710" style="enable-background:new 0 0 3710 3710;" xml:space="preserve">
<style type="text/css">
	.st0{fill:#FFFFFF;}
	.st1{fill:#F4F7FA;}
	.st2{clip-path:url(#SVGID_3_);}
	.st3{fill:#FCFDFE;}
	.st4{fill:url(#SVGID_4_);}
	.st5{clip-path:url(#SVGID_7_);}
	.st6{opacity:0.7;fill:#FFFFFF;}
	.st7{fill:url(#SVGID_8_);}
	.st8{fill:url(#SVGID_9_);}
	.st9{fill:url(#SVGID_10_);}
	.st10{fill:#DADFE5;}
	.st11{fill:url(#SVGID_11_);}
	.st12{fill:url(#SVGID_12_);}
	.st13{fill:url(#SVGID_13_);}
	.st14{fill:url(#SVGID_14_);}
	.st15{fill:url(#SVGID_15_);}
	.st16{fill:url(#SVGID_16_);}
	.st17{fill:url(#SVGID_17_);}
	.st18{fill:#C1CAD4;}
	.st19{fill:url(#SVGID_18_);}
	.st20{fill:url(#SVGID_19_);}
	.st21{fill:url(#SVGID_20_);}
	.st22{fill:url(#SVGID_21_);}
	.st23{opacity:0.67;fill:#F4F7FA;}
	.st24{fill:url(#SVGID_22_);}
	.st25{fill:url(#SVGID_23_);}
	.st26{opacity:0.3;fill:url(#SVGID_24_);}
	.st27{fill:url(#SVGID_25_);}
	.st28{fill:url(#SVGID_26_);}
	.st29{fill:url(#SVGID_27_);}
	.st30{fill:url(#SVGID_28_);}
	.st31{fill:url(#SVGID_29_);}
	.st32{fill:url(#SVGID_30_);}
	.st33{fill:url(#SVGID_31_);}
	.st34{fill:url(#SVGID_32_);}
	.st35{opacity:0.3;fill:url(#SVGID_33_);}
	.st36{fill:url(#SVGID_34_);}
	.st37{opacity:0.3;}
	.st38{fill:url(#SVGID_35_);}
	.st39{fill:url(#SVGID_36_);}
	.st40{fill:url(#SVGID_37_);}
	.st41{opacity:0.3;fill:url(#SVGID_38_);}
</style>
<g id="Background">
	<g>
		<g>
			<rect class="st0" width="3710" height="3710"/>
		</g>
	</g>
</g>
<g id="Illustration">
	<g>
		<path class="st1" d="M1184.3,635.1c-94.5,132.3,12.4,349.6-126.8,448.4c-135.5,96.2-299.1-65.5-426.7,17.1
			c-189.4,122.6-161,693.2,110.2,1050.4c81.6,107.4,150.2,149.6,179.5,270.4c63,259.4-169.5,410.9-126.9,539.4
			c95.9,289.2,1614.9,547,2234.6-312.6c289.4-401.4,338.2-985,88.1-1431.3C2664.3,410.6,1396.4,338.2,1184.3,635.1z"/>
		<g>
			<g>
				<g>
					<defs>
						<path id="SVGID_1_" d="M1665.8,2285.5c19-4.6,56.3-31.4,63.1-42.4c45.5-73.2,139.5-204.6,124.2-294.4
							c-2.6-15.3-73.2-22-84.4-35.1c-43.9-15.2-60.1-17.7-94.8-52.7c-102.4-103.2,79.1-338.4-167.7-386.7
							c-180.8-35.4-321.7,41.1-332.8-232.2C1162.2,968.7,892.5,498.2,627,719.1c-152.4,126.7,40,338.9-25.8,518.4
							c-62.5,170.5,20.8,296,203.2,374.1c182.5,78,99,162.8,66,321.9c-39.6,191.2,247.9,192.5,380.7,181.8
							C1358.1,2106.6,1636.2,2156.7,1665.8,2285.5z"/>
					</defs>
					<linearGradient id="SVGID_2_" gradientUnits="userSpaceOnUse" x1="1061.8896" y1="665.1338" x2="1575.8424" y2="3950.769">
						<stop  offset="3.597120e-03" style="stop-color:#E38DDD"/>
						<stop  offset="1" style="stop-color:#9571F6"/>
					</linearGradient>
					<use xlink:href="#SVGID_1_"  style="overflow:visible;fill:url(#SVGID_2_);"/>
					<clipPath id="SVGID_3_">
						<use xlink:href="#SVGID_1_"  style="overflow:visible;"/>
					</clipPath>
					<g class="st2">
						<g>
							<path class="st3" d="M1789.4,2103.9l1.4-3.9C1187.6,1884.3,777.7,1334.2,694.3,628.3l-4.1,0.5
								c39.5,334.5,157.2,645.9,340.4,900.3C1223.1,1796.5,1485.5,1995.3,1789.4,2103.9z"/>
							<path class="st3" d="M844.9,2011c159.5-72.6,436.1-104.7,616.6-71.5l0.8-4.1c-181.2-33.3-459-1.1-619.1,71.8L844.9,2011z"/>
							<path class="st3" d="M1671.5,2060.2l2.4-3.4c-77.4-55.8-123.7-148.5-137.5-275.7c-10.1-93.3-2.9-202.5,21.5-324.7l-4.1-0.8
								c-24.5,122.6-31.7,232.3-21.6,326C1546.3,1910,1593.1,2003.7,1671.5,2060.2z"/>
							<path class="st3" d="M1006,1491.9l2.6-3.2c-140.5-112.6-329.4-126-463.1-117.4l0.3,4.2
								C678.7,1366.8,866.5,1380.1,1006,1491.9z"/>
							<path class="st3" d="M813,1127.6l4.1-0.8c-36.8-199.5,59.3-389.5,119.9-485l-3.5-2.2C872.5,735.7,775.9,926.7,813,1127.6z"/>
						</g>
					</g>
				</g>
			</g>
		</g>
		<g>
			
				<linearGradient id="SVGID_4_" gradientUnits="userSpaceOnUse" x1="7282.3911" y1="2635.5256" x2="7528.165" y2="3499.9705" gradientTransform="matrix(-0.9947 -0.103 -0.103 0.9947 9242.6992 -1183.3485)">
				<stop  offset="0" style="stop-color:#AA80F9"/>
				<stop  offset="0.9964" style="stop-color:#6165D7"/>
			</linearGradient>
			<path class="st4" d="M1851.3,2105.2c63.3-86.2,26.9-244.5-27.7-340.6c-63.8-112.2-126.9-94.7-169.8-185.8
				c-79.8-169.7,106.3-300.1,39.4-477.6c-54.7-145.1-199.8-113-253-276.4c-38.4-117.9,18.7-191.3-48.6-283
				c-5.8-7.8-69-91.4-156.8-86.6c-88.6,4.9-150.5,97-174.4,162.6c-44.2,121.2,34.7,169.7,35,332.6
				c0.5,221.8-145.4,263.2-111.3,426.4c28.2,134.8,134.1,137.6,162.4,287.7c26.2,139.3-55.6,187.5-29,279.6
				C1178.9,2155.8,1722.1,2281,1851.3,2105.2z"/>
			<g>
				<defs>
					<path id="SVGID_5_" d="M1851.3,2105.2c63.3-86.2,26.9-244.5-27.7-340.6c-63.8-112.2-126.9-94.7-169.8-185.8
						c-79.8-169.7,106.3-300.1,39.4-477.6c-54.7-145.1-199.8-113-253-276.4c-38.4-117.9,18.7-191.3-48.6-283
						c-5.8-7.8-69-91.4-156.8-86.6c-88.6,4.9-150.5,97-174.4,162.6c-44.2,121.2,34.7,169.7,35,332.6
						c0.5,221.8-145.4,263.2-111.3,426.4c28.2,134.8,134.1,137.6,162.4,287.7c26.2,139.3-55.6,187.5-29,279.6
						C1178.9,2155.8,1722.1,2281,1851.3,2105.2z"/>
				</defs>
				
					<linearGradient id="SVGID_6_" gradientUnits="userSpaceOnUse" x1="12338.0605" y1="715.1437" x2="10749.1533" y2="3981.9412" gradientTransform="matrix(-0.9965 8.320000e-02 8.320000e-02 0.9965 13206.2842 -969.7854)">
					<stop  offset="0" style="stop-color:#AA80F9"/>
					<stop  offset="0.9964" style="stop-color:#6165D7"/>
				</linearGradient>
				<use xlink:href="#SVGID_5_"  style="overflow:visible;fill:url(#SVGID_6_);"/>
				<clipPath id="SVGID_7_">
					<use xlink:href="#SVGID_5_"  style="overflow:visible;"/>
				</clipPath>
				<g class="st5">
					<path class="st6" d="M1763.6,2242.3c-0.1,0-0.3,0-0.4,0c-92.9-19.7-177.6-57.9-251.8-113.7c-70.3-52.9-143-107.5-168.7-197.5
						c-19.5-68.4-0.1-114.9,24.4-173.9c23.5-56.5,52.7-126.8,52.2-238.7c-0.3-63.9-0.7-143.5-47.5-223.3
						c-27.2-46.4-56.2-68.1-81.7-87.2c-26.5-19.9-49.3-37-59.1-76.1c-15.8-62.9,4-113.1,26.8-171.3c13.9-35.4,28.3-72.1,36.9-116.3
						c24.1-124.4-21.3-265.8-135.1-420.2c-0.6-0.8-0.4-2,0.4-2.7c0.8-0.6,2-0.4,2.7,0.4c114.4,155.3,160.1,297.7,135.8,423.2
						c-8.7,44.6-23.1,81.4-37.1,117c-22.6,57.6-42.1,107.3-26.6,169c9.5,37.8,30.8,53.8,57.7,74c25.8,19.4,55.1,41.3,82.7,88.3
						c47.4,80.7,47.8,160.8,48.1,225.2c0.5,112.7-28.9,183.4-52.5,240.2c-24.2,58.3-43.4,104.3-24.2,171.4
						c25.3,88.8,97.5,143,167.3,195.5c73.7,55.4,157.9,93.5,250.3,113c1,0.2,1.7,1.2,1.5,2.2
						C1765.3,2241.7,1764.5,2242.3,1763.6,2242.3z"/>
					<path class="st6" d="M1393,1335.4c-0.3,0-0.6-0.1-0.9-0.3c-0.9-0.5-1.2-1.7-0.7-2.6c92.6-162.1,118.1-292.3,123.1-373
						c5.5-87.4-11.2-137.1-11.4-137.6c-0.3-1,0.2-2.1,1.2-2.4c1-0.3,2.1,0.2,2.4,1.2c0.2,0.5,17,50.7,11.6,138.8
						c-5,81.1-30.6,212-123.6,374.9C1394.3,1335.1,1393.6,1335.4,1393,1335.4z"/>
					<path class="st6" d="M1414.6,1611.3c-0.2,0-0.5,0-0.7-0.1c-211.9-80.4-306.1-217.5-347.8-318.4
						c-45.2-109.4-40.3-201-40.2-201.9c0.1-1,1-1.8,2-1.8c1,0.1,1.8,1,1.8,2c-0.1,0.9-5,91.8,40,200.4
						c41.5,100.2,135.1,236.3,345.6,316.2c1,0.4,1.5,1.5,1.1,2.4C1416.1,1610.8,1415.4,1611.3,1414.6,1611.3z"/>
					<path class="st6" d="M1434.8,2072.4c-0.6,0-1.2-0.3-1.6-0.8c-0.6-0.9-0.4-2,0.5-2.6c175.6-122.2,242.5-259.9,267.7-353.9
						c27.2-101.8,12.9-175.6,12.7-176.3c-0.2-1,0.5-2,1.5-2.2c1-0.2,2,0.5,2.2,1.5c0.1,0.7,14.7,75.4-12.8,178
						c-25.3,94.7-92.6,233.3-269.2,356.1C1435.5,2072.2,1435.2,2072.4,1434.8,2072.4z"/>
					<path class="st6" d="M1296.3,824.5c-0.3,0-0.6-0.1-0.9-0.2c-151.1-83.2-206.5-204.2-226.4-291c-21.5-94.1-7.2-169.5-7-170.2
						c0.2-1,1.2-1.7,2.2-1.5c1,0.2,1.7,1.2,1.5,2.2c-0.1,0.7-14.4,75.5,7,168.8c19.7,86,74.7,205.9,224.5,288.4
						c0.9,0.5,1.3,1.7,0.7,2.6C1297.6,824.1,1297,824.5,1296.3,824.5z"/>
				</g>
			</g>
		</g>
		<g>
			<g>
				<g>
					
						<linearGradient id="SVGID_8_" gradientUnits="userSpaceOnUse" x1="-3545.1064" y1="2780.3496" x2="-3510.7095" y2="2809.2744" gradientTransform="matrix(-1 0 0 1 -548.6931 0)">
						<stop  offset="0" style="stop-color:#AA80F9"/>
						<stop  offset="0.9964" style="stop-color:#6165D7"/>
					</linearGradient>
					<path class="st7" d="M2867.1,2836.8c0,45.2,27.8,81.8,62.2,81.8c34.3,0,62.2-36.6,62.2-81.8c0-45.2-27.8-81.8-62.2-81.8
						C2894.9,2755,2867.1,2791.7,2867.1,2836.8z"/>
					
						<linearGradient id="SVGID_9_" gradientUnits="userSpaceOnUse" x1="-3522.7998" y1="2846.0586" x2="-3398.4543" y2="2846.0586" gradientTransform="matrix(-1 0 0 1 -548.6931 0)">
						<stop  offset="0" style="stop-color:#AA80F9"/>
						<stop  offset="0.9964" style="stop-color:#6165D7"/>
					</linearGradient>
					<path class="st8" d="M2849.8,2846.1c0,45.2,27.8,81.8,62.2,81.8s62.2-36.6,62.2-81.8c0-45.2-27.8-81.8-62.2-81.8
						S2849.8,2800.9,2849.8,2846.1z"/>
					
						<linearGradient id="SVGID_10_" gradientUnits="userSpaceOnUse" x1="-3486.6851" y1="2847.7063" x2="-3434.5808" y2="2847.7063" gradientTransform="matrix(-1 0 0 1 -548.6931 0)">
						<stop  offset="0" style="stop-color:#40447E"/>
						<stop  offset="0.9964" style="stop-color:#3C3B6B"/>
					</linearGradient>
					<path class="st9" d="M2885.9,2847.7c0,18.9,11.7,34.3,26.1,34.3c14.4,0,26.1-15.3,26.1-34.3c0-18.9-11.7-34.3-26.1-34.3
						C2897.6,2813.4,2885.9,2828.8,2885.9,2847.7z"/>
				</g>
				<path class="st10" d="M2929.3,2746.2v89.8c0,13.2-10.7,23.9-23.9,23.9l0,0c-7.6,0-14.8-3.6-19.3-9.8l-80.8-110.6L2929.3,2746.2z
					"/>
			</g>
			<g>
				<g>
					
						<linearGradient id="SVGID_11_" gradientUnits="userSpaceOnUse" x1="-2879.4709" y1="2708.6326" x2="-2845.074" y2="2737.5574" gradientTransform="matrix(-1 0 0 1 -548.6931 0)">
						<stop  offset="0" style="stop-color:#AA80F9"/>
						<stop  offset="0.9964" style="stop-color:#6165D7"/>
					</linearGradient>
					<path class="st11" d="M2201.4,2765.1c0,45.2,27.8,81.8,62.2,81.8c34.3,0,62.2-36.6,62.2-81.8c0-45.2-27.8-81.8-62.2-81.8
						C2229.3,2683.3,2201.4,2719.9,2201.4,2765.1z"/>
					
						<linearGradient id="SVGID_12_" gradientUnits="userSpaceOnUse" x1="-2857.1628" y1="2774.343" x2="-2732.8174" y2="2774.343" gradientTransform="matrix(-1 0 0 1 -548.6931 0)">
						<stop  offset="0" style="stop-color:#AA80F9"/>
						<stop  offset="0.9964" style="stop-color:#6165D7"/>
					</linearGradient>
					<path class="st12" d="M2184.1,2774.3c0,45.2,27.8,81.8,62.2,81.8c34.3,0,62.2-36.6,62.2-81.8c0-45.2-27.8-81.8-62.2-81.8
						C2212,2692.6,2184.1,2729.2,2184.1,2774.3z"/>
					
						<linearGradient id="SVGID_13_" gradientUnits="userSpaceOnUse" x1="-2821.0481" y1="2775.99" x2="-2768.9456" y2="2775.99" gradientTransform="matrix(-1 0 0 1 -548.6931 0)">
						<stop  offset="0" style="stop-color:#40447E"/>
						<stop  offset="0.9964" style="stop-color:#3C3B6B"/>
					</linearGradient>
					<path class="st13" d="M2220.3,2776c0,18.9,11.7,34.3,26.1,34.3c14.4,0,26.1-15.3,26.1-34.3c0-18.9-11.7-34.3-26.1-34.3
						C2231.9,2741.7,2220.3,2757.1,2220.3,2776z"/>
				</g>
				<path class="st10" d="M2263.6,2674.5v89.8c0,13.2-10.7,23.9-23.9,23.9l0,0c-7.6,0-14.8-3.6-19.3-9.8l-80.8-110.6L2263.6,2674.5z
					"/>
			</g>
			<path class="st10" d="M2938.5,2760.2c8.2,0,15.2-6.2,16.2-14.5c1-8.9-5.4-17-14.4-18l-788.3-88.8c-42.9-7.4-78.7-40-90.2-82.9
				l-330.2-1229.4c-17.6-65.5-74.8-112.6-142.4-117.2l-239.8-14.3c-9-0.6-16.7,6.3-17.2,15.3c-0.5,9,6.3,16.7,15.3,17.2l239.6,14.3
				c53.6,3.7,99.1,41.1,113,93.1l330.2,1229.4c14.8,55.2,60.8,97.1,117.1,106.8l789.2,89C2937.3,2760.2,2937.9,2760.2,2938.5,2760.2
				z"/>
			<path class="st10" d="M2390.1,2276.2c7.1,0,13.6-4.7,15.7-11.8l185.6-649.5c2.5-8.7-2.5-17.7-11.2-20.2
				c-8.6-2.5-17.7,2.5-20.2,11.2l-185.6,649.5c-2.5,8.7,2.5,17.7,11.2,20.2C2387.1,2276,2388.6,2276.2,2390.1,2276.2z"/>
			<path class="st10" d="M2200.2,2249.1c7.8,0,14.6-5.5,16-13.4l114.5-643.4c1.6-8.9-4.3-17.3-13.2-18.9
				c-8.9-1.6-17.3,4.3-18.9,13.2l-114.5,643.4c-1.6,8.9,4.3,17.3,13.2,18.9C2198.3,2249,2199.3,2249.1,2200.2,2249.1z"/>
			<path class="st10" d="M2082.2,2228c0.2,0,0.5,0,0.7,0c9-0.4,16-8,15.6-17l-26.4-636.6c-0.4-9-7.6-16.1-17-15.6
				c-9,0.4-16,8-15.6,17l26.4,636.6C2066.3,2221.1,2073.5,2228,2082.2,2228z"/>
			<path class="st10" d="M2649.1,2300c6.8,0,13.2-4.3,15.5-11.1l217.9-649.8c2.9-8.5-1.7-17.8-10.3-20.6
				c-8.5-2.8-17.8,1.7-20.6,10.3l-217.9,649.8c-2.9,8.5,1.7,17.8,10.3,20.6C2645.7,2299.7,2647.4,2300,2649.1,2300z"/>
			
				<linearGradient id="SVGID_14_" gradientUnits="userSpaceOnUse" x1="-1906.2968" y1="1229.5151" x2="-1304.6248" y2="1229.5151" gradientTransform="matrix(-1 0 0 1 -548.6931 0)">
				<stop  offset="0" style="stop-color:#40447E"/>
				<stop  offset="0.9964" style="stop-color:#3C3B6B"/>
			</linearGradient>
			<path class="st14" d="M788.5,1284.2c0.9,0,1.8,0,2.7-0.1l536.5-44.1c17.9-1.5,31.3-17.2,29.8-35.2c-1.5-18-17.2-31.3-35.2-29.8
				l-536.5,44.1c-17.9,1.5-31.3,17.2-29.8,35.2C757.4,1271.3,771.7,1284.2,788.5,1284.2z"/>
			<g>
				<g>
					
						<linearGradient id="SVGID_15_" gradientUnits="userSpaceOnUse" x1="-2961.1099" y1="3003.4055" x2="-2926.7129" y2="3032.3303" gradientTransform="matrix(-1 0 0 1 -548.6931 0)">
						<stop  offset="0" style="stop-color:#AA80F9"/>
						<stop  offset="0.9964" style="stop-color:#6165D7"/>
					</linearGradient>
					<path class="st15" d="M2283.1,3059.9c0,45.2,27.8,81.8,62.2,81.8c34.3,0,62.2-36.6,62.2-81.8s-27.8-81.8-62.2-81.8
						C2310.9,2978.1,2283.1,3014.7,2283.1,3059.9z"/>
					
						<linearGradient id="SVGID_16_" gradientUnits="userSpaceOnUse" x1="-2938.8035" y1="3069.1155" x2="-2814.458" y2="3069.1155" gradientTransform="matrix(-1 0 0 1 -548.6931 0)">
						<stop  offset="0" style="stop-color:#AA80F9"/>
						<stop  offset="0.9964" style="stop-color:#6165D7"/>
					</linearGradient>
					<path class="st16" d="M2265.8,3069.1c0,45.2,27.8,81.8,62.2,81.8c34.3,0,62.2-36.6,62.2-81.8s-27.8-81.8-62.2-81.8
						C2293.6,2987.3,2265.8,3023.9,2265.8,3069.1z"/>
					
						<linearGradient id="SVGID_17_" gradientUnits="userSpaceOnUse" x1="-2902.6887" y1="3070.7622" x2="-2850.5842" y2="3070.7622" gradientTransform="matrix(-1 0 0 1 -548.6931 0)">
						<stop  offset="0" style="stop-color:#40447E"/>
						<stop  offset="0.9964" style="stop-color:#3C3B6B"/>
					</linearGradient>
					<path class="st17" d="M2301.9,3070.8c0,18.9,11.7,34.3,26.1,34.3c14.4,0,26.1-15.3,26.1-34.3c0-18.9-11.7-34.3-26.1-34.3
						C2313.6,3036.5,2301.9,3051.8,2301.9,3070.8z"/>
				</g>
				<path class="st18" d="M2345.3,2969.3v89.8c0,13.2-10.7,23.9-23.9,23.9l0,0c-7.6,0-14.8-3.6-19.3-9.8l-80.8-110.6L2345.3,2969.3z
					"/>
			</g>
			<g>
				<g>
					
						<linearGradient id="SVGID_18_" gradientUnits="userSpaceOnUse" x1="-2384.8118" y1="2945.7122" x2="-2350.4146" y2="2974.637" gradientTransform="matrix(-1 0 0 1 -548.6931 0)">
						<stop  offset="0" style="stop-color:#AA80F9"/>
						<stop  offset="0.9964" style="stop-color:#6165D7"/>
					</linearGradient>
					<path class="st19" d="M1706.8,3002.2c0,45.2,27.8,81.8,62.2,81.8c34.3,0,62.2-36.6,62.2-81.8c0-45.2-27.8-81.8-62.2-81.8
						C1734.6,2920.4,1706.8,2957,1706.8,3002.2z"/>
					
						<linearGradient id="SVGID_19_" gradientUnits="userSpaceOnUse" x1="-2362.5039" y1="3011.4216" x2="-2238.1582" y2="3011.4216" gradientTransform="matrix(-1 0 0 1 -548.6931 0)">
						<stop  offset="0" style="stop-color:#AA80F9"/>
						<stop  offset="0.9964" style="stop-color:#6165D7"/>
					</linearGradient>
					<path class="st20" d="M1689.5,3011.4c0,45.2,27.8,81.8,62.2,81.8c34.3,0,62.2-36.6,62.2-81.8c0-45.2-27.8-81.8-62.2-81.8
						C1717.3,2929.6,1689.5,2966.3,1689.5,3011.4z"/>
					
						<linearGradient id="SVGID_20_" gradientUnits="userSpaceOnUse" x1="-2326.3892" y1="3013.0676" x2="-2274.2866" y2="3013.0676" gradientTransform="matrix(-1 0 0 1 -548.6931 0)">
						<stop  offset="0" style="stop-color:#40447E"/>
						<stop  offset="0.9964" style="stop-color:#3C3B6B"/>
					</linearGradient>
					<path class="st21" d="M1725.6,3013.1c0,18.9,11.7,34.3,26.1,34.3c14.4,0,26.1-15.3,26.1-34.3c0-18.9-11.7-34.3-26.1-34.3
						C1737.3,2978.8,1725.6,2994.1,1725.6,3013.1z"/>
				</g>
				<path class="st18" d="M1769,2911.6v89.8c0,13.2-10.7,23.9-23.9,23.9l0,0c-7.6,0-14.8-3.6-19.3-9.8l-80.8-110.6L1769,2911.6z"/>
			</g>
			<path class="st10" d="M3183.8,1665.1c8.5,0,15.6-6.6,16.2-15.1c0.6-9-6.1-16.8-15.1-17.4L1781,1531.5c-1.3-0.1-2.6,0-3.9,0.2
				l-581.2,99c-8.9,1.5-14.8,9.9-13.3,18.8c1.5,8.9,9.8,14.8,18.8,13.3l579.3-98.7l1402,100.9
				C3183,1665.1,3183.4,1665.1,3183.8,1665.1z"/>
			<g>
				<linearGradient id="SVGID_21_" gradientUnits="userSpaceOnUse" x1="2986.8674" y1="598.7245" x2="2538.3975" y2="1014.9045">
					<stop  offset="0" style="stop-color:#FF9085"/>
					<stop  offset="1" style="stop-color:#FB6FBB"/>
				</linearGradient>
				<path class="st22" d="M1570.6,575.1v1654.2l1163.1-75.3c26.4-1.5,46.9-20,46.9-42.3V635.3c0-22.9-21.7-41.7-49-42.4
					L1570.6,575.1z"/>
				<path class="st23" d="M1511.5,624v1556.4l1168.4-71.4c24.9-1.5,44.1-18.8,44.1-39.8V680.2c0-21.6-20.4-39.2-46.1-39.8
					L1511.5,624z"/>
				<linearGradient id="SVGID_22_" gradientUnits="userSpaceOnUse" x1="3035.3145" y1="621.0096" x2="2584.321" y2="1039.5315">
					<stop  offset="0" style="stop-color:#FF9085"/>
					<stop  offset="1" style="stop-color:#FB6FBB"/>
				</linearGradient>
				<path class="st24" d="M2862.4,996.7H2734V683.7h128.3c2.6,0,4.8,2.1,4.8,4.8V992C2867.1,994.6,2865,996.7,2862.4,996.7z"/>
				<linearGradient id="SVGID_23_" gradientUnits="userSpaceOnUse" x1="2453.7998" y1="1040.0421" x2="969.7637" y2="2505.53">
					<stop  offset="0" style="stop-color:#FF9085"/>
					<stop  offset="1" style="stop-color:#FB6FBB"/>
				</linearGradient>
				<path class="st25" d="M1498.2,622v1565.7c0,23.9,20.8,44.3,48.9,48l939.5,122.5c29.5,3.2,55.6-16.1,55.6-41.1V588.2
					c0-23.3-22.8-42-50.5-41.4L1554,573.5C1522.9,574.4,1498.2,595.8,1498.2,622z"/>
				<g>
					<g>
						<path class="st0" d="M1773.8,1207.6l363.1,13v671.8l86.7,8.7v26.6l-444.1-45.6v-25.5l79.4,7.9v-628.2l-85.1-3.3V1207.6z
							 M1994.5,1115.7c-52.5-1.4-89.6-15.2-111.6-41.5c-21.9-26.2-32.8-58.3-32.8-96.3c0-38,11.9-69.3,35.7-94
							c23.9-24.8,60.6-37.2,110.1-37.2c50,0,88.4,11.4,114.8,34.4c26.5,23.1,39.9,55.9,39.9,98.5c0,42.6-12.8,76.4-38.3,101.2
							C2087,1105.5,2047.6,1117.1,1994.5,1115.7z"/>
					</g>
				</g>
				<linearGradient id="SVGID_24_" gradientUnits="userSpaceOnUse" x1="2346.5474" y1="1010.876" x2="917.7865" y2="2421.7798">
					<stop  offset="0" style="stop-color:#FF9085"/>
					<stop  offset="1" style="stop-color:#FB6FBB"/>
				</linearGradient>
				<path class="st26" d="M1934.8,1875.5c-13.5-182.8,121.1-226.5,98.4-439.8c-32.9-308.9-336-412.1-310.8-666.3
					c7.9-79.4,45.2-147.7,89.8-203.3l-258.3,7.4c-31.1,0.9-55.8,22.3-55.8,48.5v1565.7c0,23.9,20.8,44.3,48.9,48l723.8,94.4
					C2018.4,2154.6,1943.9,1999,1934.8,1875.5z"/>
			</g>
			<path class="st18" d="M2706.7,1809.9c1.6,0,3.2-0.2,4.7-0.7l477-144.8c8.6-2.6,13.5-11.7,10.9-20.3c-2.6-8.6-11.8-13.5-20.3-10.9
				l-473.9,143.9l-1504.9-146.6c-9.1-1-16.9,5.7-17.8,14.6c-0.9,9,5.7,16.9,14.6,17.8l1508.1,146.9
				C2705.7,1809.9,2706.2,1809.9,2706.7,1809.9z"/>
			<path class="st10" d="M1380.2,2322.3c0.8,0,1.7-0.1,2.5-0.2l571.9-87.7l870.1,83.7c9,0.8,16.9-5.7,17.8-14.7
				c0.9-9-5.7-16.9-14.7-17.8l-872.1-83.9c-1.3-0.1-2.7-0.1-4,0.1l-573.9,88.1c-8.9,1.4-15,9.7-13.6,18.6
				C1365.4,2316.6,1372.3,2322.3,1380.2,2322.3z"/>
			<path class="st18" d="M2417.2,2420.9c6.2,0,12-3.6,14.7-9.3l289.5-611c3.9-8.1,0.4-17.9-7.8-21.7c-8.1-3.8-17.9-0.4-21.7,7.8
				l-284.6,600.7l-1025.6-97.5c-9.1-0.9-16.9,5.7-17.8,14.7c-0.9,9,5.7,16.9,14.7,17.8l1037,98.6
				C2416.2,2420.9,2416.7,2420.9,2417.2,2420.9z"/>
			<path class="st18" d="M2417.2,2420.9c1.3,0,2.7-0.2,4-0.5l409.1-102.7c4.4-1.1,8.2-4,10.3-8l357.5-653.1
				c4.3-7.9,1.4-17.8-6.5-22.1c-7.9-4.3-17.8-1.4-22.1,6.5l-354,646.9l-402.2,101c-8.7,2.2-14,11-11.8,19.8
				C2403.3,2416,2409.9,2420.9,2417.2,2420.9z"/>
			<path class="st18" d="M2601.4,2032.2c1.6,0,3.1-0.2,4.6-0.7l449.3-131.7c8.6-2.5,13.6-11.6,11.1-20.2
				c-2.5-8.6-11.6-13.6-20.2-11.1l-446.3,130.8l-1326.6-115.7c-9.1-0.9-16.9,5.9-17.7,14.8c-0.8,9,5.9,16.9,14.8,17.7l1329.7,116
				C2600.5,2032.1,2601,2032.2,2601.4,2032.2z"/>
			<path class="st18" d="M2491.7,2263.8c1.5,0,3-0.2,4.4-0.6l430.4-120.6c8.7-2.4,13.7-11.4,11.3-20.1c-2.4-8.7-11.4-13.7-20.1-11.3
				L2490.1,2231l-1152-100.8c-8.9-0.9-16.9,5.9-17.7,14.8c-0.8,9,5.9,16.9,14.8,17.7l1154.9,101
				C2490.7,2263.8,2491.2,2263.8,2491.7,2263.8z"/>
			<path class="st18" d="M2205.5,2400.8c7,0,13.5-4.6,15.6-11.7l184.6-619.4c2.6-8.6-2.3-17.7-11-20.3c-8.6-2.6-17.7,2.3-20.3,11
				l-184.6,619.4c-2.6,8.6,2.3,17.7,11,20.3C2202.4,2400.6,2203.9,2400.8,2205.5,2400.8z"/>
			<path class="st18" d="M2001.3,2381.4c7.8,0,14.6-5.6,16-13.5l110.7-627.6c1.6-8.9-4.4-17.3-13.2-18.9
				c-8.8-1.5-17.3,4.4-18.9,13.2l-110.7,627.6c-1.6,8.9,4.4,17.3,13.2,18.9C1999.4,2381.3,2000.3,2381.4,2001.3,2381.4z"/>
			<path class="st18" d="M1770.9,2355.2c8.6,0,15.8-6.7,16.3-15.4l34.9-623.1c0.5-9-6.4-16.7-15.4-17.2c-9.1-0.4-16.7,6.4-17.2,15.4
				l-34.9,623.1c-0.5,9,6.4,16.7,15.4,17.2C1770.3,2355.2,1770.6,2355.2,1770.9,2355.2z"/>
			<path class="st18" d="M1552.7,2330.7c0.3,0,0.6,0,0.9,0c9-0.5,15.9-8.1,15.4-17.1l-33.2-633.1c-0.5-9-8.1-15.9-17.1-15.4
				c-9,0.5-15.9,8.1-15.4,17.1l33.2,633.1C1536.9,2324,1544,2330.7,1552.7,2330.7z"/>
			<path class="st18" d="M2540.9,2389.9c6.1,0,11.9-3.4,14.7-9.2l298.4-620.2c3.9-8.1,0.5-17.9-7.6-21.8c-8.1-3.9-17.9-0.5-21.8,7.6
				l-298.4,620.2c-3.9,8.1-0.5,17.9,7.6,21.8C2536.2,2389.4,2538.6,2389.9,2540.9,2389.9z"/>
			<path class="st18" d="M2706.7,2348.2c6,0,11.8-3.3,14.6-9l316.8-634.5c4-8.1,0.8-17.8-7.3-21.9c-8.1-4-17.9-0.7-21.9,7.3
				l-316.8,634.5c-4,8.1-0.8,17.8,7.3,21.9C2701.8,2347.7,2704.3,2348.2,2706.7,2348.2z"/>
			<path class="st18" d="M2348.4,2994.4c2.1,0,4.1-0.4,6-1.1l590.1-234.2c8.4-3.3,12.5-12.8,9.1-21.2c-3.3-8.4-12.8-12.5-21.2-9.1
				l-586.3,232.7l-711.9-87c-50.7-6.2-92.2-42-105.7-91.2l-390.2-1416.7c-17.8-64.7-74.7-111.4-141.6-116.2l-207.1-15
				c-8.9-0.5-16.8,6.1-17.4,15.1c-0.6,9,6.1,16.8,15.1,17.4l207.1,15c53.2,3.8,98.4,41,112.5,92.3l390.2,1416.7
				c17.1,62,69.4,107.1,133.2,114.9l716,87.5C2347.1,2994.4,2347.7,2994.4,2348.4,2994.4z"/>
		</g>
		<g>
			
				<linearGradient id="SVGID_25_" gradientUnits="userSpaceOnUse" x1="2695.4673" y1="1861.6101" x2="2622.6941" y2="2125.6243" gradientTransform="matrix(-1 0 0 1 4275.8311 0)">
				<stop  offset="0" style="stop-color:#FFC444"/>
				<stop  offset="0.9964" style="stop-color:#F36F56"/>
			</linearGradient>
			<path class="st27" d="M1570.6,1534.3c0,0,182.4,73,151.4,270.4c-31,197.4-302.2,135.5-302.2,135.5l-15.9-135.5
				c0,0,206.2,8.6,180.2-118.1c-28.3-138-52.4-139.5-52.4-139.5L1570.6,1534.3z"/>
			
				<linearGradient id="SVGID_26_" gradientUnits="userSpaceOnUse" x1="2900.8467" y1="2990.3613" x2="2918.9292" y2="3315.8516" gradientTransform="matrix(-1 0 0 1 4275.8311 0)">
				<stop  offset="0" style="stop-color:#444B8C"/>
				<stop  offset="0.9964" style="stop-color:#26264F"/>
			</linearGradient>
			<path class="st28" d="M1329.7,3106.1c0,0-2.3,18-0.7,24c1.5,6,53.8,10.4,71.6,8.3c17.8-2.1-10.6-20.2-21.9-23.6
				C1367.3,3111.4,1329.7,3106.1,1329.7,3106.1z"/>
			
				<linearGradient id="SVGID_27_" gradientUnits="userSpaceOnUse" x1="2934.9978" y1="3150.7678" x2="2925.3918" y2="2711.3062" gradientTransform="matrix(-1 0 0 1 4275.8311 0)">
				<stop  offset="0" style="stop-color:#FFC444"/>
				<stop  offset="0.9964" style="stop-color:#F36F56"/>
			</linearGradient>
			<path class="st29" d="M1356,3076.1l-5.5,36.1c0,0-14.1,6.3-20.8,0.1l-0.7-37.8L1356,3076.1z"/>
			
				<linearGradient id="SVGID_28_" gradientUnits="userSpaceOnUse" x1="3228.1331" y1="2972.1838" x2="3246.2148" y2="3297.6616" gradientTransform="matrix(-1 0 0 1 4275.8311 0)">
				<stop  offset="0" style="stop-color:#444B8C"/>
				<stop  offset="0.9964" style="stop-color:#26264F"/>
			</linearGradient>
			<path class="st30" d="M1061.1,3074.5c0,0,11.1,8.2,8.1,18.1c-3,9.9-28.9,49.4-47.3,60.6c-18.5,11.2-12.7-12.2-7.3-26.7
				c5.4-14.6,19.1-46.6,24.5-52C1044.4,3069.1,1061.1,3074.5,1061.1,3074.5z"/>
			
				<linearGradient id="SVGID_29_" gradientUnits="userSpaceOnUse" x1="3223.1479" y1="3144.4688" x2="3213.5422" y2="2705.0127" gradientTransform="matrix(-1 0 0 1 4275.8311 0)">
				<stop  offset="0" style="stop-color:#FFC444"/>
				<stop  offset="0.9964" style="stop-color:#F36F56"/>
			</linearGradient>
			<path class="st31" d="M1081.1,3034.8c-5.4,15-10.5,27.3-14.6,36.3c-8.9,20.1-13.8,27.6-19.3,34.1c-4.8,5.7-16.2,17.8-19.3,15.8
				c-3.1-2,5.2-16.8,21.3-60c2.3-6.3,9.7-26.2,9.7-26.2l0,0H1081.1z"/>
			
				<linearGradient id="SVGID_30_" gradientUnits="userSpaceOnUse" x1="2795.4731" y1="2865.1389" x2="2977.9822" y2="2620.1924" gradientTransform="matrix(-1 0 0 1 4275.8311 0)">
				<stop  offset="0" style="stop-color:#444B8C"/>
				<stop  offset="0.9964" style="stop-color:#26264F"/>
			</linearGradient>
			<path class="st32" d="M1465.6,2409.9c3.8,37.6,7.5,95.9,2,166.8c-7.2,92.3-25.6,150.6-48.7,249c-14.1,60.1-33.2,148.6-50.4,259.3
				c-4,2.3-15.8,8.3-30.9,6.1c-8.5-1.3-14.8-4.6-18.6-7.1c-45.2-138.2-31.9-223.9-10-277.3c9.3-22.7,20.6-40.7,26.6-75.7
				c8-46.3-1.9-72.1-16-179.3c-10-76.4-8.3-88.2-1.6-99.6C1344.6,2406.2,1426.2,2407.1,1465.6,2409.9z"/>
			
				<linearGradient id="SVGID_31_" gradientUnits="userSpaceOnUse" x1="2931.0498" y1="2895.5376" x2="3358.5051" y2="2496.8997" gradientTransform="matrix(-1 0 0 1 4275.8311 0)">
				<stop  offset="0" style="stop-color:#444B8C"/>
				<stop  offset="0.9964" style="stop-color:#26264F"/>
			</linearGradient>
			<path class="st33" d="M1309.9,2425.9c-27.7,143.1-54.9,218.3-75.5,260.8c-5.1,10.5-22,44.3-38,92.8
				c-14.2,42.9-20.1,74.5-23.1,88.4c-9.6,43.9-33.2,107.9-96.7,191.9c-0.8,0.5-11.6,6.6-22,1.1c-5.2-2.8-7.9-7.2-8.9-9.2
				c8.3-80.3,17.8-147.8,26.1-199.9c1.7-10.9,9.4-58.7,21.4-121.9c4.7-24.7,11.6-60.9,19.8-98.1c10.3-46.3,26-109.3,50.2-184.8
				C1212.1,2440,1261,2433,1309.9,2425.9z"/>
			
				<linearGradient id="SVGID_32_" gradientUnits="userSpaceOnUse" x1="2693.9727" y1="2447.585" x2="2562.5708" y2="2261.4326" gradientTransform="matrix(-0.914 -0.4057 -0.4057 0.914 4320.1553 868.3495)">
				<stop  offset="0" style="stop-color:#444B8C"/>
				<stop  offset="0.9964" style="stop-color:#26264F"/>
			</linearGradient>
			<path class="st34" d="M1287.3,1850.2c22.1-5.5,59.9-6.4,90.9-33.8c4.9-4.3,34.4-34.6,30-76.4c-0.4-4-5.4-45.8-36.8-60.1
				c-13.7-6.2-26.8-4.7-36.5-3.6c-26.3,3.1-37.2,15.5-58.4,24.4c-26.6,11.2-50.5,8.7-74.4,6.7c-48.1-4-67-28.7-109.4-45.7
				c-52.2-20.9-122.5-23.1-166.9-0.6c-78.8,39.9-33.1,136.2-121.5,184.7c-29,15.9-35.6,6.5-99.6,33.8
				c-64.1,27.3-96.1,40.9-104.9,71.2c-12.2,42,21.4,102.1,67.7,125.8c45.2,23.1,88.4,5.3,106,29.3c12.5,17.1-5.4,31.5,2.5,61.8
				c10.1,39.2,52.8,65,59.6,69.1c63.9,38.7,185,12,259.2-50.4C1228.5,2073.8,1167.4,1880.4,1287.3,1850.2z"/>
			
				<linearGradient id="SVGID_33_" gradientUnits="userSpaceOnUse" x1="2818.7539" y1="2882.4856" x2="3001.2627" y2="2637.5393" gradientTransform="matrix(-1 0 0 1 4275.8311 0)">
				<stop  offset="0" style="stop-color:#444B8C"/>
				<stop  offset="0.9964" style="stop-color:#26264F"/>
			</linearGradient>
			<path class="st35" d="M1308.9,2806.7c9.3-22.8,20.6-40.7,26.6-75.7c8-46.3-1.9-72.1-16-179.3c-10-76.4-8.3-88.2-1.6-99.6
				c14.5-24.9,45.2-35.9,76.6-40.4c-0.4,1.6-0.8,3.2-1.2,4.8c-16.4,75.1,46.3,120.9,18,203.5c-14,40.7-36.2,50-41.4,97.3
				c-4.9,44.2,12.8,53.5,9,93.7c-5.6,60.1-48.3,74.6-59.4,120.7c-7.2,29.9-1.1,73.6,51.6,136.9c-0.9,5.5-1.8,10.9-2.6,16.5
				c-4,2.3-15.8,8.3-30.9,6.1c-8.5-1.3-14.8-4.6-18.6-7.1C1273.7,2945.7,1287,2860,1308.9,2806.7z"/>
			
				<linearGradient id="SVGID_34_" gradientUnits="userSpaceOnUse" x1="2846.6406" y1="2053.3962" x2="3252.0896" y2="2585.5491" gradientTransform="matrix(-1 0 0 1 4275.8311 0)">
				<stop  offset="0" style="stop-color:#FFC444"/>
				<stop  offset="0.9964" style="stop-color:#F36F56"/>
			</linearGradient>
			<path class="st36" d="M1523.4,1849c-4.1-6.4-17.3-24.3-73.3-37.5c-28-6.6-79.9-17.9-146.6-3.8c-91.6,19.4-148.7,74.4-170.2,97.5
				c17.6,11.5,66.1,46.4,90.2,112.7c7.5,20.6,29.6,91.2-2,157.2c-18.2,38.1-50.4,66.6-74.9,88.4c-36.7,32.6-55.7,37.6-68,66.7
				c-13.4,31.8,0.1,47.2-16.5,69c-17.9,23.3-38.8,12.5-69.1,36.1c-31,24.2-20,44.1-48.2,70.8c-41,38.8-95.4,26.2-97.9,43.7
				c-2.2,15,36.5,35.4,69.3,43.7c65,16.4,121.8-11.1,138.6-19.6c46.7-23.5,38.6-38.6,74.2-56.5c59.6-30,100.4,3.4,236.2,6.8
				c73.5,1.9,110.7,2.3,131.1-22.6c18.6-22.7,8.8-47.7-2.3-155.1c0,0,0,0,0,0c-3.6-35.9-11.1-111-11.1-153.8
				c0-25.3,8.7-66.6,26.3-149.3c1-4.9,10.5-49.5,18.2-109.2C1534.1,1880.6,1533.1,1864.1,1523.4,1849z"/>
			<g class="st37">
				
					<linearGradient id="SVGID_35_" gradientUnits="userSpaceOnUse" x1="3093.0894" y1="1802.0172" x2="3197.5637" y2="2440.9197" gradientTransform="matrix(-1 0 0 1 4275.8311 0)">
					<stop  offset="0" style="stop-color:#FFC444"/>
					<stop  offset="0.9964" style="stop-color:#F36F56"/>
				</linearGradient>
				<path class="st38" d="M944.7,2506.3c28.2-26.7,17.2-46.6,48.2-70.8c30.3-23.6,51.2-12.8,69.1-36.1c16.6-21.7,3.1-37.2,16.5-69
					c12.3-29.2,31.3-34.2,68-66.7c24.5-21.7,56.7-50.3,74.9-88.4c31.6-66.1,9.5-136.6,2-157.2c-24-66.3-72.6-101.3-90.2-112.7
					c1.7-1.8,3.7-3.9,5.8-6.1c115.9,15.9,183.5,82.9,191.8,102.7c19.3,45.8-11.3,62.7-12.1,194.9c-0.4,63.2,6.4,88.1-14.1,114.5
					c-23.4,30.2-50.5,20.8-84.4,60.3c-26.1,30.3-21.9,49.5-46.2,62.3c-26.2,13.7-42.8-2.3-72.3,4c-49.3,10.5-59.8,67.3-92.4,98.4
					c-24.6,23.5-70.2,40-160.1,22.3c-2.1-3-3.1-6-2.7-8.7C849.3,2532.5,903.7,2545.1,944.7,2506.3z"/>
			</g>
			<path class="st0" d="M1341.1,1736.2c0,0-5.8,46.7-23.1,57.4c-17.2,10.7-45.1,24.7-48.2,28.5c-3.1,3.8,106.8,15.6,161.3-11.9l0,0
				c-18-3.7-22.8-5.1-22.8-5.1c-4.9-1.4-14-3.9-23.1-9.1c-6.2-3.5-16.2-10.4-25.4-23.5l0.2-25.9L1341.1,1736.2z"/>
			<path class="st0" d="M1338.5,1752.7c0,0,11.2,15.4,28.9,9c15.8-5.8,6.4-46.5-6.2-51.2c-4.2-1.6-11.8-0.9-17,2.3
				c-3.6,2.2-13.2,14.2-7.7,27.6c-4-1.2-7.5-0.1-8.4,1.9c-1.1,2.5,2.3,5.9,3,6.7C1333.8,1751.7,1337,1752.5,1338.5,1752.7z"/>
			<path class="st0" d="M1541.2,1537.9l-25.8-13.2c0,0,54.4-3.4,67.6-23.1c13.1-19.7,22.5-19.7,16-6.6c-4.5,8.9-24.1,28.3-36.2,39.8
				C1557,1540.3,1548.3,1541.5,1541.2,1537.9z"/>
			
				<linearGradient id="SVGID_36_" gradientUnits="userSpaceOnUse" x1="3016.7161" y1="2010.5649" x2="3271.6467" y2="2010.5649" gradientTransform="matrix(-1 0 0 1 4275.8311 0)">
				<stop  offset="0" style="stop-color:#FFC444"/>
				<stop  offset="0.9964" style="stop-color:#F36F56"/>
			</linearGradient>
			<path class="st39" d="M1257.5,2043.1c11.5,24.4-41.3,81.3-100,108.3c-12,5.5-97.9,45-136.2,7c-31.6-31.4-11.2-96.3-3.9-119.5
				c35.8-113.8,145.7-171.6,191.8-192.5c34.4,86,14.1,124.3,6.2,136.2c-8.3,12.5-31.6,38.7-56.2,61.9
				c-17.4,16.3-28.2,24.2-26.7,26.7c1.8,3.2,22.2-2.8,101.2-41.3C1242.7,2031.4,1253.6,2034.8,1257.5,2043.1z"/>
			<g>
				
					<linearGradient id="SVGID_37_" gradientUnits="userSpaceOnUse" x1="2875.01" y1="2384.6399" x2="2895.0881" y2="2208.3987" gradientTransform="matrix(-1 0 0 1 4275.8311 0)">
					<stop  offset="0" style="stop-color:#311944"/>
					<stop  offset="0.5554" style="stop-color:#6F2B60"/>
					<stop  offset="1" style="stop-color:#A03976"/>
				</linearGradient>
				<path class="st40" d="M1453,1900.4l-139.9,13.1c-2.9,0.3-5.4,2.3-6.2,5.2l-52.2,182.3c-1.4,4.8,2.5,9.5,7.5,9.1l141-12.4
					c3-0.3,5.5-2.3,6.3-5.2l51.1-182.9C1461.9,1904.6,1458,1900,1453,1900.4z"/>
				
					<linearGradient id="SVGID_38_" gradientUnits="userSpaceOnUse" x1="2836.9375" y1="2380.3015" x2="2857.0156" y2="2204.0601" gradientTransform="matrix(-1 0 0 1 4275.8311 0)">
					<stop  offset="0" style="stop-color:#311944"/>
					<stop  offset="0.5554" style="stop-color:#6F2B60"/>
					<stop  offset="1" style="stop-color:#A03976"/>
				</linearGradient>
				<path class="st41" d="M1359.9,2058.1c5.3-28.8-11-51.2,4.6-78.2c16-27.8,44.2-23.1,64.4-46c6.4-7.3,12.2-17.6,15-32.7l9.1-0.9
					c5-0.5,8.9,4.2,7.6,9l-51.1,182.9c-0.8,2.9-3.3,4.9-6.3,5.2l-71.6,6.3C1349.8,2087.6,1357.4,2071.8,1359.9,2058.1z"/>
			</g>
			<path class="st0" d="M1237.6,2037.4c0,0,48.2-49.3,67.8-56.6c19.6-7.3,2.2,44.7-9.2,52c-11.5,7.3-16,10.1-24.9,11.3
				c-9,1.1-9,1.1-9,1.1l-11.8,6.3C1250.5,2051.5,1235.3,2049.7,1237.6,2037.4z"/>
		</g>
	</g>
</g>
</svg>
