<?xml version="1.0" encoding="utf-8"?>
<!-- Generator: Adobe Illustrator 24.0.1, SVG Export Plug-In . SVG Version: 6.00 Build 0)  -->
<svg version="1.1" id="Warstwa_1" xmlns="http://www.w3.org/2000/svg" xmlns:xlink="http://www.w3.org/1999/xlink" x="0px" y="0px"
	 viewBox="0 0 399.16 358.74" style="enable-background:new 0 0 399.16 358.74;" xml:space="preserve">
<style type="text/css">
	.st0{fill:#E68C31;}
	.st1{fill:#FFD402;}
	.st2{fill:#E4687F;}
	.st3{fill:#BF4A95;}
	.st4{fill:#7A559F;}
	.st5{fill:#FFFFFF;}
</style>
<path id="Shape" class="st0" d="M246.5,71.31l-23.55,49.86c-6.8-2.21-13.9-3.31-21.05-3.27c-24.27,0.54-47.18,11.29-63.11,29.6
	l-0.12,0.12l-37.44-30.69l0.12-0.12c27.48-31.01,67.49-51.15,108.87-51.15C222.53,65.6,234.78,67.5,246.5,71.31z"/>
<path id="Shape-2" class="st1" d="M125.2,232.49c0.03,0,0.06,0.02,0.06,0.06c0,0,0,0,0,0l-15.87,10.28L125.2,232.49z"/>
<path id="Shape-3" class="st2" d="M121.97,225.9l-47.53,30.49c-8.92-19.23-12.17-40.62-9.35-61.63c0.12-1.55,0.36-3.09,0.6-4.7
	c3.45-21.02,11.63-40.97,23.93-58.36c2.25-3.33,4.69-6.59,7.31-9.74l37.43,30.9c-8.42,10.89-14.01,23.69-16.27,37.26
	C116.04,202.17,117.39,214.56,121.97,225.9z"/>
<path id="Shape-4" class="st3" d="M316.87,167.83v3.98c0.03,1.45-0.03,2.9-0.18,4.34c-0.12,2.26-0.24,4.58-0.43,6.9
	c-0.3,2.32-0.6,4.64-0.89,7.01v0.06c-0.94,5.66-2.21,11.26-3.82,16.76c-0.18,0.78-0.48,1.55-0.65,2.32
	c-0.6,1.84-1.25,3.62-1.91,5.41H178.71l11.9-24.55l12.03-24.96h59.82c-3.64-18.08-15.66-33.35-32.38-41.12l23.78-49.99
	c37.18,15.22,61.87,50.95,62.96,91.11C316.87,166.05,316.87,166.94,316.87,167.83z"/>
<path id="Shape-5" class="st4" d="M279.37,263.87c-18.54,20.81-42.35,36.23-68.92,44.63c-12.82,3.98-26.17,6.02-39.6,6.07
	c-41.45,0-75.06-20.2-92.77-51.23c0-0.06-0.06-0.06-0.06-0.12l30.46-19.79l0.89-0.59l15.86-10.28
	c11.15,19.05,31.83,30.47,53.9,29.78c7.79-0.03,15.52-1.23,22.95-3.57c14.08-4.44,26.86-12.28,37.2-22.82L279.37,263.87z"/>
<path id="Shape-6" class="st5" d="M138.79,147.5l-0.12,0.12l-37.44-30.67l0.12-0.12L138.79,147.5z"/>
<path id="Shape-7" class="st5" d="M108.5,243.43l-30.4,19.91c0-0.06-0.06-0.06-0.06-0.12L108.5,243.43z"/>
</svg>
