<svg xmlns="http://www.w3.org/2000/svg" width="59.717" height="14.787" viewBox="0 0 59.717 14.787">
  <g id="Group_4744" data-name="Group 4744" transform="translate(-227.398 -168.737)">
    <path id="Path_1946" data-name="Path 1946" d="M245.968,181.832a3.665,3.665,0,0,0,1.369,2.315,4.255,4.255,0,0,0,2.66.824,3.483,3.483,0,0,0,3.206-1.625l1.647.935a5.437,5.437,0,0,1-4.9,2.515,5.824,5.824,0,0,1-4.307-1.658,5.685,5.685,0,0,1-1.659-4.2,5.76,5.76,0,0,1,1.625-4.185,5.611,5.611,0,0,1,4.208-1.669,5.122,5.122,0,0,1,4,1.725,6,6,0,0,1,1.547,4.151,5.844,5.844,0,0,1-.067.868Zm3.851-4.919a3.7,3.7,0,0,0-3.851,3.228H253.4a3.711,3.711,0,0,0-1.246-2.4A3.573,3.573,0,0,0,249.818,176.912Z" transform="translate(-9.203 -3.523)" fill="#fff"/>
    <path id="Path_1947" data-name="Path 1947" d="M280.079,175.087a4.138,4.138,0,0,1,3.139,1.235,4.651,4.651,0,0,1,1.18,3.35v6.834H282.46v-6.722a2.87,2.87,0,0,0-.735-2.1,2.716,2.716,0,0,0-2.026-.746,3.139,3.139,0,0,0-2.337.9,3.8,3.8,0,0,0-.89,2.771v5.9h-1.937v-11.13h1.937v1.6A3.957,3.957,0,0,1,280.079,175.087Z" transform="translate(-26.153 -3.523)" fill="#fff"/>
    <path id="Path_1948" data-name="Path 1948" d="M307.487,173.723h-2.961v6.032a1.691,1.691,0,0,0,.323,1.169,1.326,1.326,0,0,0,.991.356q.668.012,1.647-.033v1.736a5.728,5.728,0,0,1-3.718-.412,3.072,3.072,0,0,1-1.179-2.816v-6.032h-2.2v-1.87h2.2v-2.538l1.937-.579v3.116h2.961Z" transform="translate(-40.494)" fill="#fff"/>
    <path id="Path_1949" data-name="Path 1949" d="M320.816,181.832a3.667,3.667,0,0,0,1.369,2.315,4.255,4.255,0,0,0,2.66.824,3.483,3.483,0,0,0,3.205-1.625l1.647.935a5.438,5.438,0,0,1-4.9,2.515,5.825,5.825,0,0,1-4.307-1.658,5.686,5.686,0,0,1-1.658-4.2,5.758,5.758,0,0,1,1.625-4.185,5.611,5.611,0,0,1,4.207-1.669,5.121,5.121,0,0,1,4,1.725,6,6,0,0,1,1.547,4.151,5.847,5.847,0,0,1-.067.868Zm3.851-4.919a3.7,3.7,0,0,0-3.851,3.228h7.435a3.711,3.711,0,0,0-1.247-2.4A3.573,3.573,0,0,0,324.667,176.912Z" transform="translate(-50.73 -3.523)" fill="#fff"/>
    <path id="Path_1950" data-name="Path 1950" d="M351.321,177.357a3.492,3.492,0,0,1,3.473-2.07v2.026a3.51,3.51,0,0,0-2.449.757,3.2,3.2,0,0,0-1.024,2.649v5.9h-1.937v-11.13h1.937Z" transform="translate(-67.679 -3.634)" fill="#fff"/>
    <path id="Path_1951" data-name="Path 1951" d="M232.785,174.18l-2.867,2.863,2.057,2.057,1.26,1.26-1.26,1.26-3.317,3.317-1.26-1.26,3.317-3.317-3.317-3.317,1.26-1.26,2.867-2.863-.668-.668,3.615-.971L233.5,174.9Z" transform="translate(0 -1.412)" fill="#fff"/>
  </g>
</svg>
