<svg id="Group_4785" data-name="Group 4785" xmlns="http://www.w3.org/2000/svg" width="69.738" height="17.965" viewBox="0 0 69.738 17.965">
  <path id="Path_2009" data-name="Path 2009" d="M153.56,621.335c0,.6-.339.862-.992.862-.209,0-1.123-.078-1.854-.078-.862,0-1.932.078-2.454.078a1.063,1.063,0,0,1-1.149-1.123c0-1.332,2.689-3.108,2.689-7.26,0-3.578-2.847-5.85-2.847-6.764,0-.627.1-.991,1.776-1.436,1.619-.418,2.585-1.124,3.055-1.124a.807.807,0,0,1,.836.889c0,1.227-1.489,4.8-1.489,9.766C151.131,617.679,153.56,620.265,153.56,621.335Z" transform="translate(-146.953 -604.492)" fill="#5d38db"/>
  <path id="Path_2010" data-name="Path 2010" d="M163.2,608.775c1.149,0,2.219-.314,3.237-.314,2.585,0,3.187,3.708,3.187,5.9,0,5.849-2.978,8.669-6.424,8.669-3.395,0-6.79-2.82-6.79-8.356,0-1.305.522-6.215,3.369-6.215C160.978,608.461,162.048,608.775,163.2,608.775Zm-2.767,2.376c-1.7,0-2.3.653-2.3,2.168,0,3.6,3.16,6.188,7.05,6.188a2.193,2.193,0,0,0,2.455-2.376C167.637,614.18,165.156,611.151,160.43,611.151Z" transform="translate(-148.445 -605.118)" fill="#5d38db"/>
  <path id="Path_2011" data-name="Path 2011" d="M183.478,612.643c0,.887-.105,1.593-.967,1.593-.653,0-1.88-.366-3.029-.366a1.725,1.725,0,0,0-1.932,1.723c0,2.506,3.473,4.8,3.473,6.346,0,.5-.235.965-.757.965-1.306,0-2.3-.13-3.421-.13-.992,0-1.7.13-2.481.13a.788.788,0,0,1-.862-.835c0-1.88,2.69-4.7,2.69-6.554,0-2.454-2.951-4.6-2.951-5.927a.843.843,0,0,1,.862-.888c.339,0,1.149.052,1.671.052.5,0,.94-.052,1.331-.052.5,0,.757.366.757.966,0,.7-.366,1.855-.366,2.56,0,.365.157.627.522.627.809,0,1.358-.184,2.194-1.776,1.2-2.271,1.619-2.429,2.585-2.429.862,0,1.019.052,1.019.941C183.817,610.319,183.478,611.755,183.478,612.643Z" transform="translate(-151.102 -605.148)" fill="#5d38db"/>
  <path id="Path_2012" data-name="Path 2012" d="M190.069,608.659c.81,0,1.775.156,2.951.156,1.1,0,2.116-.26,2.664-.26a1.241,1.241,0,0,1,1.331.782,12.879,12.879,0,0,1,1.672,5.223c0,.914-.288,1.567-1.672,1.567s-3.16.575-4.935.575a1,1,0,0,1-1.071-1.071.823.823,0,0,1,.888-.889,20.422,20.422,0,0,0,2.767.393c.471,0,.94-.209.94-.783,0-1.8-2.35-3.787-4.621-3.787-1.385,0-1.985.6-1.985,2.429,0,5.589,2.063,6.894,4.6,6.894,3.055,0,3.238-1.985,4.256-1.985.418,0,.574.34.574,1.018,0,1.254-1.436,4.178-5.222,4.178-5.275,0-6.972-2.976-6.972-6.136C186.23,612.81,188.685,608.659,190.069,608.659Z" transform="translate(-153.152 -605.133)" fill="#5d38db"/>
  <path id="Path_2013" data-name="Path 2013" d="M208.892,611.685c-1.646,0-2.272,2.114-2.272,3.368,0,1.984,2.377,5.327,2.377,6.868,0,.5-.235.939-.757.939-.967,0-1.671-.13-2.507-.13-1.1,0-1.331.13-1.984.13-.522,0-.888-.339-.888-1.044,0-1.828,2.4-4.544,2.4-6.345-.026-2.454-2.663-4.622-2.663-5.954a.855.855,0,0,1,.94-.862c2.35,0,3.42,1.724,4.935,1.724,2.219,0,3.108-1.881,5.092-1.881a1.561,1.561,0,0,1,1.8,1.41c.131.549.392.862.835.862,1.332,0,3.682-2.4,6.059-2.4,1.305,0,1.906.627,1.906,2.142,0,1.331-1.07,3.081-1.07,4.779,0,3.839,2.377,6.267,2.377,6.92,0,.5-.68.678-2.455.678-2.35,0-3.656-.782-3.656-2.48,0-2.9,2.533-4.6,2.533-6.371,0-.941-1.227-1.959-4.387-1.959-1.828,0-2.586,1.437-2.586,2.977,0,1.984,2.507,5.274,2.507,6.815a.887.887,0,0,1-.862.992c-.888,0-1.593-.1-2.4-.1-.783,0-1.385.1-2.036.1a.791.791,0,0,1-.81-.888c0-1.906,2.22-4.726,2.22-6.945C213.54,613.2,210.772,611.685,208.892,611.685Z" transform="translate(-155.735 -605.104)" fill="#5d38db"/>
</svg>
