<svg id="Group_4789" data-name="Group 4789" xmlns="http://www.w3.org/2000/svg" width="122.381" height="28.364" viewBox="0 0 122.381 28.364">
  <g id="Group_4786" data-name="Group 4786" transform="translate(0)">
    <path id="Path_2014" data-name="Path 2014" d="M429.585,548.654a14.182,14.182,0,1,0,0,20.057A14.182,14.182,0,0,0,429.585,548.654Zm-14.657,14.657a6.542,6.542,0,0,1,7.342-10.579l4.422-1.185-1.185,4.422a6.542,6.542,0,0,1-10.579,7.342Z" transform="translate(-405.375 -544.5)" fill="#5d38db"/>
  </g>
  <g id="Group_4787" data-name="Group 4787" transform="translate(11.773 11.773)">
    <ellipse id="Ellipse_1" data-name="Ellipse 1" cx="2.409" cy="2.409" rx="2.409" ry="2.409" transform="translate(0)" fill="#5d38db"/>
  </g>
  <g id="Group_4788" data-name="Group 4788" transform="translate(32.502 6.074)">
    <path id="Path_2015" data-name="Path 2015" d="M472.946,572.644a8.559,8.559,0,1,1,0-17.116,8.412,8.412,0,0,1,4.185,1.076,7.869,7.869,0,0,1,2.993,2.9l-4.068,2.338a2.934,2.934,0,0,0-1.239-1.262,3.775,3.775,0,0,0-1.87-.468,3.709,3.709,0,0,0-2.806,1.122,4.32,4.32,0,0,0,0,5.7,3.71,3.71,0,0,0,2.806,1.122,3.758,3.758,0,0,0,1.882-.468,2.911,2.911,0,0,0,1.228-1.286l4.068,2.339a7.824,7.824,0,0,1-2.993,2.923A8.417,8.417,0,0,1,472.946,572.644Z" transform="translate(-464.388 -555.528)" fill="#5d38db"/>
    <path id="Path_2016" data-name="Path 2016" d="M500.65,576.449a6.167,6.167,0,0,1-4.454-1.777,6.195,6.195,0,0,1-.011-8.792,6.5,6.5,0,0,1,8.932,0,6.209,6.209,0,0,1,0,8.792A6.156,6.156,0,0,1,500.65,576.449Zm-1.414-4.688a2.033,2.033,0,0,0,2.829,0,2.279,2.279,0,0,0,0-2.969,2.032,2.032,0,0,0-2.829,0,2.279,2.279,0,0,0,0,2.969Z" transform="translate(-477.853 -559.381)" fill="#5d38db"/>
    <path id="Path_2017" data-name="Path 2017" d="M533.458,564.1a4.054,4.054,0,0,1,3.18,1.275,5.258,5.258,0,0,1,1.146,3.635v7.109h-4.326V569.6q0-1.333-1.192-1.333-1.38,0-1.38,1.73v6.127H526.56V569.6q0-1.333-1.192-1.333-1.38,0-1.379,1.73v6.127h-4.326V564.432h4.326v1.1a3.851,3.851,0,0,1,3.18-1.426,3.193,3.193,0,0,1,2.922,1.45A4.24,4.24,0,0,1,533.458,564.1Z" transform="translate(-489.22 -559.381)" fill="#5d38db"/>
    <path id="Path_2018" data-name="Path 2018" d="M561.019,576.449a6.167,6.167,0,0,1-4.455-1.777,6.2,6.2,0,0,1-.012-8.792,6.5,6.5,0,0,1,8.932,0,6.207,6.207,0,0,1,0,8.792A6.152,6.152,0,0,1,561.019,576.449Zm-1.416-4.688a2.033,2.033,0,0,0,2.829,0,2.28,2.28,0,0,0,0-2.969,2.032,2.032,0,0,0-2.829,0,2.283,2.283,0,0,0,0,2.969Z" transform="translate(-504.973 -559.381)" fill="#5d38db"/>
    <path id="Path_2019" data-name="Path 2019" d="M587.584,556.207h4.325v16.368h-4.325v-1.052a3.816,3.816,0,0,1-3.134,1.379,4.841,4.841,0,0,1-3.858-1.753,7.273,7.273,0,0,1,0-8.838,4.837,4.837,0,0,1,3.858-1.754,3.814,3.814,0,0,1,3.134,1.38ZM584,568.3a2.118,2.118,0,0,0,3.016,0,2.427,2.427,0,0,0,0-3.133,2.116,2.116,0,0,0-3.016,0,2.429,2.429,0,0,0,0,3.133Z" transform="translate(-515.919 -555.833)" fill="#5d38db"/>
    <path id="Path_2020" data-name="Path 2020" d="M611.029,576.449a6.168,6.168,0,0,1-4.455-1.777,6.2,6.2,0,0,1-.011-8.792,6.5,6.5,0,0,1,8.931,0,6.209,6.209,0,0,1,0,8.792A6.154,6.154,0,0,1,611.029,576.449Zm-1.415-4.688a2.034,2.034,0,0,0,2.83,0,2.28,2.28,0,0,0,0-2.969,2.033,2.033,0,0,0-2.83,0,2.281,2.281,0,0,0,0,2.969Z" transform="translate(-527.439 -559.381)" fill="#5d38db"/>
  </g>
</svg>
