<svg id="Group_4801" data-name="Group 4801" xmlns="http://www.w3.org/2000/svg" width="57.127" height="31.081" viewBox="0 0 57.127 31.081">
  <g id="Group_4790" data-name="Group 4790" transform="translate(0.383)">
    <path id="Path_2021" data-name="Path 2021" d="M383.492,638.821a10.894,10.894,0,0,0-19.372-6.512,10.894,10.894,0,0,0-19.372,6.512,10.9,10.9,0,0,0-8.487,10.48h5a5.9,5.9,0,0,1,11.8,0h5.161a5.9,5.9,0,0,1,11.8,0h5.161a5.9,5.9,0,0,1,11.8,0h5A10.9,10.9,0,0,0,383.492,638.821ZM361.7,639h-.164c0-.048-.006-.091-.006-.139a10.855,10.855,0,0,0-5.894,3.744,10.855,10.855,0,0,0-5.894-3.744,5.9,5.9,0,0,1,11.788,0,.818.818,0,0,1,.176-.042C361.7,638.881,361.7,638.942,361.7,639Zm10.9,3.6a10.855,10.855,0,0,0-5.894-3.744c0,.048-.006.091-.006.139h-.164a1.807,1.807,0,0,0-.006-.182.817.817,0,0,1,.176.042,5.9,5.9,0,0,1,11.788,0A10.855,10.855,0,0,0,372.6,642.607Z" transform="translate(-336.26 -628.25)" fill="#5d38db"/>
  </g>
  <g id="Group_4791" data-name="Group 4791" transform="translate(25.656 10.571)">
    <path id="Path_2022" data-name="Path 2022" d="M378.156,645.7a1.815,1.815,0,0,0-.006.182h-.164c0-.049-.006-.091-.006-.139A.826.826,0,0,1,378.156,645.7Z" transform="translate(-377.98 -645.7)" fill="#5d38db"/>
  </g>
  <g id="Group_4792" data-name="Group 4792" transform="translate(17.509 8.632)">
    <ellipse id="Ellipse_2" data-name="Ellipse 2" cx="2.253" cy="2.12" rx="2.253" ry="2.12" fill="#5d38db"/>
  </g>
  <g id="Group_4793" data-name="Group 4793" transform="translate(30.654 10.571)">
    <path id="Path_2023" data-name="Path 2023" d="M386.406,645.742c0,.048-.006.091-.006.139h-.164a1.815,1.815,0,0,0-.006-.182A.826.826,0,0,1,386.406,645.742Z" transform="translate(-386.23 -645.7)" fill="#5d38db"/>
  </g>
  <g id="Group_4794" data-name="Group 4794" transform="translate(34.47 8.632)">
    <ellipse id="Ellipse_3" data-name="Ellipse 3" cx="2.253" cy="2.12" rx="2.253" ry="2.12" fill="#5d38db"/>
  </g>
  <g id="Group_4795" data-name="Group 4795" transform="translate(42.951 18.93)">
    <ellipse id="Ellipse_4" data-name="Ellipse 4" cx="2.253" cy="2.12" rx="2.253" ry="2.12" fill="#5d38db"/>
  </g>
  <g id="Group_4796" data-name="Group 4796" transform="translate(9.028 18.93)">
    <ellipse id="Ellipse_5" data-name="Ellipse 5" cx="2.253" cy="2.12" rx="2.253" ry="2.12" fill="#5d38db"/>
  </g>
  <g id="Group_4797" data-name="Group 4797" transform="translate(25.656 10.571)">
    <path id="Path_2024" data-name="Path 2024" d="M378.156,645.7a1.815,1.815,0,0,0-.006.182h-.164c0-.049-.006-.091-.006-.139A.826.826,0,0,1,378.156,645.7Z" transform="translate(-377.98 -645.7)" fill="#5d38db"/>
  </g>
  <g id="Group_4798" data-name="Group 4798" transform="translate(30.654 10.571)">
    <path id="Path_2025" data-name="Path 2025" d="M386.406,645.742c0,.048-.006.091-.006.139h-.164a1.815,1.815,0,0,0-.006-.182A.826.826,0,0,1,386.406,645.742Z" transform="translate(-386.23 -645.7)" fill="#5d38db"/>
  </g>
  <g id="Group_4799" data-name="Group 4799" transform="translate(25.989 18.93)">
    <ellipse id="Ellipse_6" data-name="Ellipse 6" cx="2.253" cy="2.12" rx="2.253" ry="2.12" fill="#5d38db"/>
  </g>
  <g id="Group_4800" data-name="Group 4800" transform="translate(0 24.602)">
    <path id="Path_2026" data-name="Path 2026" d="M335.627,675.3v-6.27h2.362v4.362h2.117V675.3Z" transform="translate(-335.627 -668.928)" fill="#5d38db"/>
    <path id="Path_2027" data-name="Path 2027" d="M346.331,675.342a3.246,3.246,0,1,1,3.453-3.235A3.134,3.134,0,0,1,346.331,675.342Zm0-4.5a1.219,1.219,0,0,0,0,2.426,1.22,1.22,0,0,0,0-2.426Z" transform="translate(-338.49 -668.863)" fill="#5d38db"/>
    <path id="Path_2028" data-name="Path 2028" d="M358.2,675.342a3.246,3.246,0,1,1,3.453-3.235A3.134,3.134,0,0,1,358.2,675.342Zm0-4.5a1.219,1.219,0,0,0,0,2.426,1.22,1.22,0,0,0,0-2.426Z" transform="translate(-343.167 -668.863)" fill="#5d38db"/>
    <path id="Path_2029" data-name="Path 2029" d="M369.376,673.508v1.79h-2.354v-6.27h2.354v1.836l1.008-1.836h2.745l-1.936,2.545,2.063,3.725h-2.8l-.854-2.072Z" transform="translate(-348.004 -668.928)" fill="#5d38db"/>
    <path id="Path_2030" data-name="Path 2030" d="M380.537,675.3v-6.27H382.9v6.27Z" transform="translate(-353.332 -668.928)" fill="#5d38db"/>
    <path id="Path_2031" data-name="Path 2031" d="M389.474,675.3,388,672.181s.055.645.055.99V675.3h-2.3v-6.27h2.481l1.471,3.1s-.055-.691-.055-.973v-2.126h2.3v6.27Z" transform="translate(-355.39 -668.928)" fill="#5d38db"/>
    <path id="Path_2032" data-name="Path 2032" d="M400.97,674.826a3.1,3.1,0,0,1-1.935.545,4.042,4.042,0,0,1-2.508-.781l.918-1.689a3.423,3.423,0,0,0,1.827.654c.217,0,.372-.055.372-.145,0-.109-.1-.145-.572-.218a4,4,0,0,1-1.709-.718,1.6,1.6,0,0,1-.609-1.381,2.124,2.124,0,0,1,.763-1.59,3.059,3.059,0,0,1,1.945-.563,3.871,3.871,0,0,1,2.353.745l-.863,1.554a2.768,2.768,0,0,0-1.58-.563c-.219,0-.4.045-.4.154s.127.136.5.19a4.527,4.527,0,0,1,1.344.454,1.672,1.672,0,0,1,1.009,1.663A2.152,2.152,0,0,1,400.97,674.826Z" transform="translate(-359.636 -668.892)" fill="#5d38db"/>
    <path id="Path_2033" data-name="Path 2033" d="M405.977,675.3v-6.27h2.363v6.27Z" transform="translate(-363.361 -668.928)" fill="#5d38db"/>
    <path id="Path_2034" data-name="Path 2034" d="M413.663,675.3h-2.481v-6.27h2.481a4.06,4.06,0,0,1,2.5.646,2.856,2.856,0,0,1,1.136,2.489C417.3,674.471,415.753,675.3,413.663,675.3Zm.963-4.079a1.017,1.017,0,0,0-.772-.273h-.309v2.39h.309c.8,0,1.044-.418,1.044-1.172C414.9,671.6,414.78,671.363,414.626,671.218Z" transform="translate(-365.413 -668.928)" fill="#5d38db"/>
    <path id="Path_2035" data-name="Path 2035" d="M422.1,675.3v-6.27h4.652v1.781h-2.316v.472h2.2v1.736h-2.2v.482h2.408v1.8Z" transform="translate(-369.718 -668.928)" fill="#5d38db"/>
  </g>
</svg>
