<svg id="Group_4784" data-name="Group 4784" xmlns="http://www.w3.org/2000/svg" width="140.394" height="33.8" viewBox="0 0 140.394 33.8">
  <g id="Group_4781" data-name="Group 4781" transform="translate(13.624 5.298)">
    <path id="Path_1999" data-name="Path 1999" d="M147.691,523.542a.851.851,0,0,1-.638-.286l-3.473-3.913H127.126A3.13,3.13,0,0,1,124,516.217v-3.686h13.525a1.614,1.614,0,0,0,1.612-1.612V495.04h12.012a3.13,3.13,0,0,1,3.126,3.126v18.051a3.13,3.13,0,0,1-3.126,3.126h-2.611V522.7a.841.841,0,0,1-.549.792A.829.829,0,0,1,147.691,523.542Zm.493-1.294,0,.005Zm-22.67-8.2v2.172a1.614,1.614,0,0,0,1.612,1.612h17.135l2.763,3.114v-3.114h4.125a1.614,1.614,0,0,0,1.612-1.612V498.166a1.614,1.614,0,0,0-1.612-1.612h-10.5v14.365a3.13,3.13,0,0,1-3.126,3.126Z" transform="translate(-124 -495.04)" fill="#5d38db"/>
  </g>
  <g id="Group_4782" data-name="Group 4782" transform="translate(0)">
    <path id="Path_2000" data-name="Path 2000" d="M112.585,516.542a.83.83,0,0,1-.3-.054.841.841,0,0,1-.549-.792v-3.353h-2.611A3.13,3.13,0,0,1,106,509.217V491.166a3.13,3.13,0,0,1,3.126-3.126h24.023a3.13,3.13,0,0,1,3.126,3.126v18.051a3.13,3.13,0,0,1-3.126,3.126H116.695l-3.476,3.916A.844.844,0,0,1,112.585,516.542Zm-.5-1.291,0,.005Zm-2.963-25.7a1.614,1.614,0,0,0-1.612,1.612v18.051a1.614,1.614,0,0,0,1.612,1.612h4.125v3.114l2.763-3.114h17.135a1.614,1.614,0,0,0,1.612-1.612V491.166a1.614,1.614,0,0,0-1.612-1.612Z" transform="translate(-106 -488.04)" fill="#5d38db"/>
  </g>
  <g id="Group_4783" data-name="Group 4783" transform="translate(49.006 9.457)">
    <path id="Path_2001" data-name="Path 2001" d="M179.29,516.244a5.81,5.81,0,0,1,.07-11.616c2.981,0,4.2,1.455,4.318,1.6l-.8,1.642a4.4,4.4,0,0,0-3.332-1.361,3.619,3.619,0,0,0-3.614,3.849c0,2.347,1.455,3.967,3.614,3.967a4.72,4.72,0,0,0,3.4-1.409l.8,1.642A5.539,5.539,0,0,1,179.29,516.244Z" transform="translate(-173.658 -501.53)" fill="#5d38db"/>
    <path id="Path_2002" data-name="Path 2002" d="M194.3,516.244a5.809,5.809,0,1,1,5.891-5.8A5.652,5.652,0,0,1,194.3,516.244Zm0-9.785a3.945,3.945,0,1,0,3.614,3.919A3.626,3.626,0,0,0,194.3,506.459Z" transform="translate(-177.238 -501.53)" fill="#5d38db"/>
    <path id="Path_2003" data-name="Path 2003" d="M214.515,515.986v-6.219c0-1.877-.328-3.286-2.323-3.286-2.089,0-2.863,1.76-2.863,3.9v5.608h-2.252V504.839h2.252l-.023,1.76h.07a3.767,3.767,0,0,1,3.4-1.971c3.168,0,3.989,2.089,3.989,4.764v6.595Z" transform="translate(-181.783 -501.53)" fill="#5d38db"/>
    <path id="Path_2004" data-name="Path 2004" d="M231.285,515.986v-6.219c0-1.877-.328-3.286-2.324-3.286-2.088,0-2.863,1.76-2.863,3.9v5.608h-2.253V504.839H226.1l-.023,1.76h.07a3.765,3.765,0,0,1,3.4-1.971c3.167,0,3.989,2.089,3.989,4.764v6.595Z" transform="translate(-185.86 -501.53)" fill="#5d38db"/>
    <path id="Path_2005" data-name="Path 2005" d="M250.49,510.941H241.9a3.436,3.436,0,0,0,3.591,3.543,6.166,6.166,0,0,0,3.684-1.29l.939,1.29a6.543,6.543,0,0,1-4.9,1.76c-3.309,0-5.585-2.3-5.585-5.843a5.529,5.529,0,0,1,5.655-5.773,5.089,5.089,0,0,1,5.28,5.327A9.714,9.714,0,0,1,250.49,510.941Zm-5.28-4.693a3.28,3.28,0,0,0-3.286,3.191h6.5A3.221,3.221,0,0,0,245.21,506.248Z" transform="translate(-189.697 -501.53)" fill="#5d38db"/>
    <path id="Path_2006" data-name="Path 2006" d="M261.811,516.244a5.81,5.81,0,0,1,.07-11.616c2.98,0,4.2,1.455,4.318,1.6l-.8,1.642a4.4,4.4,0,0,0-3.332-1.361,3.618,3.618,0,0,0-3.614,3.849c0,2.347,1.455,3.967,3.614,3.967a4.722,4.722,0,0,0,3.4-1.409l.8,1.642A5.539,5.539,0,0,1,261.811,516.244Z" transform="translate(-193.721 -501.53)" fill="#5d38db"/>
    <path id="Path_2007" data-name="Path 2007" d="M274.89,515.249c-2.793,0-2.934-2.3-2.934-4.482v-5.093h-1.643v-1.807h1.643v-3.333h2.253v3.333h2.675v1.807h-2.675v5.046a4.381,4.381,0,0,0,.282,2.041,1.167,1.167,0,0,0,1.15.564,2.712,2.712,0,0,0,1.15-.259l.142,1.807A5.037,5.037,0,0,1,274.89,515.249Z" transform="translate(-197.158 -500.535)" fill="#5d38db"/>
    <path id="Path_2008" data-name="Path 2008" d="M285.388,517.994c-.775,1.925-1.69,2.582-2.934,2.582a5.518,5.518,0,0,1-2.112-.4l.446-1.83a3.535,3.535,0,0,0,1.173.258c.915,0,1.15-.493,1.455-1.315l.54-1.479-4.529-10.935,2.347.023,3.379,8.659,3.285-8.683,2.324.023Z" transform="translate(-199.374 -501.59)" fill="#5d38db"/>
  </g>
</svg>
