<svg id="Group_4780" data-name="Group 4780" xmlns="http://www.w3.org/2000/svg" width="44" height="46.283" viewBox="0 0 44 46.283">
  <defs>
    <style>
      .cls-1, .cls-2 {
        fill: #5d38db;
      }

      .cls-2 {
        font-size: 7px;
        font-family: SegoeUI-Bold, Segoe UI;
        font-weight: 700;
      }
    </style>
  </defs>
  <g id="Group_4779" data-name="Group 4779" transform="translate(5.007)">
    <path id="Path_1993" data-name="Path 1993" class="cls-1" d="M1083.591,284.479a4.428,4.428,0,1,1,3.129-1.3,4.4,4.4,0,0,1-3.129,1.3Z" transform="translate(-1055.098 -251.8)"/>
    <path id="Path_1994" data-name="Path 1994" class="cls-1" d="M998.166,200.629a4.428,4.428,0,1,1,3.13-1.3,4.4,4.4,0,0,1-3.13,1.3Z" transform="translate(-993.735 -191.567)"/>
    <path id="Path_1995" data-name="Path 1995" class="cls-1" d="M1082.895,200.167a4.428,4.428,0,1,1,3.13-1.295,4.4,4.4,0,0,1-3.13,1.295Z" transform="translate(-1054.601 -191.234)"/>
    <path id="Path_1996" data-name="Path 1996" class="cls-1" d="M998.576,254.222a4.428,4.428,0,0,1-3.131-7.561,4.078,4.078,0,0,1,.624-.507c.075-.052.145-.094.217-.138.164-.094.327-.18.48-.25.083-.037.168-.075.258-.11a4.6,4.6,0,0,1,.54-.16l.113-.031c.023-.006.045-.014.068-.019l.986-.067c.125.006.259.021.4.04l.056.007c.034,0,.079.008.124.01l.04,0,.045.009h.039c.072,0,.144,0,.216,0a6.539,6.539,0,0,0,6.448-6.62v-.05l-.01-.052a1.17,1.17,0,0,1-.015-.143c0-.057-.009-.113-.016-.17l-.011-.1c-.01-.085-.019-.168-.025-.253l.076-.989c0-.025.014-.047.021-.071l.018-.061a4.361,4.361,0,0,1,.165-.557,2.33,2.33,0,0,1,.109-.258,5.032,5.032,0,0,1,.257-.492c.042-.07.083-.141.13-.209a4.422,4.422,0,0,1,6.778-.63,4.437,4.437,0,0,1,0,6.265,4.242,4.242,0,0,1-.625.508c-.073.05-.143.092-.214.133a5.17,5.17,0,0,1-.479.253c-.087.039-.173.079-.257.11a4.176,4.176,0,0,1-.538.159l-.106.03-.071.021-1,.07c-.117,0-.239-.021-.368-.037l-.089-.011c-.03-.005-.076-.008-.123-.011l-.035,0-.051-.01h-.04c-.073,0-.144,0-.216,0a6.538,6.538,0,0,0-6.448,6.622v.05l.009.05a1.291,1.291,0,0,1,.015.143c0,.057.009.114.016.17,0,.034.009.095.016.154a1.783,1.783,0,0,1,.016.2v.024l-.071.948c0,.02-.036.129-.045.163a4.6,4.6,0,0,1-.163.548,2.633,2.633,0,0,1-.106.25c-.077.168-.161.33-.255.493-.042.067-.091.146-.141.222a4.339,4.339,0,0,1-3.633,1.912Z" transform="translate(-994.03 -221.542)"/>
    <path id="Path_1997" data-name="Path 1997" class="cls-1" d="M1041.039,254.224a4.428,4.428,0,0,1-3.136-7.558,4.332,4.332,0,0,1,.629-.513c.066-.045.136-.088.211-.13a4.983,4.983,0,0,1,.482-.254c.087-.039.171-.078.257-.11a4.074,4.074,0,0,1,.534-.155l.176-.05,1-.074c.118.006.245.023.379.04l.074.01c.049,0,.09.009.132.009l.049,0,.032,0,.042,0c.073,0,.148,0,.221,0a6.535,6.535,0,0,0,6.439-6.62l-.006-.206-.018-.023c0-.007,0-.015,0-.023,0-.048-.005-.1-.01-.146l-.016-.142c-.009-.078-.019-.155-.022-.233l.069-.959c.005-.023.04-.142.048-.178a4.575,4.575,0,0,1,.162-.545c.031-.089.07-.171.109-.257a5.378,5.378,0,0,1,.255-.484l.019-.032c.034-.058.067-.116.107-.172a4.418,4.418,0,0,1,6.778-.636,4.377,4.377,0,0,1-.627,6.775c-.05.034-.1.063-.146.092l-.077.048a5.191,5.191,0,0,1-.466.244c-.089.04-.172.078-.26.111a4.494,4.494,0,0,1-.541.159c-.043.01-.078.021-.113.032l-.07.019-.984.068c-.144-.006-.3-.027-.451-.047-.051-.006-.091-.008-.13-.01-.015,0-.03,0-.045,0l-.084-.009c-.073,0-.146,0-.219,0a6.53,6.53,0,0,0-6.439,6.621v.05l.01.048a1.36,1.36,0,0,1,.015.152c0,.052.007.1.013.153s.009.1.015.148c.009.075.018.15.02.225l-.073.972c-.005.021-.043.152-.043.152a4.52,4.52,0,0,1-.162.556c-.03.08-.065.156-.1.237l-.012.028a5,5,0,0,1-.248.468c-.045.076-.09.15-.137.22a4.51,4.51,0,0,1-.512.629,4.389,4.389,0,0,1-3.125,1.293Z" transform="translate(-1024.532 -221.544)"/>
    <path id="Path_1998" data-name="Path 1998" class="cls-1" d="M998.58,211.766a4.408,4.408,0,0,1-2.508-8.069c.067-.045.143-.091.218-.137a5.155,5.155,0,0,1,.476-.25c.086-.039.171-.078.261-.111a4.264,4.264,0,0,1,.529-.154l.113-.032c.021-.006.041-.013.061-.018l1-.072c.13.005.271.024.418.044l.031,0c.052.005.091.008.132.01a.376.376,0,0,1,.043,0l.043.007.041,0c.074,0,.148,0,.221,0a6.532,6.532,0,0,0,6.437-6.621v-.049l-.01-.048a1.269,1.269,0,0,1-.015-.163c0-.044-.005-.089-.01-.136l-.015-.137a2.383,2.383,0,0,1-.023-.246l.067-.93.006-.021v-.018c.005-.021.042-.145.042-.145a4.665,4.665,0,0,1,.163-.562c.031-.084.071-.167.11-.254a4.947,4.947,0,0,1,.254-.484l.015-.025c.038-.064.076-.128.119-.192a4.324,4.324,0,0,1,.505-.621,4.429,4.429,0,1,1,6.265,6.263,4.175,4.175,0,0,1-.624.506c-.068.048-.126.082-.187.118l-.033.019a5.137,5.137,0,0,1-.474.25c-.089.041-.173.079-.258.11a4.3,4.3,0,0,1-.541.16c-.042.01-.08.021-.117.032l-.07.019-.982.068c-.124-.006-.257-.023-.4-.041l-.06-.008c-.045-.005-.087-.008-.128-.01a.411.411,0,0,1-.049,0l-.033,0-.043,0c-.073,0-.146,0-.22,0a6.533,6.533,0,0,0-6.44,6.621v.05l.009.048a1.1,1.1,0,0,1,.016.151c0,.052.008.1.013.155s.01.094.017.146c.008.074.018.147.019.22l-.071.965c-.005.025-.013.05-.021.076l-.025.086a4.428,4.428,0,0,1-.161.556c-.032.083-.072.17-.112.259a4.871,4.871,0,0,1-.251.477c-.046.077-.089.149-.135.217a4.259,4.259,0,0,1-.509.626,4.4,4.4,0,0,1-3.129,1.3Z" transform="translate(-994.033 -191.045)"/>
  </g>
  <text id="CODLABS" class="cls-2" transform="translate(0 36.283)"><tspan x="5" y="8">CODLABS</tspan></text>
</svg>
