<svg xmlns="http://www.w3.org/2000/svg" width="130.204" height="43.271" viewBox="0 0 130.204 43.271">
  <g id="Group_4748" data-name="Group 4748" transform="translate(0.603 0.604)">
    <path id="Path_1952" data-name="Path 1952" d="M128.633,267.632,116.5,255.5h12.132Z" transform="translate(-116.5 -231.236)" fill="#5d38db" stroke="#fff" stroke-width="0.5"/>
    <path id="Path_1953" data-name="Path 1953" d="M158.5,213.5l12.131,12.132H158.5Z" transform="translate(-134.236 -213.5)" fill="#5d38db" stroke="#fff" stroke-width="0.5"/>
    <rect id="Rectangle_2446" data-name="Rectangle 2446" width="12.132" height="12.132" transform="translate(12.132 24.264)" fill="#5d38db" stroke="#fff" stroke-width="0.5"/>
    <rect id="Rectangle_2447" data-name="Rectangle 2447" width="12.132" height="12.132" transform="translate(24.264 24.264)" fill="#5d38db" stroke="#fff" stroke-width="0.5"/>
    <rect id="Rectangle_2448" data-name="Rectangle 2448" width="12.132" height="12.132" transform="translate(24.264 12.132)" fill="#5d38db" stroke="#fff" stroke-width="0.5"/>
    <rect id="Rectangle_2449" data-name="Rectangle 2449" width="12.132" height="12.132" transform="translate(0 12.132)" fill="#5d38db" stroke="#fff" stroke-width="0.5"/>
    <rect id="Rectangle_2450" data-name="Rectangle 2450" width="12.132" height="12.132" transform="translate(12.132)" fill="#5d38db" stroke="#fff" stroke-width="0.5"/>
    <g id="Group_4747" data-name="Group 4747" transform="translate(46.902 16.875)">
      <path id="Path_1954" data-name="Path 1954" d="M197.684,242.71H200.2v7.506a5.806,5.806,0,0,1,3.483-1.189,4.929,4.929,0,0,1,3.953,1.824,7.031,7.031,0,0,1,1.534,4.686,6.577,6.577,0,0,1-1.831,4.886,6.652,6.652,0,0,1-4.9,1.818,13.741,13.741,0,0,1-2.592-.262,8.551,8.551,0,0,1-2.163-.664Zm2.515,9.911V259.5a9.1,9.1,0,0,0,2.64.387,3.485,3.485,0,0,0,2.73-1.189,4.424,4.424,0,0,0,1.058-3.055,4.662,4.662,0,0,0-.988-3.082,3.193,3.193,0,0,0-2.578-1.189A4.44,4.44,0,0,0,200.2,252.621Z" transform="translate(-197.684 -242.71)" fill="#5d38db"/>
      <path id="Path_1955" data-name="Path 1955" d="M225.192,253.941v2.916l.138-.221q1.824-2.944,3.649-2.944a4.5,4.5,0,0,1,2.972,1.437l-1.327,2.211a3.727,3.727,0,0,0-2.433-1.244,2.608,2.608,0,0,0-2.108,1.161,4.388,4.388,0,0,0-.891,2.751v6.648h-2.53V253.941Z" transform="translate(-208.232 -247.347)" fill="#5d38db"/>
      <path id="Path_1956" data-name="Path 1956" d="M249.02,259.013v5.4q0,.65.443.65a3.046,3.046,0,0,0,1.424-.678v1.534a8.206,8.206,0,0,1-1.376.753,2.986,2.986,0,0,1-1.085.2q-1.617,0-1.908-1.272a5.475,5.475,0,0,1-3.414,1.244,3.011,3.011,0,0,1-2.212-.878,2.978,2.978,0,0,1-.885-2.2,3.1,3.1,0,0,1,.864-2.149,5.846,5.846,0,0,1,2.453-1.5l3.221-1.106v-.677a2.028,2.028,0,0,0-2.294-2.295,5.526,5.526,0,0,0-4.009,2.129V255.42a5.219,5.219,0,0,1,4.216-1.728,4.868,4.868,0,0,1,3.3,1.078,3.394,3.394,0,0,1,.746.919,3.315,3.315,0,0,1,.421,1.147A16.924,16.924,0,0,1,249.02,259.013Zm-2.474,5.128v-3.774l-1.686.65a5.692,5.692,0,0,0-1.818,1.03,1.862,1.862,0,0,0-.028,2.578,1.782,1.782,0,0,0,1.306.5A3.161,3.161,0,0,0,246.546,264.142Z" transform="translate(-215.557 -247.347)" fill="#5d38db"/>
      <path id="Path_1957" data-name="Path 1957" d="M265.165,253.941v1.617a5.057,5.057,0,0,1,3.829-1.866,4.221,4.221,0,0,1,2.212.615,4.009,4.009,0,0,1,1.555,1.686,8.056,8.056,0,0,1,.533,3.393v7.271h-2.516v-7.243a4.949,4.949,0,0,0-.594-2.785,2.272,2.272,0,0,0-1.99-.836,3.624,3.624,0,0,0-3.027,1.783v9.081h-2.571V253.941Z" transform="translate(-225.094 -247.347)" fill="#5d38db"/>
      <path id="Path_1958" data-name="Path 1958" d="M295.283,242.71h2.529v19.31h-5.377a5.887,5.887,0,0,1-4.5-1.783,6.692,6.692,0,0,1-1.679-4.782,6.344,6.344,0,0,1,1.763-4.617,6.007,6.007,0,0,1,4.5-1.811,8.188,8.188,0,0,1,2.764.539Zm0,17.154v-8.059a5.229,5.229,0,0,0-2.377-.594,3.836,3.836,0,0,0-2.993,1.231,4.76,4.76,0,0,0-1.113,3.317,4.343,4.343,0,0,0,.968,3.027,3,3,0,0,0,1.23.857,8.309,8.309,0,0,0,2.336.221Z" transform="translate(-235.087 -242.71)" fill="#5d38db"/>
      <path id="Path_1959" data-name="Path 1959" d="M312.264,242.71h2.516v19.31h-2.516Z" transform="translate(-246.069 -242.71)" fill="#5d38db"/>
      <path id="Path_1960" data-name="Path 1960" d="M328.936,254.123h2.823l-9.011,19.2h-2.807l4.317-9.213-4.911-9.985h2.867l3.434,7.183Z" transform="translate(-249.059 -247.529)" fill="#5d38db"/>
    </g>
  </g>
</svg>
