<svg width="647.63626" height="632.17383" xmlns="http://www.w3.org/2000/svg">

 <g>
  <title>background</title>
  <rect fill="none" id="canvas_background" height="602" width="802" y="-1" x="-1"/>
 </g>
 <g>
  <title>Layer 1</title>
  <path id="svg_1" fill="#f2f2f2" d="m411.14602,142.17382l-174.50977,0a15.01828,15.01828 0 0 0 -15,15l0,387.85l-2,0.61005l-42.81006,13.11a8.00676,8.00676 0 0 1 -9.98974,-5.31l-127.34033,-415.95005a8.00313,8.00313 0 0 1 5.31006,-9.99l65.97022,-20.2l191.25,-58.54l65.96972,-20.2a7.98927,7.98927 0 0 1 9.99024,5.3l32.5498,106.32l0.60986,2z"/>
  <path id="svg_2" fill="#3f3d56" d="m449.22612,140.17382l-39.23,-128.14a16.99368,16.99368 0 0 0 -21.23,-11.28l-92.75,28.39l-191.23973,58.55002l-92.75,28.4a17.0152,17.0152 0 0 0 -11.28028,21.23l134.08008,437.93a17.02661,17.02661 0 0 0 16.26026,12.03a16.78926,16.78926 0 0 0 4.96972,-0.75l63.58008,-19.46l2,-0.62l0,-2.09l-2,0.61l-64.16992,19.65a15.01489,15.01489 0 0 1 -18.73,-9.95l-134.06983,-437.94a14.97935,14.97935 0 0 1 9.94971,-18.73l92.75,-28.4l191.24024,-58.54l92.75,-28.4a15.15551,15.15551 0 0 1 4.40966,-0.66a15.01461,15.01461 0 0 1 14.32032,10.61l39.0498,127.56l0.62012,2l2.08008,0l-0.61031,-2.00002z"/>
  <path id="svg_3" fill="#5d38db" d="m122.68091,127.8208a9.0157,9.0157 0 0 1 -8.61133,-6.3667l-12.88037,-42.07178a8.99884,8.99884 0 0 1 5.9712,-11.24023l175.939,-53.86377a9.00867,9.00867 0 0 1 11.24072,5.9707l12.88037,42.07227a9.01029,9.01029 0 0 1 -5.9707,11.24072l-175.93949,53.86377a8.976,8.976 0 0 1 -2.6294,0.39502z"/>
  <circle id="svg_4" fill="#5d38db" r="20" cy="24.95465" cx="190.15351"/>
  <circle id="svg_5" fill="#fff" r="12.66462" cy="24.95465" cx="190.15351"/>
  <path id="svg_6" fill="#e6e6e6" d="m602.63648,582.17382l-338,0a8.50981,8.50981 0 0 1 -8.5,-8.5l0,-405a8.50951,8.50951 0 0 1 8.5,-8.5l338,0a8.50982,8.50982 0 0 1 8.5,8.5l0,405a8.51013,8.51013 0 0 1 -8.5,8.5z"/>
  <path id="svg_7" fill="#3f3d56" d="m447.13625,140.17382l-210.5,0a17.02411,17.02411 0 0 0 -17,17l0,407.8l2,-0.61l0,-407.19a15.01828,15.01828 0 0 1 15,-15l211.12012,0l-0.62012,-2zm183.5,0l-394,0a17.02411,17.02411 0 0 0 -17,17l0,458a17.0241,17.0241 0 0 0 17,17l394,0a17.0241,17.0241 0 0 0 17,-17l0,-458a17.02411,17.02411 0 0 0 -17,-17zm15,475a15.01828,15.01828 0 0 1 -15,15l-394,0a15.01828,15.01828 0 0 1 -15,-15l0,-458a15.01828,15.01828 0 0 1 15,-15l394,0a15.01828,15.01828 0 0 1 15,15l0,458z"/>
  <path id="svg_8" fill="#5d38db" d="m525.63648,184.17382l-184,0a9.01015,9.01015 0 0 1 -9,-9l0,-44a9.01016,9.01016 0 0 1 9,-9l184,0a9.01016,9.01016 0 0 1 9,9l0,44a9.01015,9.01015 0 0 1 -9,9z"/>
  <circle id="svg_9" fill="#5d38db" r="20" cy="105.17383" cx="433.63626"/>
  <circle id="svg_10" fill="#fff" r="12.18187" cy="105.17383" cx="433.63626"/>
  <text stroke="#000" transform="rotate(0.05785016715526581 441.20950317381426,277.14517211915455) matrix(2.94695782661438,0,0,2.6657028198242188,-798.8611332327127,-410.64779829978943) " xml:space="preserve" text-anchor="start" font-family="sans-serif" font-size="39" id="svg_11" y="271.54112" x="388.26147" stroke-width="0" fill="#5d38db">404</text>
  <text stroke="null" transform="rotate(0.4758141338825226 441.11718749998386,365.53906250000006) " xml:space="preserve" text-anchor="start" font-family="sans-serif" font-size="26" id="svg_13" y="374.54004" x="349.31812" stroke-opacity="null" stroke-width="0" fill="#000000">Page not found.</text>
 </g>
</svg>